{"glyphs":{"0":{"ha":939,"x_min":0,"x_max":0,"o":"m 469 -21 b 893 444 719 -21 893 132 l 893 549 b 469 1015 893 858 717 1015 b 46 547 208 1015 46 858 l 46 444 b 469 -21 46 131 203 -21 z m 469 208 b 313 456 357 208 313 292 l 313 536 b 469 786 313 700 357 786 b 625 536 579 786 625 703 l 625 456 b 469 208 625 288 578 208 z "},"1":{"ha":685,"x_min":0,"x_max":0,"o":"m 35 242 l 35 0 l 657 0 l 657 242 l 478 242 l 478 996 l 271 996 b 76 833 242 894 183 844 l 76 649 l 226 649 l 226 242 z "},"2":{"ha":882,"x_min":0,"x_max":0,"o":"m 39 0 l 844 0 l 844 232 l 335 232 b 521 353 339 281 424 314 b 850 701 669 408 850 488 b 454 1014 850 889 717 1014 b 46 668 182 1014 46 890 l 46 621 l 306 621 l 306 654 b 454 797 306 742 350 797 b 592 686 543 797 592 760 b 363 519 592 604 483 567 b 39 185 210 461 39 386 z "},"3":{"ha":907,"x_min":0,"x_max":0,"o":"m 443 -19 b 867 289 721 -19 867 103 b 710 513 867 418 806 483 b 849 731 801 547 849 618 b 457 1014 849 901 713 1014 b 44 681 189 1014 44 889 l 44 653 l 300 653 l 300 669 b 446 793 300 743 349 793 b 588 689 543 793 588 751 b 458 594 588 625 549 594 l 368 594 l 368 413 l 458 413 b 597 322 551 413 597 393 b 442 211 597 256 546 211 b 292 338 335 211 292 253 l 292 354 l 32 354 l 32 324 b 443 -19 32 96 146 -19 z "},"4":{"ha":917,"x_min":0,"x_max":0,"o":"m 496 0 l 746 0 l 746 193 l 894 193 l 894 403 l 746 403 l 746 996 l 503 996 l 17 372 l 17 193 l 496 193 z m 283 403 l 496 678 l 496 403 z "},"5":{"ha":893,"x_min":0,"x_max":0,"o":"m 447 -19 b 858 342 721 -19 858 119 b 531 686 858 549 742 686 b 293 586 410 686 340 643 l 322 781 l 568 781 b 825 996 792 781 825 807 l 126 996 l 47 461 l 297 399 l 301 403 b 457 489 332 454 381 489 b 601 350 549 489 601 440 b 453 206 601 258 544 206 b 310 326 360 206 310 257 l 310 332 l 33 332 l 33 331 b 447 -19 36 114 157 -19 z "},"6":{"ha":921,"x_min":0,"x_max":0,"o":"m 476 -21 b 883 318 728 -21 883 107 b 575 618 883 511 772 618 b 311 501 444 618 358 568 l 311 539 b 479 789 311 706 367 789 b 610 679 564 789 604 751 l 872 679 b 483 1015 864 894 731 1015 b 43 547 210 1015 43 858 l 43 444 b 476 -21 43 129 192 -21 z m 478 440 b 621 333 563 440 621 411 b 474 211 621 263 568 211 b 317 360 381 211 332 257 b 478 440 344 404 400 440 z "},"7":{"ha":814,"x_min":0,"x_max":0,"o":"m 101 0 l 414 0 b 801 801 486 299 636 590 l 801 996 l 22 996 l 22 754 l 493 754 b 101 0 358 588 183 299 z "},"8":{"ha":893,"x_min":0,"x_max":0,"o":"m 864 275 b 721 508 864 394 810 471 b 847 721 801 543 847 613 b 449 1014 847 903 696 1014 b 54 719 201 1014 54 900 b 176 506 54 608 96 540 b 29 275 85 464 29 385 b 444 -19 29 81 174 -19 b 864 275 715 -19 864 90 z m 450 792 b 596 688 547 792 596 753 b 458 592 596 624 550 592 l 438 592 b 306 686 346 592 306 622 b 450 792 306 753 356 792 z m 447 213 b 292 315 350 213 292 244 b 435 417 292 375 346 417 l 456 417 b 607 318 547 415 607 386 b 447 213 607 246 546 213 z "},"9":{"ha":915,"x_min":0,"x_max":0,"o":"m 451 -21 b 874 442 729 -21 874 136 l 874 550 b 443 1015 874 844 744 1015 b 38 667 192 1015 38 872 b 368 372 38 467 164 372 b 615 483 489 372 569 418 l 615 429 b 456 200 615 269 565 200 b 314 318 369 201 319 242 l 43 318 b 451 -21 54 97 182 -21 z m 304 657 l 304 658 b 449 788 304 736 358 788 b 613 618 551 788 603 731 b 449 546 579 578 518 546 b 304 657 360 546 304 582 z "},"\u0000":{"ha":0,"x_min":0,"x_max":0,"o":""},"\r":{"ha":393,"x_min":0,"x_max":0,"o":""}," ":{"ha":393,"x_min":0,"x_max":0,"o":""},"A":{"ha":946,"x_min":0,"x_max":0,"o":"m -3 0 l 253 0 l 307 175 l 639 175 l 694 0 l 949 0 l 600 996 l 342 996 z m 369 381 l 469 704 l 572 381 z "},"B":{"ha":899,"x_min":0,"x_max":0,"o":"m 74 0 l 500 0 b 871 290 756 0 871 106 b 726 513 871 407 818 475 b 849 738 806 551 849 621 b 460 996 849 904 731 996 l 74 996 z m 471 796 b 601 704 564 796 601 767 b 471 607 601 638 560 607 l 322 607 l 322 796 z m 458 414 b 614 315 572 414 614 382 b 457 215 614 250 578 215 l 321 215 l 322 414 z "},"C":{"ha":940,"x_min":0,"x_max":0,"o":"m 472 -21 b 910 390 746 -21 897 110 l 910 415 l 639 415 l 639 397 b 479 215 631 279 585 215 b 310 453 364 215 310 293 l 310 539 b 479 788 310 707 363 788 b 638 613 586 788 631 728 l 638 597 l 906 597 l 906 628 b 479 1015 892 889 739 1015 b 46 556 214 1015 46 864 l 46 429 b 472 -21 46 124 194 -21 z "},"D":{"ha":922,"x_min":0,"x_max":0,"o":"m 74 996 l 74 0 l 446 0 b 878 446 693 0 878 138 l 878 550 b 443 996 878 861 686 996 z m 429 779 b 619 528 542 779 619 704 l 619 469 b 432 221 619 296 543 221 l 328 221 l 328 779 z "},"E":{"ha":828,"x_min":0,"x_max":0,"o":"m 74 0 l 788 0 l 788 226 l 322 226 l 322 394 l 729 394 l 729 613 l 322 613 l 322 778 l 774 778 l 774 996 l 74 996 z "},"F":{"ha":785,"x_min":0,"x_max":0,"o":"m 74 0 l 322 0 l 322 350 l 728 350 l 728 576 l 322 576 l 322 769 l 747 769 l 747 996 l 74 996 z "},"G":{"ha":943,"x_min":0,"x_max":0,"o":"m 383 -21 b 661 231 557 -21 639 90 l 682 0 l 885 0 l 885 532 l 458 532 l 458 358 l 632 358 b 478 201 628 269 578 201 b 308 446 360 201 307 264 l 308 543 b 479 788 308 711 360 788 b 628 632 585 788 624 731 l 628 631 l 886 631 l 886 638 b 483 1015 881 883 743 1015 b 46 554 215 1015 46 867 l 46 433 b 383 -21 46 118 151 -21 z "},"H":{"ha":964,"x_min":0,"x_max":0,"o":"m 74 996 l 74 0 l 329 0 l 329 375 l 636 375 l 636 0 l 890 0 l 890 996 l 636 996 l 636 618 l 329 618 l 329 996 z "},"I":{"ha":675,"x_min":0,"x_max":0,"o":"m 46 236 l 46 0 l 629 0 l 629 236 l 461 236 l 461 764 l 629 764 l 629 996 l 46 996 l 46 764 l 214 764 l 214 236 z "},"J":{"ha":840,"x_min":0,"x_max":0,"o":"m 397 -21 b 775 393 647 -21 775 96 l 775 996 l 511 996 l 511 396 b 396 214 511 254 481 214 b 285 351 317 214 288 253 l 285 374 l 17 374 l 17 346 b 397 -21 21 79 156 -21 z "},"K":{"ha":936,"x_min":0,"x_max":0,"o":"m 74 996 l 74 0 l 322 0 l 322 286 l 444 439 l 660 0 l 940 0 l 625 619 l 929 996 l 629 996 l 322 614 l 322 996 z "},"L":{"ha":783,"x_min":0,"x_max":0,"o":"m 74 996 l 74 0 l 753 0 l 753 249 l 335 249 l 335 996 z "},"M":{"ha":1092,"x_min":0,"x_max":0,"o":"m 74 0 l 315 0 l 315 603 l 528 301 l 560 301 l 775 606 l 775 0 l 1018 0 l 1018 994 l 790 994 l 547 649 l 304 996 l 74 996 z "},"N":{"ha":988,"x_min":0,"x_max":0,"o":"m 74 0 l 311 0 l 311 596 l 682 0 l 914 0 l 914 996 l 676 996 l 676 408 l 311 996 l 74 996 z "},"O":{"ha":953,"x_min":0,"x_max":0,"o":"m 475 -19 b 907 440 732 -19 907 126 l 907 549 b 476 1015 907 861 728 1015 b 46 549 218 1015 46 860 l 46 440 b 475 -19 46 125 203 -19 z m 476 208 b 311 456 360 208 311 292 l 311 538 b 476 788 311 701 360 788 b 642 536 592 788 642 706 l 642 456 b 476 208 642 289 592 208 z "},"P":{"ha":901,"x_min":0,"x_max":0,"o":"m 74 0 l 324 0 l 324 294 l 472 294 b 872 647 746 293 872 429 b 468 996 872 858 744 996 l 74 996 z m 464 782 b 618 647 564 782 618 731 b 464 510 618 556 560 510 l 324 510 l 324 782 z "},"Q":{"ha":950,"x_min":0,"x_max":0,"o":"m 471 -21 b 519 -18 488 -21 504 -19 l 593 -161 l 886 -161 l 747 67 b 904 443 843 142 904 265 l 904 547 b 475 1015 904 860 722 1015 b 46 547 214 1015 46 858 l 46 443 b 471 -21 46 125 203 -21 z m 475 208 b 310 456 358 208 310 292 l 310 536 b 475 788 310 700 358 788 b 640 535 590 788 640 704 l 640 456 b 475 208 640 290 588 208 z "},"R":{"ha":910,"x_min":0,"x_max":0,"o":"m 74 0 l 324 0 l 324 333 l 447 333 b 585 204 547 333 585 301 l 585 60 b 607 0 585 32 593 10 l 868 0 b 844 56 853 11 844 29 l 844 214 b 724 439 844 336 803 403 b 867 685 814 482 867 558 l 867 686 b 475 996 867 872 757 996 l 74 996 z m 471 782 b 610 669 568 782 610 740 b 469 551 610 596 563 551 l 324 551 l 324 782 z "},"S":{"ha":851,"x_min":0,"x_max":0,"o":"m 432 -19 b 828 306 693 -19 828 111 b 504 610 826 525 656 575 b 294 722 392 633 294 649 b 415 813 294 771 326 813 b 556 690 511 813 551 774 l 556 689 l 810 689 l 810 690 b 421 1017 807 900 675 1017 b 39 713 165 1017 39 888 b 356 417 39 497 207 450 b 571 296 469 390 572 375 b 439 196 571 239 531 196 b 282 340 329 196 283 246 l 282 344 l 17 344 l 17 343 b 432 -19 19 110 124 -19 z "},"T":{"ha":825,"x_min":0,"x_max":0,"o":"m 285 0 l 536 0 l 536 763 l 793 763 l 793 996 l 32 996 l 32 763 l 285 763 z "},"U":{"ha":925,"x_min":0,"x_max":0,"o":"m 464 -21 b 860 429 715 -21 860 118 l 860 996 l 594 996 l 594 439 b 464 224 594 281 561 224 b 331 439 371 224 331 285 l 331 996 l 65 996 l 65 429 b 464 -21 65 118 192 -21 z "},"V":{"ha":908,"x_min":0,"x_max":0,"o":"m 326 0 l 586 0 l 910 996 l 646 996 l 458 361 l 265 996 l 0 996 z "},"W":{"ha":1360,"x_min":0,"x_max":0,"o":"m 242 0 l 475 0 l 667 572 l 843 0 l 1083 0 l 1354 996 l 1106 996 l 950 372 l 774 996 l 576 996 l 388 389 l 257 996 l 6 996 z "},"X":{"ha":929,"x_min":0,"x_max":0,"o":"m -10 0 l 282 0 l 467 314 l 654 0 l 938 0 l 615 526 l 911 996 l 629 996 l 464 718 l 301 996 l 22 996 l 313 526 z "},"Y":{"ha":876,"x_min":0,"x_max":0,"o":"m 300 0 l 564 0 l 564 385 l 883 996 l 615 996 l 435 638 l 263 996 l -6 996 l 300 385 z "},"Z":{"ha":851,"x_min":0,"x_max":0,"o":"m 36 0 l 807 0 l 807 240 l 388 240 l 804 794 l 804 996 l 63 996 l 63 760 l 476 760 l 36 182 z "},"Á":{"ha":946,"x_min":0,"x_max":0,"o":"m -3 0 l 253 0 l 307 175 l 639 175 l 694 0 l 949 0 l 600 996 l 342 996 z m 369 381 l 469 704 l 572 381 z m 365 1089 l 546 1089 l 785 1360 l 542 1360 z "},"Ă":{"ha":946,"x_min":0,"x_max":0,"o":"m -3 0 l 253 0 l 307 175 l 639 175 l 694 0 l 949 0 l 600 996 l 342 996 z m 369 381 l 469 704 l 572 381 z m 465 1086 b 736 1364 650 1086 736 1183 l 572 1364 b 465 1239 572 1278 540 1240 b 358 1364 389 1240 358 1278 l 197 1364 b 465 1086 197 1183 267 1086 z "},"Ắ":{"ha":946,"x_min":0,"x_max":0,"o":"m -3 0 l 253 0 l 307 175 l 639 175 l 694 0 l 949 0 l 600 996 l 342 996 z m 369 381 l 469 704 l 572 381 z m 382 1314 l 528 1314 l 644 1533 l 453 1533 z m 461 1064 b 742 1314 654 1064 742 1161 l 578 1314 b 464 1215 578 1250 542 1215 b 349 1314 385 1215 350 1250 l 188 1314 b 461 1064 188 1161 268 1064 z "},"Ặ":{"ha":946,"x_min":0,"x_max":0,"o":"m -3 0 l 253 0 l 307 175 l 639 175 l 694 0 l 949 0 l 600 996 l 342 996 z m 369 381 l 469 704 l 572 381 z m 465 1086 b 736 1364 650 1086 736 1183 l 572 1364 b 465 1239 572 1278 540 1240 b 358 1364 389 1240 358 1278 l 197 1364 b 465 1086 197 1183 267 1086 z m 472 -349 b 610 -217 571 -349 610 -321 b 472 -85 610 -112 569 -85 b 335 -217 375 -85 335 -112 b 472 -349 335 -324 367 -349 z "},"Ằ":{"ha":946,"x_min":0,"x_max":0,"o":"m -3 0 l 253 0 l 307 175 l 639 175 l 694 0 l 949 0 l 600 996 l 342 996 z m 369 381 l 469 704 l 572 381 z m 554 1314 l 485 1533 l 292 1533 l 407 1314 z m 468 1064 b 744 1314 658 1064 744 1161 l 581 1314 b 467 1215 581 1250 544 1215 b 351 1314 388 1215 353 1250 l 190 1314 b 468 1064 190 1161 272 1064 z "},"Ẳ":{"ha":946,"x_min":0,"x_max":0,"o":"m -3 0 l 253 0 l 307 175 l 639 175 l 694 0 l 949 0 l 600 996 l 342 996 z m 369 381 l 469 704 l 572 381 z m 578 1354 b 672 1472 646 1382 672 1421 b 467 1606 672 1553 603 1606 b 256 1446 326 1606 256 1547 l 407 1446 b 464 1488 407 1475 429 1488 b 511 1463 493 1488 511 1479 b 464 1425 511 1449 506 1440 b 392 1310 411 1404 392 1376 l 542 1310 b 578 1354 542 1331 546 1340 z m 467 1061 b 744 1311 654 1061 744 1158 l 581 1311 b 468 1213 581 1247 546 1213 b 354 1311 388 1213 354 1247 l 190 1311 b 467 1061 190 1158 272 1061 z "},"Ẵ":{"ha":946,"x_min":0,"x_max":0,"o":"m -3 0 l 253 0 l 307 175 l 639 175 l 694 0 l 949 0 l 600 996 l 342 996 z m 369 381 l 469 704 l 572 381 z m 183 1358 l 329 1358 b 375 1418 331 1400 344 1418 b 576 1353 429 1418 476 1356 b 743 1564 693 1356 743 1418 l 596 1564 b 549 1506 594 1518 581 1506 b 351 1567 499 1506 444 1567 b 183 1358 231 1567 183 1496 z m 465 1064 b 743 1314 653 1064 743 1161 l 579 1314 b 467 1215 579 1250 544 1215 b 353 1314 386 1215 353 1250 l 189 1314 b 465 1064 189 1161 271 1064 z "},"Ǎ":{"ha":946,"x_min":0,"x_max":0,"o":"m -3 0 l 253 0 l 307 175 l 639 175 l 694 0 l 949 0 l 600 996 l 342 996 z m 369 381 l 469 704 l 572 381 z m 385 1089 l 546 1089 l 732 1378 l 551 1378 l 465 1233 l 382 1378 l 197 1378 z "},"Â":{"ha":946,"x_min":0,"x_max":0,"o":"m -3 0 l 253 0 l 307 175 l 639 175 l 694 0 l 949 0 l 600 996 l 342 996 z m 369 381 l 469 704 l 572 381 z m 199 1089 l 382 1089 l 465 1235 l 550 1089 l 735 1089 l 547 1378 l 386 1378 z "},"Ấ":{"ha":946,"x_min":0,"x_max":0,"o":"m -3 0 l 253 0 l 307 175 l 639 175 l 694 0 l 949 0 l 600 996 l 342 996 z m 369 381 l 469 704 l 572 381 z m 642 1243 l 786 1243 l 903 1463 l 713 1463 z m 182 1063 l 369 1063 l 464 1172 l 556 1063 l 750 1063 l 547 1301 l 385 1301 z "},"Ậ":{"ha":946,"x_min":0,"x_max":0,"o":"m -3 0 l 253 0 l 307 175 l 639 175 l 694 0 l 949 0 l 600 996 l 342 996 z m 369 381 l 469 704 l 572 381 z m 199 1089 l 382 1089 l 465 1235 l 550 1089 l 735 1089 l 547 1378 l 386 1378 z m 472 -349 b 610 -217 571 -349 610 -321 b 472 -85 610 -112 569 -85 b 335 -217 375 -85 335 -112 b 472 -349 335 -324 367 -349 z "},"Ầ":{"ha":946,"x_min":0,"x_max":0,"o":"m -3 0 l 253 0 l 307 175 l 639 175 l 694 0 l 949 0 l 600 996 l 342 996 z m 369 381 l 469 704 l 572 381 z m 807 1243 l 735 1463 l 546 1463 l 661 1243 z m 186 1063 l 374 1063 l 468 1172 l 560 1063 l 754 1063 l 551 1301 l 389 1301 z "},"Ẩ":{"ha":946,"x_min":0,"x_max":0,"o":"m -3 0 l 253 0 l 307 175 l 639 175 l 694 0 l 949 0 l 600 996 l 342 996 z m 369 381 l 469 704 l 572 381 z m 824 1286 b 918 1404 894 1314 918 1351 b 714 1538 918 1479 849 1538 b 503 1379 575 1538 504 1476 l 654 1379 b 711 1419 654 1407 676 1419 b 757 1394 740 1419 757 1410 b 711 1358 757 1379 751 1374 b 639 1242 657 1338 639 1310 l 789 1242 b 824 1286 789 1263 793 1272 z m 186 1063 l 374 1063 l 468 1174 l 563 1063 l 754 1063 l 551 1301 l 389 1301 z "},"Ẫ":{"ha":946,"x_min":0,"x_max":0,"o":"m -3 0 l 253 0 l 307 175 l 639 175 l 694 0 l 949 0 l 600 996 l 342 996 z m 369 381 l 469 704 l 572 381 z m 193 1338 l 340 1338 b 385 1396 339 1379 354 1396 b 588 1335 440 1396 488 1335 b 751 1544 704 1335 753 1399 l 606 1544 b 560 1485 606 1499 592 1485 b 361 1547 508 1485 456 1547 b 193 1338 242 1547 193 1476 z m 186 1063 l 374 1063 l 468 1171 l 560 1063 l 754 1063 l 551 1301 l 389 1301 z "},"Ä":{"ha":946,"x_min":0,"x_max":0,"o":"m -3 0 l 253 0 l 307 175 l 639 175 l 694 0 l 949 0 l 600 996 l 342 996 z m 369 381 l 469 704 l 572 381 z m 325 1085 b 440 1199 408 1085 440 1114 b 325 1314 440 1286 406 1314 b 211 1199 244 1314 211 1286 b 325 1085 211 1111 238 1085 z m 613 1085 b 728 1199 694 1085 728 1114 b 613 1314 728 1286 693 1314 b 499 1199 531 1314 499 1286 b 613 1085 499 1111 524 1085 z "},"Ạ":{"ha":946,"x_min":0,"x_max":0,"o":"m -3 0 l 253 0 l 307 175 l 639 175 l 694 0 l 949 0 l 600 996 l 342 996 z m 369 381 l 469 704 l 572 381 z m 472 -349 b 610 -217 571 -349 610 -321 b 472 -85 610 -112 569 -85 b 335 -217 375 -85 335 -112 b 472 -349 335 -324 367 -349 z "},"À":{"ha":946,"x_min":0,"x_max":0,"o":"m -3 0 l 253 0 l 307 175 l 639 175 l 694 0 l 949 0 l 600 996 l 342 996 z m 369 381 l 469 704 l 572 381 z m 400 1089 l 572 1089 l 411 1361 l 167 1361 z "},"Ả":{"ha":946,"x_min":0,"x_max":0,"o":"m -3 0 l 253 0 l 307 175 l 639 175 l 694 0 l 949 0 l 600 996 l 342 996 z m 369 381 l 469 704 l 572 381 z m 596 1140 b 697 1276 676 1176 697 1217 b 469 1436 697 1372 618 1436 b 233 1244 310 1436 233 1374 l 397 1244 b 464 1301 397 1285 419 1301 b 522 1269 501 1301 522 1290 b 463 1222 522 1249 511 1242 b 383 1078 399 1196 383 1161 l 553 1078 b 596 1140 553 1113 560 1124 z "},"Ā":{"ha":946,"x_min":0,"x_max":0,"o":"m -3 0 l 253 0 l 307 175 l 639 175 l 694 0 l 949 0 l 600 996 l 342 996 z m 369 381 l 469 704 l 572 381 z m 254 1099 l 686 1099 l 686 1264 l 254 1264 z "},"Ą":{"ha":946,"x_min":0,"x_max":0,"o":"m -3 0 l 253 0 l 307 175 l 639 175 l 693 4 b 581 -181 603 -61 581 -119 b 810 -356 581 -292 661 -356 b 1089 -151 960 -356 1053 -287 l 889 -151 b 821 -211 881 -190 856 -211 b 764 -165 786 -211 764 -196 b 949 0 764 -128 789 -100 l 600 996 l 342 996 z m 369 381 l 469 704 l 572 381 z "},"Å":{"ha":946,"x_min":0,"x_max":0,"o":"m -3 0 l 253 0 l 307 175 l 639 175 l 694 0 l 949 0 l 600 996 l 342 996 z m 369 381 l 469 704 l 572 381 z m 468 1085 b 683 1276 601 1085 683 1158 b 468 1474 683 1403 597 1474 b 257 1276 346 1474 257 1403 b 468 1085 257 1153 336 1085 z m 469 1222 b 410 1279 429 1222 410 1244 b 469 1336 410 1315 431 1336 b 529 1279 508 1336 529 1315 b 469 1222 529 1243 503 1222 z "},"Ǻ":{"ha":946,"x_min":0,"x_max":0,"o":"m -3 0 l 253 0 l 307 175 l 639 175 l 694 0 l 949 0 l 600 996 l 342 996 z m 369 381 l 469 704 l 572 381 z m 469 1072 b 686 1253 604 1072 686 1143 b 557 1425 686 1343 638 1401 l 636 1575 l 444 1575 l 397 1429 b 256 1251 311 1407 256 1347 b 469 1072 256 1138 338 1072 z m 471 1200 b 411 1254 431 1200 411 1222 b 471 1311 411 1288 432 1311 b 529 1253 510 1311 529 1289 b 471 1200 529 1222 511 1200 z "},"Ã":{"ha":946,"x_min":0,"x_max":0,"o":"m -3 0 l 253 0 l 307 175 l 639 175 l 694 0 l 949 0 l 600 996 l 342 996 z m 369 381 l 469 704 l 572 381 z m 169 1089 l 318 1089 b 363 1161 319 1139 331 1161 b 590 1082 426 1161 482 1082 b 768 1328 724 1082 768 1161 l 617 1328 b 571 1258 618 1276 607 1258 b 346 1335 515 1258 451 1335 b 169 1089 215 1335 169 1251 z "},"Æ":{"ha":1364,"x_min":0,"x_max":0,"o":"m -24 0 l 236 0 l 314 175 l 658 175 l 692 0 l 1319 0 l 1319 226 l 881 226 l 846 394 l 1261 394 l 1261 613 l 803 613 l 768 779 l 1306 779 l 1306 996 l 457 996 z m 406 381 l 554 711 l 618 381 z "},"Ǽ":{"ha":1364,"x_min":0,"x_max":0,"o":"m -24 0 l 236 0 l 314 175 l 658 175 l 692 0 l 1319 0 l 1319 226 l 881 226 l 846 394 l 1261 394 l 1261 613 l 803 613 l 768 779 l 1306 779 l 1306 996 l 457 996 z m 406 381 l 554 711 l 618 381 z m 671 1085 l 851 1085 l 1090 1356 l 847 1356 z "},"Ć":{"ha":940,"x_min":0,"x_max":0,"o":"m 472 -21 b 910 390 746 -21 897 110 l 910 415 l 639 415 l 639 397 b 479 215 631 279 585 215 b 310 453 364 215 310 293 l 310 539 b 479 788 310 707 363 788 b 638 613 586 788 631 728 l 638 597 l 906 597 l 906 628 b 479 1015 892 889 739 1015 b 46 556 214 1015 46 864 l 46 429 b 472 -21 46 124 194 -21 z m 375 1108 l 556 1108 l 794 1379 l 551 1379 z "},"Č":{"ha":940,"x_min":0,"x_max":0,"o":"m 472 -21 b 910 390 746 -21 897 110 l 910 415 l 639 415 l 639 397 b 479 215 631 279 585 215 b 310 453 364 215 310 293 l 310 539 b 479 788 310 707 363 788 b 638 613 586 788 631 728 l 638 597 l 906 597 l 906 628 b 479 1015 892 889 739 1015 b 46 556 214 1015 46 864 l 46 429 b 472 -21 46 124 194 -21 z m 397 1108 l 558 1108 l 744 1397 l 564 1397 l 478 1253 l 394 1397 l 210 1397 z "},"Ç":{"ha":940,"x_min":0,"x_max":0,"o":"m 485 -424 b 740 -235 647 -424 740 -351 b 553 -81 740 -133 674 -86 l 553 -17 b 910 390 775 7 899 139 l 910 415 l 639 415 l 639 397 b 479 215 631 279 585 215 b 310 453 364 215 310 293 l 310 539 b 479 788 310 707 363 788 b 638 613 586 788 631 728 l 638 597 l 906 597 l 906 628 b 479 1015 892 889 739 1015 b 46 556 214 1015 46 864 l 46 429 b 393 -17 46 154 167 10 l 393 -189 l 486 -189 b 569 -236 547 -189 569 -206 b 488 -290 569 -269 543 -290 b 396 -231 435 -290 404 -271 l 201 -231 b 485 -424 228 -360 311 -424 z "},"Ĉ":{"ha":940,"x_min":0,"x_max":0,"o":"m 472 -21 b 910 390 746 -21 897 110 l 910 415 l 639 415 l 639 397 b 479 215 631 279 585 215 b 310 453 364 215 310 293 l 310 539 b 479 788 310 707 363 788 b 638 613 586 788 631 728 l 638 597 l 906 597 l 906 628 b 479 1015 892 889 739 1015 b 46 556 214 1015 46 864 l 46 429 b 472 -21 46 124 194 -21 z m 210 1108 l 393 1108 l 476 1254 l 561 1108 l 746 1108 l 558 1397 l 397 1397 z "},"Ċ":{"ha":940,"x_min":0,"x_max":0,"o":"m 472 -21 b 910 390 746 -21 897 110 l 910 415 l 639 415 l 639 397 b 479 215 631 279 585 215 b 310 453 364 215 310 293 l 310 539 b 479 788 310 707 363 788 b 638 613 586 788 631 728 l 638 597 l 906 597 l 906 628 b 479 1015 892 889 739 1015 b 46 556 214 1015 46 864 l 46 429 b 472 -21 46 124 194 -21 z m 478 1104 b 615 1236 576 1104 615 1133 b 478 1369 615 1342 575 1369 b 340 1236 381 1369 340 1342 b 478 1104 340 1128 372 1104 z "},"Ď":{"ha":922,"x_min":0,"x_max":0,"o":"m 74 996 l 74 0 l 446 0 b 878 446 693 0 878 138 l 878 550 b 443 996 878 861 686 996 z m 429 779 b 619 528 542 779 619 704 l 619 469 b 432 221 619 296 543 221 l 328 221 l 328 779 z m 386 1089 l 547 1089 l 733 1378 l 553 1378 l 467 1233 l 383 1378 l 199 1378 z "},"Đ":{"ha":949,"x_min":0,"x_max":0,"o":"m -3 607 l -3 388 l 99 388 l 99 0 l 471 0 b 903 446 718 0 903 138 l 903 550 b 467 996 903 861 711 996 l 99 996 l 99 607 z m 488 388 l 488 607 l 344 607 l 344 779 l 453 779 b 643 528 567 779 643 704 l 643 469 b 457 221 643 296 568 221 l 344 221 l 344 388 z "},"É":{"ha":828,"x_min":0,"x_max":0,"o":"m 74 0 l 788 0 l 788 226 l 322 226 l 322 394 l 729 394 l 729 613 l 322 613 l 322 778 l 774 778 l 774 996 l 74 996 z m 325 1089 l 506 1089 l 744 1360 l 501 1360 z "},"Ĕ":{"ha":828,"x_min":0,"x_max":0,"o":"m 74 0 l 788 0 l 788 226 l 322 226 l 322 394 l 729 394 l 729 613 l 322 613 l 322 778 l 774 778 l 774 996 l 74 996 z m 426 1086 b 697 1364 611 1086 697 1183 l 533 1364 b 426 1239 533 1278 501 1240 b 319 1364 350 1240 319 1278 l 158 1364 b 426 1086 158 1183 228 1086 z "},"Ě":{"ha":828,"x_min":0,"x_max":0,"o":"m 74 0 l 788 0 l 788 226 l 322 226 l 322 394 l 729 394 l 729 613 l 322 613 l 322 778 l 774 778 l 774 996 l 74 996 z m 344 1089 l 506 1089 l 692 1378 l 511 1378 l 425 1233 l 342 1378 l 157 1378 z "},"Ê":{"ha":828,"x_min":0,"x_max":0,"o":"m 74 0 l 788 0 l 788 226 l 322 226 l 322 394 l 729 394 l 729 613 l 322 613 l 322 778 l 774 778 l 774 996 l 74 996 z m 160 1089 l 343 1089 l 426 1235 l 511 1089 l 696 1089 l 508 1378 l 347 1378 z "},"Ế":{"ha":828,"x_min":0,"x_max":0,"o":"m 74 0 l 788 0 l 788 226 l 322 226 l 322 394 l 729 394 l 729 613 l 322 613 l 322 778 l 774 778 l 774 996 l 74 996 z m 603 1243 l 747 1243 l 864 1463 l 674 1463 z m 143 1063 l 331 1063 l 425 1172 l 517 1063 l 711 1063 l 508 1301 l 346 1301 z "},"Ệ":{"ha":828,"x_min":0,"x_max":0,"o":"m 74 0 l 788 0 l 788 226 l 322 226 l 322 394 l 729 394 l 729 613 l 322 613 l 322 778 l 774 778 l 774 996 l 74 996 z m 160 1089 l 343 1089 l 426 1235 l 511 1089 l 696 1089 l 508 1378 l 347 1378 z m 440 -362 b 578 -231 539 -362 578 -335 b 440 -99 578 -126 538 -99 b 303 -231 343 -99 303 -126 b 440 -362 303 -337 335 -362 z "},"Ề":{"ha":828,"x_min":0,"x_max":0,"o":"m 74 0 l 788 0 l 788 226 l 322 226 l 322 394 l 729 394 l 729 613 l 322 613 l 322 778 l 774 778 l 774 996 l 74 996 z m 764 1243 l 692 1463 l 503 1463 l 618 1243 z m 143 1063 l 331 1063 l 425 1172 l 517 1063 l 711 1063 l 508 1301 l 346 1301 z "},"Ể":{"ha":828,"x_min":0,"x_max":0,"o":"m 74 0 l 788 0 l 788 226 l 322 226 l 322 394 l 729 394 l 729 613 l 322 613 l 322 778 l 774 778 l 774 996 l 74 996 z m 783 1286 b 878 1404 854 1314 878 1351 b 674 1538 878 1479 808 1538 b 463 1379 535 1538 464 1476 l 614 1379 b 671 1419 614 1407 636 1419 b 717 1394 700 1419 717 1410 b 671 1358 717 1379 711 1374 b 599 1242 617 1338 599 1310 l 749 1242 b 783 1286 749 1263 753 1272 z m 146 1063 l 333 1063 l 428 1174 l 522 1063 l 714 1063 l 511 1301 l 349 1301 z "},"Ễ":{"ha":828,"x_min":0,"x_max":0,"o":"m 74 0 l 788 0 l 788 226 l 322 226 l 322 394 l 729 394 l 729 613 l 322 613 l 322 778 l 774 778 l 774 996 l 74 996 z m 150 1338 l 297 1338 b 342 1396 296 1379 311 1396 b 544 1335 397 1396 444 1335 b 708 1544 661 1335 710 1399 l 563 1544 b 517 1485 563 1499 549 1485 b 318 1547 465 1485 413 1547 b 150 1338 199 1547 150 1476 z m 143 1063 l 331 1063 l 425 1171 l 517 1063 l 711 1063 l 508 1301 l 346 1301 z "},"Ë":{"ha":828,"x_min":0,"x_max":0,"o":"m 74 0 l 788 0 l 788 226 l 322 226 l 322 394 l 729 394 l 729 613 l 322 613 l 322 778 l 774 778 l 774 996 l 74 996 z m 285 1085 b 400 1199 368 1085 400 1114 b 285 1314 400 1286 365 1314 b 171 1199 204 1314 171 1286 b 285 1085 171 1111 197 1085 z m 572 1085 b 688 1199 654 1085 688 1114 b 572 1314 688 1286 653 1314 b 458 1199 490 1314 458 1286 b 572 1085 458 1111 483 1085 z "},"Ė":{"ha":828,"x_min":0,"x_max":0,"o":"m 74 0 l 788 0 l 788 226 l 322 226 l 322 394 l 729 394 l 729 613 l 322 613 l 322 778 l 774 778 l 774 996 l 74 996 z m 428 1085 b 565 1217 526 1085 565 1114 b 428 1350 565 1322 525 1350 b 290 1217 331 1350 290 1322 b 428 1085 290 1108 322 1085 z "},"Ẹ":{"ha":828,"x_min":0,"x_max":0,"o":"m 74 0 l 788 0 l 788 226 l 322 226 l 322 394 l 729 394 l 729 613 l 322 613 l 322 778 l 774 778 l 774 996 l 74 996 z m 440 -362 b 578 -231 539 -362 578 -335 b 440 -99 578 -126 538 -99 b 303 -231 343 -99 303 -126 b 440 -362 303 -337 335 -362 z "},"È":{"ha":828,"x_min":0,"x_max":0,"o":"m 74 0 l 788 0 l 788 226 l 322 226 l 322 394 l 729 394 l 729 613 l 322 613 l 322 778 l 774 778 l 774 996 l 74 996 z m 360 1089 l 532 1089 l 371 1361 l 126 1361 z "},"Ẻ":{"ha":828,"x_min":0,"x_max":0,"o":"m 74 0 l 788 0 l 788 226 l 322 226 l 322 394 l 729 394 l 729 613 l 322 613 l 322 778 l 774 778 l 774 996 l 74 996 z m 556 1147 b 657 1283 636 1183 657 1224 b 429 1443 657 1379 578 1443 b 193 1251 269 1443 193 1381 l 357 1251 b 424 1308 357 1292 379 1308 b 482 1276 461 1308 482 1297 b 422 1229 482 1256 471 1249 b 343 1085 358 1203 343 1168 l 513 1085 b 556 1147 513 1119 519 1131 z "},"Ē":{"ha":828,"x_min":0,"x_max":0,"o":"m 74 0 l 788 0 l 788 226 l 322 226 l 322 394 l 729 394 l 729 613 l 322 613 l 322 778 l 774 778 l 774 996 l 74 996 z m 214 1099 l 646 1099 l 646 1264 l 214 1264 z "},"Ŋ":{"ha":988,"x_min":0,"x_max":0,"o":"m 517 -335 l 606 -335 b 914 -33 865 -335 914 -281 l 914 996 l 676 996 l 676 408 l 313 996 l 72 996 l 72 0 l 311 0 l 311 596 l 678 6 l 679 -6 b 582 -112 679 -101 667 -112 l 517 -112 z "},"Ę":{"ha":828,"x_min":0,"x_max":0,"o":"m 74 0 l 526 0 b 419 -181 440 -64 419 -121 b 649 -356 419 -292 500 -356 b 928 -151 799 -356 892 -287 l 728 -151 b 660 -211 719 -190 694 -211 b 603 -165 625 -211 603 -196 b 788 0 603 -128 628 -100 l 788 226 l 322 226 l 322 394 l 729 394 l 729 613 l 322 613 l 322 778 l 774 778 l 774 996 l 74 996 z "},"Ð":{"ha":949,"x_min":0,"x_max":0,"o":"m -3 607 l -3 388 l 99 388 l 99 0 l 471 0 b 903 446 718 0 903 138 l 903 550 b 467 996 903 861 711 996 l 99 996 l 99 607 z m 488 388 l 488 607 l 344 607 l 344 779 l 453 779 b 643 528 567 779 643 704 l 643 469 b 457 221 643 296 568 221 l 344 221 l 344 388 z "},"Ẽ":{"ha":828,"x_min":0,"x_max":0,"o":"m 74 0 l 788 0 l 788 226 l 322 226 l 322 394 l 729 394 l 729 613 l 322 613 l 322 778 l 774 778 l 774 996 l 74 996 z m 129 1089 l 278 1089 b 322 1161 279 1139 290 1161 b 550 1082 386 1161 442 1082 b 728 1328 683 1082 728 1161 l 576 1328 b 531 1258 578 1276 567 1258 b 306 1335 475 1258 411 1335 b 129 1089 175 1335 129 1251 z "},"Ğ":{"ha":943,"x_min":0,"x_max":0,"o":"m 383 -21 b 661 231 557 -21 639 90 l 682 0 l 885 0 l 885 532 l 458 532 l 458 358 l 632 358 b 478 201 628 269 578 201 b 308 446 360 201 307 264 l 308 543 b 479 788 308 711 360 788 b 628 632 585 788 624 731 l 628 631 l 886 631 l 886 638 b 483 1015 881 883 743 1015 b 46 554 215 1015 46 867 l 46 433 b 383 -21 46 118 151 -21 z m 478 1106 b 749 1383 663 1106 749 1203 l 585 1383 b 478 1258 585 1297 553 1260 b 371 1383 401 1260 371 1297 l 210 1383 b 478 1106 210 1203 279 1106 z "},"Ǧ":{"ha":943,"x_min":0,"x_max":0,"o":"m 383 -21 b 661 231 557 -21 639 90 l 682 0 l 885 0 l 885 532 l 458 532 l 458 358 l 632 358 b 478 201 628 269 578 201 b 308 446 360 201 307 264 l 308 543 b 479 788 308 711 360 788 b 628 632 585 788 624 731 l 628 631 l 886 631 l 886 638 b 483 1015 881 883 743 1015 b 46 554 215 1015 46 867 l 46 433 b 383 -21 46 118 151 -21 z m 397 1108 l 558 1108 l 744 1397 l 564 1397 l 478 1253 l 394 1397 l 210 1397 z "},"Ĝ":{"ha":943,"x_min":0,"x_max":0,"o":"m 383 -21 b 661 231 557 -21 639 90 l 682 0 l 885 0 l 885 532 l 458 532 l 458 358 l 632 358 b 478 201 628 269 578 201 b 308 446 360 201 307 264 l 308 543 b 479 788 308 711 360 788 b 628 632 585 788 624 731 l 628 631 l 886 631 l 886 638 b 483 1015 881 883 743 1015 b 46 554 215 1015 46 867 l 46 433 b 383 -21 46 118 151 -21 z m 210 1107 l 393 1107 l 476 1253 l 561 1107 l 746 1107 l 558 1396 l 397 1396 z "},"Ģ":{"ha":943,"x_min":0,"x_max":0,"o":"m 383 -21 b 661 231 557 -21 639 90 l 682 0 l 885 0 l 885 532 l 458 532 l 458 358 l 632 358 b 478 201 628 269 578 201 b 308 446 360 201 307 264 l 308 543 b 479 788 308 711 360 788 b 628 632 585 788 624 731 l 628 631 l 886 631 l 886 638 b 483 1015 881 883 743 1015 b 46 554 215 1015 46 867 l 46 433 b 383 -21 46 118 151 -21 z m 378 -346 l 376 -433 b 601 -215 532 -425 601 -343 b 481 -83 601 -117 571 -83 b 358 -185 393 -83 358 -112 b 461 -272 358 -260 389 -272 b 486 -271 469 -272 478 -272 b 378 -346 478 -318 444 -342 z "},"Ġ":{"ha":943,"x_min":0,"x_max":0,"o":"m 383 -21 b 661 231 557 -21 639 90 l 682 0 l 885 0 l 885 532 l 458 532 l 458 358 l 632 358 b 478 201 628 269 578 201 b 308 446 360 201 307 264 l 308 543 b 479 788 308 711 360 788 b 628 632 585 788 624 731 l 628 631 l 886 631 l 886 638 b 483 1015 881 883 743 1015 b 46 554 215 1015 46 867 l 46 433 b 383 -21 46 118 151 -21 z m 478 1104 b 615 1236 576 1104 615 1133 b 478 1369 615 1342 575 1369 b 340 1236 381 1369 340 1342 b 478 1104 340 1128 372 1104 z "},"Ħ":{"ha":1019,"x_min":0,"x_max":0,"o":"m -3 847 l -3 651 l 101 651 l 101 0 l 357 0 l 357 319 l 664 319 l 664 0 l 918 0 l 918 651 l 1022 651 l 1022 847 l 918 847 l 918 996 l 664 996 l 664 847 l 357 847 l 357 996 l 101 996 l 101 847 z m 357 521 l 357 651 l 664 651 l 664 521 z "},"Ĥ":{"ha":964,"x_min":0,"x_max":0,"o":"m 74 996 l 74 0 l 329 0 l 329 375 l 636 375 l 636 0 l 890 0 l 890 996 l 636 996 l 636 618 l 329 618 l 329 996 z m 217 1078 l 400 1078 l 483 1224 l 568 1078 l 753 1078 l 565 1367 l 404 1367 z "},"Ĳ":{"ha":1143,"x_min":0,"x_max":0,"o":"m 710 239 l 710 0 l 749 0 b 1078 351 1021 0 1078 53 l 1078 996 l 814 996 l 814 358 b 722 239 814 250 806 239 z m 49 239 l 49 0 l 638 0 l 638 239 l 464 239 l 464 760 l 629 760 l 629 996 l 49 996 l 49 760 l 215 760 l 215 239 z "},"Í":{"ha":675,"x_min":0,"x_max":0,"o":"m 46 236 l 46 0 l 629 0 l 629 236 l 461 236 l 461 764 l 629 764 l 629 996 l 46 996 l 46 764 l 214 764 l 214 236 z m 238 1089 l 418 1089 l 657 1360 l 414 1360 z "},"Ĭ":{"ha":675,"x_min":0,"x_max":0,"o":"m 46 236 l 46 0 l 629 0 l 629 236 l 461 236 l 461 764 l 629 764 l 629 996 l 46 996 l 46 764 l 214 764 l 214 236 z m 340 1086 b 611 1364 525 1086 611 1183 l 447 1364 b 340 1239 447 1278 415 1240 b 233 1364 264 1240 233 1278 l 72 1364 b 340 1086 72 1183 142 1086 z "},"Ǐ":{"ha":675,"x_min":0,"x_max":0,"o":"m 46 236 l 46 0 l 629 0 l 629 236 l 461 236 l 461 764 l 629 764 l 629 996 l 46 996 l 46 764 l 214 764 l 214 236 z m 260 1089 l 421 1089 l 607 1378 l 426 1378 l 340 1233 l 257 1378 l 72 1378 z "},"Î":{"ha":675,"x_min":0,"x_max":0,"o":"m 46 236 l 46 0 l 629 0 l 629 236 l 461 236 l 461 764 l 629 764 l 629 996 l 46 996 l 46 764 l 214 764 l 214 236 z m 74 1089 l 257 1089 l 340 1235 l 425 1089 l 610 1089 l 422 1378 l 261 1378 z "},"Ï":{"ha":675,"x_min":0,"x_max":0,"o":"m 46 236 l 46 0 l 629 0 l 629 236 l 461 236 l 461 764 l 629 764 l 629 996 l 46 996 l 46 764 l 214 764 l 214 236 z m 199 1085 b 314 1199 282 1085 314 1114 b 199 1314 314 1286 279 1314 b 85 1199 118 1314 85 1286 b 199 1085 85 1111 111 1085 z m 486 1085 b 601 1199 568 1085 601 1114 b 486 1314 601 1286 567 1314 b 372 1199 404 1314 372 1286 b 486 1085 372 1111 397 1085 z "},"İ":{"ha":675,"x_min":0,"x_max":0,"o":"m 46 236 l 46 0 l 629 0 l 629 236 l 461 236 l 461 764 l 629 764 l 629 996 l 46 996 l 46 764 l 214 764 l 214 236 z m 342 1085 b 479 1217 440 1085 479 1114 b 342 1350 479 1322 439 1350 b 204 1217 244 1350 204 1322 b 342 1085 204 1108 236 1085 z "},"Ị":{"ha":675,"x_min":0,"x_max":0,"o":"m 46 236 l 46 0 l 629 0 l 629 236 l 461 236 l 461 764 l 629 764 l 629 996 l 46 996 l 46 764 l 214 764 l 214 236 z m 340 -362 b 478 -231 439 -362 478 -335 b 340 -99 478 -126 438 -99 b 203 -231 243 -99 203 -126 b 340 -362 203 -337 235 -362 z "},"Ì":{"ha":675,"x_min":0,"x_max":0,"o":"m 46 236 l 46 0 l 629 0 l 629 236 l 461 236 l 461 764 l 629 764 l 629 996 l 46 996 l 46 764 l 214 764 l 214 236 z m 274 1089 l 446 1089 l 285 1361 l 40 1361 z "},"Ỉ":{"ha":675,"x_min":0,"x_max":0,"o":"m 46 236 l 46 0 l 629 0 l 629 236 l 461 236 l 461 764 l 629 764 l 629 996 l 46 996 l 46 764 l 214 764 l 214 236 z m 469 1150 b 571 1286 550 1186 571 1226 b 343 1446 571 1382 492 1446 b 107 1254 183 1446 107 1383 l 271 1254 b 338 1311 271 1294 293 1311 b 396 1279 375 1311 396 1300 b 336 1232 396 1258 385 1251 b 257 1088 272 1206 257 1171 l 426 1088 b 469 1150 426 1122 433 1133 z "},"Ī":{"ha":675,"x_min":0,"x_max":0,"o":"m 46 236 l 46 0 l 629 0 l 629 236 l 461 236 l 461 764 l 629 764 l 629 996 l 46 996 l 46 764 l 214 764 l 214 236 z m 128 1099 l 560 1099 l 560 1264 l 128 1264 z "},"Į":{"ha":675,"x_min":0,"x_max":0,"o":"m 46 236 l 46 0 l 368 0 b 261 -181 282 -64 261 -121 b 490 -356 261 -292 342 -356 b 769 -151 640 -356 733 -287 l 569 -151 b 501 -211 561 -190 536 -211 b 444 -165 467 -211 444 -196 b 629 0 444 -128 469 -100 l 629 236 l 461 236 l 461 764 l 629 764 l 629 996 l 46 996 l 46 764 l 214 764 l 214 236 z "},"Ɨ":{"ha":675,"x_min":0,"x_max":0,"o":"m 46 236 l 46 0 l 629 0 l 629 236 l 461 236 l 461 440 l 572 440 l 572 600 l 461 600 l 461 764 l 629 764 l 629 996 l 46 996 l 46 764 l 214 764 l 214 600 l 106 600 l 106 440 l 214 440 l 214 236 z "},"Ĩ":{"ha":675,"x_min":0,"x_max":0,"o":"m 46 236 l 46 0 l 629 0 l 629 236 l 461 236 l 461 764 l 629 764 l 629 996 l 46 996 l 46 764 l 214 764 l 214 236 z m 43 1089 l 192 1089 b 236 1161 193 1139 204 1161 b 464 1082 300 1161 356 1082 b 642 1328 597 1082 642 1161 l 490 1328 b 444 1258 492 1276 481 1258 b 219 1335 389 1258 325 1335 b 43 1089 89 1335 43 1251 z "},"Ĵ":{"ha":840,"x_min":0,"x_max":0,"o":"m 397 -21 b 775 393 647 -21 775 96 l 775 996 l 511 996 l 511 396 b 396 214 511 254 481 214 b 285 351 317 214 288 253 l 285 374 l 17 374 l 17 346 b 397 -21 21 79 156 -21 z m 375 1089 l 558 1089 l 642 1235 l 726 1089 l 911 1089 l 724 1378 l 563 1378 z "},"Ǩ":{"ha":936,"x_min":0,"x_max":0,"o":"m 74 996 l 74 0 l 322 0 l 322 286 l 444 439 l 660 0 l 940 0 l 625 619 l 929 996 l 629 996 l 322 614 l 322 996 z m 385 1076 l 546 1076 l 732 1365 l 551 1365 l 465 1221 l 382 1365 l 197 1365 z "},"Ķ":{"ha":936,"x_min":0,"x_max":0,"o":"m 74 996 l 74 0 l 322 0 l 322 286 l 444 439 l 660 0 l 940 0 l 625 619 l 929 996 l 629 996 l 322 614 l 322 996 z m 386 -324 l 385 -411 b 610 -193 540 -403 610 -321 b 489 -61 610 -94 579 -61 b 367 -162 401 -61 367 -90 b 469 -250 367 -237 397 -250 b 494 -249 478 -250 486 -250 b 386 -324 486 -296 453 -319 z "},"Ĺ":{"ha":783,"x_min":0,"x_max":0,"o":"m 74 996 l 74 0 l 753 0 l 753 249 l 335 249 l 335 996 z m 103 1089 l 283 1089 l 522 1360 l 279 1360 z "},"Ľ":{"ha":783,"x_min":0,"x_max":0,"o":"m 74 996 l 74 0 l 753 0 l 753 249 l 335 249 l 335 996 z m 472 700 l 615 700 l 651 1031 l 472 1031 z "},"Ļ":{"ha":783,"x_min":0,"x_max":0,"o":"m 74 996 l 74 0 l 753 0 l 753 249 l 335 249 l 335 996 z m 317 -332 l 315 -419 b 540 -201 471 -411 540 -329 b 419 -69 540 -103 510 -69 b 297 -171 332 -69 297 -99 b 400 -258 297 -246 328 -258 b 425 -257 408 -258 417 -258 b 317 -332 417 -304 383 -328 z "},"Ŀ":{"ha":783,"x_min":0,"x_max":0,"o":"m 74 994 l 74 0 l 753 0 l 753 247 l 272 247 l 333 181 l 333 994 z m 458 526 b 594 394 458 419 489 394 b 732 526 693 394 732 422 b 594 658 732 631 692 658 b 458 526 497 658 458 631 z "},"Ł":{"ha":811,"x_min":0,"x_max":0,"o":"m 10 529 l 10 347 l 101 382 l 101 0 l 779 0 l 779 249 l 361 249 l 361 475 l 611 575 l 611 758 l 361 658 l 361 996 l 101 996 l 101 564 z "},"Ꝉ":{"ha":788,"x_min":0,"x_max":0,"o":"m -7 707 l -7 517 l 76 517 l 76 0 l 756 0 l 756 249 l 338 249 l 338 517 l 514 517 l 514 707 l 338 707 l 338 996 l 76 996 l 76 707 z "},"Ń":{"ha":988,"x_min":0,"x_max":0,"o":"m 74 0 l 311 0 l 311 596 l 682 0 l 914 0 l 914 996 l 676 996 l 676 408 l 311 996 l 74 996 z m 407 1068 l 588 1068 l 826 1339 l 583 1339 z "},"Ň":{"ha":988,"x_min":0,"x_max":0,"o":"m 74 0 l 311 0 l 311 596 l 682 0 l 914 0 l 914 996 l 676 996 l 676 408 l 311 996 l 74 996 z m 428 1069 l 589 1069 l 775 1358 l 594 1358 l 508 1214 l 425 1358 l 240 1358 z "},"Ņ":{"ha":988,"x_min":0,"x_max":0,"o":"m 74 0 l 311 0 l 311 596 l 682 0 l 914 0 l 914 996 l 676 996 l 676 408 l 311 996 l 74 996 z m 394 -311 l 393 -399 b 618 -181 549 -390 618 -308 b 497 -49 618 -82 588 -49 b 375 -150 410 -49 375 -78 b 478 -237 375 -225 406 -237 b 503 -236 486 -237 494 -237 b 394 -311 494 -283 461 -307 z "},"Ǹ":{"ha":988,"x_min":0,"x_max":0,"o":"m 74 0 l 311 0 l 311 596 l 682 0 l 914 0 l 914 996 l 676 996 l 676 408 l 311 996 l 74 996 z m 439 1069 l 611 1069 l 450 1342 l 206 1342 z "},"Ɲ":{"ha":983,"x_min":0,"x_max":0,"o":"m 69 -8 b -18 -115 69 -103 56 -115 l -61 -115 l -61 -335 l 6 -335 b 307 -50 233 -335 307 -275 l 307 596 l 678 0 l 910 0 l 910 996 l 672 996 l 672 408 l 307 996 l 69 996 z "},"Ñ":{"ha":988,"x_min":0,"x_max":0,"o":"m 74 0 l 311 0 l 311 596 l 682 0 l 914 0 l 914 996 l 676 996 l 676 408 l 311 996 l 74 996 z m 215 1071 l 364 1071 b 408 1143 365 1121 376 1143 b 636 1064 472 1143 528 1064 b 814 1310 769 1064 814 1143 l 663 1310 b 617 1240 664 1258 653 1240 b 392 1317 561 1240 497 1317 b 215 1071 261 1317 215 1233 z "},"Œ":{"ha":1389,"x_min":0,"x_max":0,"o":"m 469 -19 b 631 10 535 -19 588 -10 l 631 0 l 1344 0 l 1344 226 l 879 226 l 879 394 l 1286 394 l 1286 613 l 879 613 l 879 779 l 1331 779 l 1331 996 l 631 996 l 631 985 b 468 1015 588 1004 533 1015 b 46 547 218 1015 46 857 l 46 444 b 469 -19 46 128 211 -19 z m 476 207 b 311 456 360 207 311 292 l 311 536 b 476 788 311 700 360 788 b 642 535 592 788 642 704 l 642 456 b 476 207 642 290 592 207 z "},"Ó":{"ha":953,"x_min":0,"x_max":0,"o":"m 475 -19 b 907 440 732 -19 907 126 l 907 549 b 476 1015 907 861 728 1015 b 46 549 218 1015 46 860 l 46 440 b 475 -19 46 125 203 -19 z m 476 208 b 311 456 360 208 311 292 l 311 538 b 476 788 311 701 360 788 b 642 536 592 788 642 706 l 642 456 b 476 208 642 289 592 208 z m 372 1108 l 553 1108 l 792 1379 l 549 1379 z "},"Ŏ":{"ha":953,"x_min":0,"x_max":0,"o":"m 475 -19 b 907 440 732 -19 907 126 l 907 549 b 476 1015 907 861 728 1015 b 46 549 218 1015 46 860 l 46 440 b 475 -19 46 125 203 -19 z m 476 208 b 311 456 360 208 311 292 l 311 538 b 476 788 311 701 360 788 b 642 536 592 788 642 706 l 642 456 b 476 208 642 289 592 208 z m 475 1106 b 746 1383 660 1106 746 1203 l 582 1383 b 475 1258 582 1297 550 1260 b 368 1383 399 1260 368 1297 l 207 1383 b 475 1106 207 1203 276 1106 z "},"Ǒ":{"ha":953,"x_min":0,"x_max":0,"o":"m 475 -19 b 907 440 732 -19 907 126 l 907 549 b 476 1015 907 861 728 1015 b 46 549 218 1015 46 860 l 46 440 b 475 -19 46 125 203 -19 z m 476 208 b 311 456 360 208 311 292 l 311 538 b 476 788 311 701 360 788 b 642 536 592 788 642 706 l 642 456 b 476 208 642 289 592 208 z m 394 1108 l 556 1108 l 742 1397 l 561 1397 l 475 1253 l 392 1397 l 207 1397 z "},"Ô":{"ha":953,"x_min":0,"x_max":0,"o":"m 475 -19 b 907 440 732 -19 907 126 l 907 549 b 476 1015 907 861 728 1015 b 46 549 218 1015 46 860 l 46 440 b 475 -19 46 125 203 -19 z m 476 208 b 311 456 360 208 311 292 l 311 538 b 476 788 311 701 360 788 b 642 536 592 788 642 706 l 642 456 b 476 208 642 289 592 208 z m 207 1108 l 390 1108 l 474 1254 l 558 1108 l 743 1108 l 556 1397 l 394 1397 z "},"Ố":{"ha":953,"x_min":0,"x_max":0,"o":"m 475 -19 b 907 440 732 -19 907 126 l 907 549 b 476 1015 907 861 728 1015 b 46 549 218 1015 46 860 l 46 440 b 475 -19 46 125 203 -19 z m 476 208 b 311 456 360 208 311 292 l 311 538 b 476 788 311 701 360 788 b 642 536 592 788 642 706 l 642 456 b 476 208 642 289 592 208 z m 651 1263 l 796 1263 l 913 1482 l 722 1482 z m 192 1082 l 379 1082 l 474 1192 l 565 1082 l 760 1082 l 557 1321 l 394 1321 z "},"Ộ":{"ha":953,"x_min":0,"x_max":0,"o":"m 475 -19 b 907 440 732 -19 907 126 l 907 549 b 476 1015 907 861 728 1015 b 46 549 218 1015 46 860 l 46 440 b 475 -19 46 125 203 -19 z m 476 208 b 311 456 360 208 311 292 l 311 538 b 476 788 311 701 360 788 b 642 536 592 788 642 706 l 642 456 b 476 208 642 289 592 208 z m 208 1108 l 392 1108 l 475 1254 l 560 1108 l 744 1108 l 557 1397 l 396 1397 z m 475 -378 b 613 -246 574 -378 613 -350 b 475 -114 613 -142 572 -114 b 338 -246 378 -114 338 -142 b 475 -378 338 -353 369 -378 z "},"Ồ":{"ha":953,"x_min":0,"x_max":0,"o":"m 475 -19 b 907 440 732 -19 907 126 l 907 549 b 476 1015 907 861 728 1015 b 46 549 218 1015 46 860 l 46 440 b 475 -19 46 125 203 -19 z m 476 208 b 311 456 360 208 311 292 l 311 538 b 476 788 311 701 360 788 b 642 536 592 788 642 706 l 642 456 b 476 208 642 289 592 208 z m 813 1263 l 740 1482 l 551 1482 l 667 1263 z m 192 1082 l 379 1082 l 474 1192 l 565 1082 l 760 1082 l 557 1321 l 394 1321 z "},"Ổ":{"ha":953,"x_min":0,"x_max":0,"o":"m 475 -19 b 907 440 732 -19 907 126 l 907 549 b 476 1015 907 861 728 1015 b 46 549 218 1015 46 860 l 46 440 b 475 -19 46 125 203 -19 z m 476 208 b 311 456 360 208 311 292 l 311 538 b 476 788 311 701 360 788 b 642 536 592 788 642 706 l 642 456 b 476 208 642 289 592 208 z m 832 1306 b 926 1424 903 1333 926 1371 b 722 1557 926 1499 857 1557 b 511 1399 583 1557 513 1496 l 663 1399 b 719 1439 663 1426 685 1439 b 765 1414 749 1439 765 1429 b 719 1378 765 1399 760 1393 b 647 1261 665 1357 647 1329 l 797 1261 b 832 1306 797 1282 801 1292 z m 194 1082 l 382 1082 l 476 1193 l 571 1082 l 763 1082 l 560 1321 l 397 1321 z "},"Ỗ":{"ha":953,"x_min":0,"x_max":0,"o":"m 475 -19 b 907 440 732 -19 907 126 l 907 549 b 476 1015 907 861 728 1015 b 46 549 218 1015 46 860 l 46 440 b 475 -19 46 125 203 -19 z m 476 208 b 311 456 360 208 311 292 l 311 538 b 476 788 311 701 360 788 b 642 536 592 788 642 706 l 642 456 b 476 208 642 289 592 208 z m 197 1357 l 344 1357 b 389 1415 343 1399 358 1415 b 592 1354 444 1415 492 1354 b 756 1564 708 1354 757 1418 l 610 1564 b 564 1504 610 1518 596 1504 b 365 1567 513 1504 460 1567 b 197 1357 246 1567 197 1496 z m 190 1082 l 378 1082 l 472 1190 l 564 1082 l 758 1082 l 556 1321 l 393 1321 z "},"Ö":{"ha":953,"x_min":0,"x_max":0,"o":"m 475 -19 b 907 440 732 -19 907 126 l 907 549 b 476 1015 907 861 728 1015 b 46 549 218 1015 46 860 l 46 440 b 475 -19 46 125 203 -19 z m 476 208 b 311 456 360 208 311 292 l 311 538 b 476 788 311 701 360 788 b 642 536 592 788 642 706 l 642 456 b 476 208 642 289 592 208 z m 333 1104 b 449 1218 417 1104 449 1133 b 333 1333 449 1306 414 1333 b 219 1218 253 1333 219 1306 b 333 1104 219 1131 246 1104 z m 621 1104 b 736 1218 703 1104 736 1133 b 621 1333 736 1306 701 1333 b 507 1218 539 1333 507 1306 b 621 1104 507 1131 532 1104 z "},"Ȯ":{"ha":953,"x_min":0,"x_max":0,"o":"m 475 -19 b 907 440 732 -19 907 126 l 907 549 b 476 1015 907 861 728 1015 b 46 549 218 1015 46 860 l 46 440 b 475 -19 46 125 203 -19 z m 476 208 b 311 456 360 208 311 292 l 311 538 b 476 788 311 701 360 788 b 642 536 592 788 642 706 l 642 456 b 476 208 642 289 592 208 z m 476 1104 b 614 1236 575 1104 614 1133 b 476 1369 614 1342 574 1369 b 339 1236 379 1369 339 1342 b 476 1104 339 1128 371 1104 z "},"Ọ":{"ha":953,"x_min":0,"x_max":0,"o":"m 475 -19 b 907 440 732 -19 907 126 l 907 549 b 476 1015 907 861 728 1015 b 46 549 218 1015 46 860 l 46 440 b 475 -19 46 125 203 -19 z m 476 208 b 311 456 360 208 311 292 l 311 538 b 476 788 311 701 360 788 b 642 536 592 788 642 706 l 642 456 b 476 208 642 289 592 208 z m 475 -378 b 613 -246 574 -378 613 -350 b 475 -114 613 -142 572 -114 b 338 -246 378 -114 338 -142 b 475 -378 338 -353 369 -378 z "},"Ò":{"ha":953,"x_min":0,"x_max":0,"o":"m 475 -19 b 907 440 732 -19 907 126 l 907 549 b 476 1015 907 861 728 1015 b 46 549 218 1015 46 860 l 46 440 b 475 -19 46 125 203 -19 z m 476 208 b 311 456 360 208 311 292 l 311 538 b 476 788 311 701 360 788 b 642 536 592 788 642 706 l 642 456 b 476 208 642 289 592 208 z m 408 1108 l 581 1108 l 419 1381 l 175 1381 z "},"Ỏ":{"ha":953,"x_min":0,"x_max":0,"o":"m 475 -19 b 907 440 732 -19 907 126 l 907 549 b 476 1015 907 861 728 1015 b 46 549 218 1015 46 860 l 46 440 b 475 -19 46 125 203 -19 z m 476 208 b 311 456 360 208 311 292 l 311 538 b 476 788 311 701 360 788 b 642 536 592 788 642 706 l 642 456 b 476 208 642 289 592 208 z m 604 1167 b 706 1303 685 1203 706 1243 b 478 1463 706 1399 626 1463 b 242 1271 318 1463 242 1400 l 406 1271 b 472 1328 406 1311 428 1328 b 531 1296 510 1328 531 1317 b 471 1249 531 1275 519 1268 b 392 1104 407 1222 392 1188 l 561 1104 b 604 1167 561 1139 568 1150 z "},"Ơ":{"ha":953,"x_min":0,"x_max":0,"o":"m 475 -19 b 907 440 732 -19 907 126 l 907 549 b 749 931 907 728 847 856 b 921 1135 878 942 919 997 l 921 1185 l 694 1185 l 694 1133 b 601 1013 694 1038 675 1013 b 490 1014 579 1013 532 1014 b 476 1015 486 1014 481 1015 l 472 1014 b 464 1015 469 1014 465 1015 l 464 1014 b 46 549 213 1010 46 854 l 46 440 b 475 -19 46 125 203 -19 z m 476 208 b 311 456 360 208 311 292 l 311 538 b 476 788 311 701 360 788 b 642 536 592 788 642 706 l 642 456 b 476 208 642 289 592 208 z "},"Ớ":{"ha":953,"x_min":0,"x_max":0,"o":"m 475 -19 b 907 440 732 -19 907 126 l 907 549 b 749 931 907 728 847 856 b 921 1135 878 942 919 997 l 921 1185 l 694 1185 l 694 1133 b 601 1013 694 1038 675 1013 b 490 1014 579 1013 532 1014 b 476 1015 486 1014 481 1015 l 472 1014 b 464 1015 469 1014 465 1015 l 464 1014 b 46 549 213 1010 46 854 l 46 440 b 475 -19 46 125 203 -19 z m 476 208 b 311 456 360 208 311 292 l 311 538 b 476 788 311 701 360 788 b 642 536 592 788 642 706 l 642 456 b 476 208 642 289 592 208 z m 353 1097 l 533 1097 l 772 1368 l 529 1368 z "},"Ợ":{"ha":953,"x_min":0,"x_max":0,"o":"m 475 -19 b 907 440 732 -19 907 126 l 907 549 b 749 931 907 728 847 856 b 921 1135 878 942 919 997 l 921 1185 l 694 1185 l 694 1133 b 601 1013 694 1038 675 1013 b 490 1014 579 1013 532 1014 b 476 1015 486 1014 481 1015 l 472 1014 b 464 1015 469 1014 465 1015 l 464 1014 b 46 549 213 1010 46 854 l 46 440 b 475 -19 46 125 203 -19 z m 476 208 b 311 456 360 208 311 292 l 311 538 b 476 788 311 701 360 788 b 642 536 592 788 642 706 l 642 456 b 476 208 642 289 592 208 z m 474 -382 b 611 -250 572 -382 611 -354 b 474 -118 611 -146 571 -118 b 336 -250 376 -118 336 -146 b 474 -382 336 -357 368 -382 z "},"Ờ":{"ha":953,"x_min":0,"x_max":0,"o":"m 475 -19 b 907 440 732 -19 907 126 l 907 549 b 749 931 907 728 847 856 b 921 1135 878 942 919 997 l 921 1185 l 694 1185 l 694 1133 b 601 1013 694 1038 675 1013 b 490 1014 579 1013 532 1014 b 476 1015 486 1014 481 1015 l 472 1014 b 464 1015 469 1014 465 1015 l 464 1014 b 46 549 213 1010 46 854 l 46 440 b 475 -19 46 125 203 -19 z m 476 208 b 311 456 360 208 311 292 l 311 538 b 476 788 311 701 360 788 b 642 536 592 788 642 706 l 642 456 b 476 208 642 289 592 208 z m 408 1097 l 581 1097 l 419 1369 l 175 1369 z "},"Ở":{"ha":953,"x_min":0,"x_max":0,"o":"m 556 1158 b 657 1296 636 1194 657 1236 b 429 1454 657 1392 578 1454 b 193 1264 269 1454 193 1393 l 357 1264 b 424 1319 357 1303 379 1319 b 482 1288 461 1319 482 1310 b 422 1242 482 1268 471 1260 b 343 1096 358 1215 343 1181 l 513 1096 b 556 1158 513 1132 519 1143 z m 475 -19 b 907 440 732 -19 907 126 l 907 549 b 749 931 907 728 847 856 b 921 1135 878 942 919 997 l 921 1185 l 694 1185 l 694 1133 b 601 1013 694 1038 675 1013 b 490 1014 579 1013 532 1014 b 476 1015 486 1014 481 1015 l 472 1014 b 464 1015 469 1014 465 1015 l 464 1014 b 46 549 213 1010 46 854 l 46 440 b 475 -19 46 125 203 -19 z m 476 208 b 311 456 360 208 311 292 l 311 538 b 476 788 311 701 360 788 b 642 536 592 788 642 706 l 642 456 b 476 208 642 289 592 208 z "},"Ỡ":{"ha":953,"x_min":0,"x_max":0,"o":"m 110 1103 l 258 1103 b 301 1172 260 1150 271 1172 b 507 1097 361 1172 403 1096 b 678 1343 632 1097 678 1174 l 529 1343 b 483 1276 528 1294 517 1276 b 283 1350 431 1276 385 1350 b 110 1103 156 1350 110 1265 z m 475 -19 b 907 440 732 -19 907 126 l 907 549 b 749 931 907 728 847 856 b 921 1135 878 942 919 997 l 921 1185 l 694 1185 l 694 1133 b 601 1013 694 1038 675 1013 b 490 1014 579 1013 532 1014 b 476 1015 486 1014 481 1015 l 472 1014 b 464 1015 469 1014 465 1015 l 464 1014 b 46 549 213 1010 46 854 l 46 440 b 475 -19 46 125 203 -19 z m 476 208 b 311 456 360 208 311 292 l 311 538 b 476 788 311 701 360 788 b 642 536 592 788 642 706 l 642 456 b 476 208 642 289 592 208 z "},"Ő":{"ha":953,"x_min":0,"x_max":0,"o":"m 475 -19 b 907 440 732 -19 907 126 l 907 549 b 476 1015 907 861 728 1015 b 46 549 218 1015 46 860 l 46 440 b 475 -19 46 125 203 -19 z m 476 208 b 311 456 360 208 311 292 l 311 538 b 476 788 311 701 360 788 b 642 536 592 788 642 706 l 642 456 b 476 208 642 289 592 208 z m 410 1381 l 271 1108 l 415 1108 l 617 1381 z m 678 1381 l 529 1108 l 678 1108 l 889 1381 z "},"Ō":{"ha":953,"x_min":0,"x_max":0,"o":"m 475 -19 b 907 440 732 -19 907 126 l 907 549 b 476 1015 907 861 728 1015 b 46 549 218 1015 46 860 l 46 440 b 475 -19 46 125 203 -19 z m 476 208 b 311 456 360 208 311 292 l 311 538 b 476 788 311 701 360 788 b 642 536 592 788 642 706 l 642 456 b 476 208 642 289 592 208 z m 263 1118 l 694 1118 l 694 1283 l 263 1283 z "},"Ǫ":{"ha":953,"x_min":0,"x_max":0,"o":"m 479 -357 b 758 -153 629 -357 722 -289 l 558 -153 b 490 -212 550 -192 525 -212 b 433 -167 456 -212 433 -197 b 617 -3 433 -129 458 -101 b 907 440 794 44 907 189 l 907 549 b 476 1015 907 861 728 1015 b 46 549 218 1015 46 860 l 46 440 b 349 -7 46 178 156 33 b 250 -182 269 -68 250 -124 b 479 -357 250 -293 331 -357 z m 476 208 b 311 456 360 208 311 292 l 311 538 b 476 788 311 701 360 788 b 642 536 592 788 642 706 l 642 456 b 476 208 642 289 592 208 z "},"Ø":{"ha":953,"x_min":0,"x_max":0,"o":"m 100 -146 l 344 -146 l 396 -15 b 475 -19 421 -18 447 -19 b 907 440 732 -19 907 126 l 907 549 b 775 908 907 711 857 832 l 863 1122 l 626 1122 l 579 1006 b 476 1015 546 1011 513 1015 b 46 549 218 1015 46 860 l 46 440 b 189 64 46 261 96 138 z m 476 208 b 311 456 360 208 311 292 l 311 538 b 476 788 311 701 360 788 b 642 536 592 788 642 706 l 642 456 b 476 208 642 289 592 208 z "},"Ǿ":{"ha":953,"x_min":0,"x_max":0,"o":"m 317 1088 l 497 1088 l 736 1358 l 493 1358 z m 100 -146 l 344 -146 l 396 -15 b 475 -19 421 -18 447 -19 b 907 440 732 -19 907 126 l 907 549 b 775 908 907 711 857 832 l 863 1122 l 626 1122 l 579 1006 b 476 1015 546 1011 513 1015 b 46 549 218 1015 46 860 l 46 440 b 189 64 46 261 96 138 z m 476 208 b 311 456 360 208 311 292 l 311 538 b 476 788 311 701 360 788 b 642 536 592 788 642 706 l 642 456 b 476 208 642 289 592 208 z "},"Õ":{"ha":953,"x_min":0,"x_max":0,"o":"m 475 -19 b 907 440 732 -19 907 126 l 907 549 b 476 1015 907 861 728 1015 b 46 549 218 1015 46 860 l 46 440 b 475 -19 46 125 203 -19 z m 476 208 b 311 456 360 208 311 292 l 311 538 b 476 788 311 701 360 788 b 642 536 592 788 642 706 l 642 456 b 476 208 642 289 592 208 z m 178 1108 l 326 1108 b 371 1181 328 1158 339 1181 b 599 1101 435 1181 490 1101 b 776 1347 732 1101 776 1181 l 625 1347 b 579 1278 626 1296 615 1278 b 354 1354 524 1278 460 1354 b 178 1108 224 1354 178 1271 z "},"Ŕ":{"ha":910,"x_min":0,"x_max":0,"o":"m 74 0 l 324 0 l 324 333 l 447 333 b 585 204 547 333 585 301 l 585 60 b 607 0 585 32 593 10 l 868 0 b 844 56 853 11 844 29 l 844 214 b 724 439 844 336 803 403 b 867 685 814 482 867 558 l 867 686 b 475 996 867 872 757 996 l 74 996 z m 471 782 b 610 669 568 782 610 740 b 469 551 610 596 563 551 l 324 551 l 324 782 z m 356 1089 l 536 1089 l 775 1360 l 532 1360 z "},"Ř":{"ha":910,"x_min":0,"x_max":0,"o":"m 74 0 l 324 0 l 324 333 l 447 333 b 585 204 547 333 585 301 l 585 60 b 607 0 585 32 593 10 l 868 0 b 844 56 853 11 844 29 l 844 214 b 724 439 844 336 803 403 b 867 685 814 482 867 558 l 867 686 b 475 996 867 872 757 996 l 74 996 z m 471 782 b 610 669 568 782 610 740 b 469 551 610 596 563 551 l 324 551 l 324 782 z m 375 1089 l 536 1089 l 722 1378 l 542 1378 l 456 1233 l 372 1378 l 188 1378 z "},"Ŗ":{"ha":910,"x_min":0,"x_max":0,"o":"m 74 0 l 324 0 l 324 333 l 447 333 b 585 204 547 333 585 301 l 585 60 b 607 0 585 32 593 10 l 868 0 b 844 56 853 11 844 29 l 844 214 b 724 439 844 336 803 403 b 867 685 814 482 867 558 l 867 686 b 475 996 867 872 757 996 l 74 996 z m 471 782 b 610 669 568 782 610 740 b 469 551 610 596 563 551 l 324 551 l 324 782 z m 365 -325 l 364 -412 b 589 -194 519 -404 589 -322 b 468 -62 589 -96 558 -62 b 346 -164 381 -62 346 -92 b 449 -251 346 -239 376 -251 b 474 -250 457 -251 465 -251 b 365 -325 465 -297 432 -321 z "},"Ś":{"ha":851,"x_min":0,"x_max":0,"o":"m 432 -19 b 828 306 693 -19 828 111 b 504 610 826 525 656 575 b 294 722 392 633 294 649 b 415 813 294 771 326 813 b 556 690 511 813 551 774 l 556 689 l 810 689 l 810 690 b 421 1017 807 900 675 1017 b 39 713 165 1017 39 888 b 356 417 39 497 207 450 b 571 296 469 390 572 375 b 439 196 571 239 531 196 b 282 340 329 196 283 246 l 282 344 l 17 344 l 17 343 b 432 -19 19 110 124 -19 z m 310 1108 l 490 1108 l 729 1379 l 486 1379 z "},"Š":{"ha":851,"x_min":0,"x_max":0,"o":"m 432 -19 b 828 306 693 -19 828 111 b 504 610 826 525 656 575 b 294 722 392 633 294 649 b 415 813 294 771 326 813 b 556 690 511 813 551 774 l 556 689 l 810 689 l 810 690 b 421 1017 807 900 675 1017 b 39 713 165 1017 39 888 b 356 417 39 497 207 450 b 571 296 469 390 572 375 b 439 196 571 239 531 196 b 282 340 329 196 283 246 l 282 344 l 17 344 l 17 343 b 432 -19 19 110 124 -19 z m 331 1108 l 492 1108 l 678 1397 l 497 1397 l 411 1253 l 328 1397 l 143 1397 z "},"Ş":{"ha":851,"x_min":0,"x_max":0,"o":"m 438 -425 b 693 -236 600 -425 693 -353 b 506 -82 693 -135 626 -87 l 506 -15 b 828 306 718 7 828 131 b 504 610 826 525 656 575 b 294 722 392 633 294 649 b 415 813 294 771 326 813 b 556 690 511 813 551 774 l 556 689 l 810 689 l 810 690 b 421 1017 807 900 675 1017 b 39 713 165 1017 39 888 b 356 417 39 497 207 450 b 571 296 469 390 572 375 b 439 196 571 239 531 196 b 282 340 329 196 283 246 l 282 344 l 17 344 l 17 343 b 346 -15 19 133 104 7 l 346 -190 l 439 -190 b 522 -237 500 -190 522 -207 b 440 -292 522 -271 496 -292 b 349 -232 388 -292 357 -272 l 154 -232 b 438 -425 181 -361 264 -425 z "},"Ŝ":{"ha":851,"x_min":0,"x_max":0,"o":"m 432 -19 b 828 306 693 -19 828 111 b 504 610 826 525 656 575 b 294 722 392 633 294 649 b 415 813 294 771 326 813 b 556 690 511 813 551 774 l 556 689 l 810 689 l 810 690 b 421 1017 807 900 675 1017 b 39 713 165 1017 39 888 b 356 417 39 497 207 450 b 571 296 469 390 572 375 b 439 196 571 239 531 196 b 282 340 329 196 283 246 l 282 344 l 17 344 l 17 343 b 432 -19 19 110 124 -19 z m 144 1110 l 328 1110 l 411 1256 l 496 1110 l 681 1110 l 493 1399 l 332 1399 z "},"Ș":{"ha":851,"x_min":0,"x_max":0,"o":"m 432 -19 b 828 306 693 -19 828 111 b 504 610 826 525 656 575 b 294 722 392 633 294 649 b 415 813 294 771 326 813 b 556 690 511 813 551 774 l 556 689 l 810 689 l 810 690 b 421 1017 807 900 675 1017 b 39 713 165 1017 39 888 b 356 417 39 497 207 450 b 571 296 469 390 572 375 b 439 196 571 239 531 196 b 282 340 329 196 283 246 l 282 344 l 17 344 l 17 343 b 432 -19 19 110 124 -19 z m 326 -347 l 325 -435 b 550 -217 481 -426 550 -344 b 429 -85 550 -118 519 -85 b 307 -186 342 -85 307 -114 b 410 -274 307 -261 338 -274 b 435 -272 418 -274 426 -274 b 326 -347 426 -319 393 -343 z "},"Ŧ":{"ha":826,"x_min":0,"x_max":0,"o":"m 142 553 l 142 361 l 285 361 l 285 0 l 536 0 l 536 361 l 682 361 l 682 553 l 536 553 l 536 763 l 793 763 l 793 996 l 33 996 l 33 763 l 285 763 l 285 553 z "},"Ť":{"ha":825,"x_min":0,"x_max":0,"o":"m 285 0 l 536 0 l 536 763 l 793 763 l 793 996 l 32 996 l 32 763 l 285 763 z m 329 1089 l 490 1089 l 676 1378 l 496 1378 l 410 1233 l 326 1378 l 142 1378 z "},"Ţ":{"ha":825,"x_min":0,"x_max":0,"o":"m 285 0 l 331 0 l 331 -174 l 424 -174 b 507 -221 485 -174 507 -190 b 425 -275 507 -254 481 -275 b 333 -215 372 -275 342 -256 l 139 -215 b 422 -408 165 -344 249 -408 b 678 -219 585 -408 678 -336 b 490 -65 678 -118 611 -71 l 490 0 l 536 0 l 536 763 l 793 763 l 793 996 l 32 996 l 32 763 l 285 763 z "},"Ț":{"ha":825,"x_min":0,"x_max":0,"o":"m 285 0 l 536 0 l 536 763 l 793 763 l 793 996 l 32 996 l 32 763 l 285 763 z m 311 -332 l 310 -419 b 535 -201 465 -411 535 -329 b 414 -69 535 -103 504 -69 b 292 -171 326 -69 292 -99 b 394 -258 292 -246 322 -258 b 419 -257 403 -258 411 -258 b 311 -332 411 -304 378 -328 z "},"Ú":{"ha":925,"x_min":0,"x_max":0,"o":"m 464 -21 b 860 429 715 -21 860 118 l 860 996 l 594 996 l 594 439 b 464 224 594 281 561 224 b 331 439 371 224 331 285 l 331 996 l 65 996 l 65 429 b 464 -21 65 118 192 -21 z m 364 1083 l 544 1083 l 783 1354 l 540 1354 z "},"Ʉ":{"ha":924,"x_min":0,"x_max":0,"o":"m 463 -21 b 860 429 715 -21 860 118 l 860 468 l 956 468 l 956 665 l 860 665 l 860 996 l 594 996 l 594 665 l 329 665 l 329 996 l 65 996 l 65 665 l -32 665 l -32 468 l 65 468 l 65 429 b 463 -21 65 118 192 -21 z m 329 439 l 329 468 l 594 468 l 594 439 b 464 224 594 281 561 224 b 329 439 371 224 329 285 z "},"Ŭ":{"ha":925,"x_min":0,"x_max":0,"o":"m 464 -21 b 860 429 715 -21 860 118 l 860 996 l 594 996 l 594 439 b 464 224 594 281 561 224 b 331 439 371 224 331 285 l 331 996 l 65 996 l 65 429 b 464 -21 65 118 192 -21 z m 465 1081 b 736 1358 650 1081 736 1178 l 572 1358 b 465 1233 572 1272 540 1235 b 358 1358 389 1235 358 1272 l 197 1358 b 465 1081 197 1178 267 1081 z "},"Ǔ":{"ha":925,"x_min":0,"x_max":0,"o":"m 464 -21 b 860 429 715 -21 860 118 l 860 996 l 594 996 l 594 439 b 464 224 594 281 561 224 b 331 439 371 224 331 285 l 331 996 l 65 996 l 65 429 b 464 -21 65 118 192 -21 z m 385 1083 l 546 1083 l 732 1372 l 551 1372 l 465 1228 l 382 1372 l 197 1372 z "},"Û":{"ha":925,"x_min":0,"x_max":0,"o":"m 464 -21 b 860 429 715 -21 860 118 l 860 996 l 594 996 l 594 439 b 464 224 594 281 561 224 b 331 439 371 224 331 285 l 331 996 l 65 996 l 65 429 b 464 -21 65 118 192 -21 z m 197 1083 l 381 1083 l 464 1229 l 549 1083 l 733 1083 l 546 1372 l 385 1372 z "},"Ü":{"ha":925,"x_min":0,"x_max":0,"o":"m 464 -21 b 860 429 715 -21 860 118 l 860 996 l 594 996 l 594 439 b 464 224 594 281 561 224 b 331 439 371 224 331 285 l 331 996 l 65 996 l 65 429 b 464 -21 65 118 192 -21 z m 324 1079 b 439 1193 407 1079 439 1108 b 324 1308 439 1281 404 1308 b 210 1193 243 1308 210 1281 b 324 1079 210 1106 236 1079 z m 611 1079 b 726 1193 693 1079 726 1108 b 611 1308 726 1281 692 1308 b 497 1193 529 1308 497 1281 b 611 1079 497 1106 522 1079 z "},"Ǘ":{"ha":925,"x_min":0,"x_max":0,"o":"m 464 -21 b 860 429 715 -21 860 118 l 860 996 l 594 996 l 594 439 b 464 224 594 281 561 224 b 331 439 371 224 331 285 l 331 996 l 65 996 l 65 429 b 464 -21 65 118 192 -21 z m 383 1318 l 529 1318 l 646 1540 l 454 1540 z m 315 1063 b 428 1171 397 1063 428 1092 b 315 1283 428 1254 394 1283 b 204 1171 238 1283 204 1254 b 315 1063 204 1089 231 1063 z m 611 1063 b 724 1171 692 1063 724 1092 b 611 1282 724 1254 690 1282 b 500 1171 532 1282 500 1254 b 611 1063 500 1089 525 1063 z "},"Ǚ":{"ha":925,"x_min":0,"x_max":0,"o":"m 464 -21 b 860 429 715 -21 860 118 l 860 996 l 594 996 l 594 439 b 464 224 594 281 561 224 b 331 439 371 224 331 285 l 331 996 l 65 996 l 65 429 b 464 -21 65 118 192 -21 z m 178 1553 l 381 1319 l 543 1319 l 746 1553 l 554 1553 l 460 1443 l 365 1553 z m 315 1063 b 428 1171 397 1063 428 1092 b 315 1283 428 1254 394 1283 b 204 1171 238 1283 204 1254 b 315 1063 204 1089 231 1063 z m 611 1063 b 724 1171 692 1063 724 1092 b 611 1282 724 1254 690 1282 b 500 1171 532 1282 500 1254 b 611 1063 500 1089 524 1063 z "},"Ǜ":{"ha":925,"x_min":0,"x_max":0,"o":"m 464 -21 b 860 429 715 -21 860 118 l 860 996 l 594 996 l 594 439 b 464 224 594 281 561 224 b 331 439 371 224 331 285 l 331 996 l 65 996 l 65 429 b 464 -21 65 118 192 -21 z m 549 1317 l 481 1538 l 286 1538 l 401 1317 z m 611 1063 b 725 1168 694 1063 725 1089 b 613 1281 725 1249 689 1281 b 501 1169 535 1281 501 1249 b 611 1063 501 1090 532 1063 z m 317 1063 b 429 1168 399 1063 429 1089 b 317 1279 429 1250 394 1279 b 206 1169 242 1279 206 1249 b 317 1063 206 1090 236 1063 z "},"Ǖ":{"ha":925,"x_min":0,"x_max":0,"o":"m 464 -21 b 860 429 715 -21 860 118 l 860 996 l 594 996 l 594 439 b 464 224 594 281 561 224 b 331 439 371 224 331 285 l 331 996 l 65 996 l 65 429 b 464 -21 65 118 192 -21 z m 225 1331 l 704 1331 l 704 1475 l 225 1475 z m 611 1063 b 725 1169 694 1063 725 1089 b 613 1281 725 1249 690 1281 b 501 1169 538 1281 501 1250 b 611 1063 501 1090 532 1063 z m 317 1063 b 429 1169 399 1063 429 1089 b 317 1279 429 1249 394 1279 b 206 1169 242 1279 206 1249 b 317 1063 206 1090 235 1063 z "},"Ụ":{"ha":925,"x_min":0,"x_max":0,"o":"m 464 -21 b 860 429 715 -21 860 118 l 860 996 l 594 996 l 594 439 b 464 224 594 281 561 224 b 331 439 371 224 331 285 l 331 996 l 65 996 l 65 429 b 464 -21 65 118 192 -21 z m 464 -383 b 601 -251 563 -383 601 -356 b 464 -119 601 -147 561 -119 b 326 -251 367 -119 326 -147 b 464 -383 326 -358 358 -383 z "},"Ù":{"ha":925,"x_min":0,"x_max":0,"o":"m 464 -21 b 860 429 715 -21 860 118 l 860 996 l 594 996 l 594 439 b 464 224 594 281 561 224 b 331 439 371 224 331 285 l 331 996 l 65 996 l 65 429 b 464 -21 65 118 192 -21 z m 399 1083 l 571 1083 l 410 1356 l 165 1356 z "},"Ủ":{"ha":925,"x_min":0,"x_max":0,"o":"m 464 -21 b 860 429 715 -21 860 118 l 860 996 l 594 996 l 594 439 b 464 224 594 281 561 224 b 331 439 371 224 331 285 l 331 996 l 65 996 l 65 429 b 464 -21 65 118 192 -21 z m 592 1147 b 693 1283 672 1183 693 1224 b 465 1443 693 1379 614 1443 b 229 1251 306 1443 229 1381 l 393 1251 b 460 1308 393 1292 415 1308 b 518 1276 497 1308 518 1297 b 458 1229 518 1256 507 1249 b 379 1085 394 1203 379 1168 l 549 1085 b 592 1147 549 1119 556 1131 z "},"Ư":{"ha":925,"x_min":0,"x_max":0,"o":"m 464 -21 b 860 429 715 -21 860 118 l 860 942 b 996 1122 961 958 996 1011 l 996 1186 l 771 1186 l 771 1111 b 664 996 771 1014 749 996 l 594 996 l 594 439 b 464 224 594 281 561 224 b 331 439 371 224 331 285 l 331 996 l 65 996 l 65 429 b 464 -21 65 118 192 -21 z "},"Ứ":{"ha":925,"x_min":0,"x_max":0,"o":"m 464 -21 b 860 429 715 -21 860 118 l 860 942 b 996 1122 961 958 996 1011 l 996 1186 l 771 1186 l 771 1111 b 664 996 771 1014 749 996 l 594 996 l 594 439 b 464 224 594 281 561 224 b 331 439 371 224 331 285 l 331 996 l 65 996 l 65 429 b 464 -21 65 118 192 -21 z m 364 1076 l 544 1076 l 783 1347 l 540 1347 z "},"Ự":{"ha":925,"x_min":0,"x_max":0,"o":"m 464 -21 b 860 429 715 -21 860 118 l 860 942 b 996 1122 961 958 996 1011 l 996 1186 l 771 1186 l 771 1111 b 664 996 771 1014 749 996 l 594 996 l 594 439 b 464 224 594 281 561 224 b 331 439 371 224 331 285 l 331 996 l 65 996 l 65 429 b 464 -21 65 118 192 -21 z m 464 -383 b 601 -251 563 -383 601 -356 b 464 -119 601 -147 561 -119 b 326 -251 367 -119 326 -147 b 464 -383 326 -358 358 -383 z "},"Ừ":{"ha":925,"x_min":0,"x_max":0,"o":"m 464 -21 b 860 429 715 -21 860 118 l 860 942 b 996 1122 961 958 996 1011 l 996 1186 l 771 1186 l 771 1111 b 664 996 771 1014 749 996 l 594 996 l 594 439 b 464 224 594 281 561 224 b 331 439 371 224 331 285 l 331 996 l 65 996 l 65 429 b 464 -21 65 118 192 -21 z m 399 1076 l 571 1076 l 410 1349 l 165 1349 z "},"Ử":{"ha":925,"x_min":0,"x_max":0,"o":"m 593 1139 b 694 1275 674 1175 694 1215 b 468 1435 694 1371 615 1435 b 231 1243 308 1435 231 1372 l 394 1243 b 463 1300 394 1283 418 1300 b 521 1268 499 1300 521 1288 b 460 1219 521 1247 508 1240 b 382 1076 397 1194 382 1160 l 550 1076 b 593 1139 550 1111 557 1122 z m 464 -21 b 860 429 715 -21 860 118 l 860 942 b 996 1122 961 958 996 1011 l 996 1186 l 771 1186 l 771 1111 b 664 996 771 1014 749 996 l 594 996 l 594 439 b 464 224 594 281 561 224 b 331 439 371 224 331 285 l 331 996 l 65 996 l 65 429 b 464 -21 65 118 192 -21 z "},"Ữ":{"ha":925,"x_min":0,"x_max":0,"o":"m 140 1081 l 290 1081 b 333 1153 290 1131 301 1153 b 563 1074 399 1153 454 1074 b 738 1319 694 1074 739 1153 l 590 1319 b 542 1250 589 1268 578 1250 b 317 1326 486 1250 422 1326 b 140 1081 186 1326 140 1243 z m 464 -21 b 860 429 715 -21 860 118 l 860 942 b 996 1122 961 958 996 1011 l 996 1186 l 771 1186 l 771 1111 b 664 996 771 1014 749 996 l 594 996 l 594 439 b 464 224 594 281 561 224 b 331 439 371 224 331 285 l 331 996 l 65 996 l 65 429 b 464 -21 65 118 192 -21 z "},"Ű":{"ha":925,"x_min":0,"x_max":0,"o":"m 464 -21 b 860 429 715 -21 860 118 l 860 996 l 594 996 l 594 439 b 464 224 594 281 561 224 b 331 439 371 224 331 285 l 331 996 l 65 996 l 65 429 b 464 -21 65 118 192 -21 z m 400 1356 l 261 1083 l 406 1083 l 607 1356 z m 668 1356 l 519 1083 l 668 1083 l 879 1356 z "},"Ū":{"ha":925,"x_min":0,"x_max":0,"o":"m 464 -21 b 860 429 715 -21 860 118 l 860 996 l 594 996 l 594 439 b 464 224 594 281 561 224 b 331 439 371 224 331 285 l 331 996 l 65 996 l 65 429 b 464 -21 65 118 192 -21 z m 253 1093 l 685 1093 l 685 1258 l 253 1258 z "},"Ų":{"ha":925,"x_min":0,"x_max":0,"o":"m 488 -349 b 767 -144 638 -349 731 -281 l 567 -144 b 499 -204 558 -183 533 -204 b 442 -158 464 -204 442 -189 b 615 0 442 -122 465 -94 b 860 429 772 50 860 188 l 860 996 l 594 996 l 594 439 b 464 224 594 281 561 224 b 331 439 371 224 331 285 l 331 996 l 65 996 l 65 429 b 343 -10 65 168 154 28 b 258 -174 275 -67 258 -119 b 488 -349 258 -285 339 -349 z "},"Ů":{"ha":925,"x_min":0,"x_max":0,"o":"m 464 -21 b 860 429 715 -21 860 118 l 860 996 l 594 996 l 594 439 b 464 224 594 281 561 224 b 331 439 371 224 331 285 l 331 996 l 65 996 l 65 429 b 464 -21 65 118 192 -21 z m 464 1076 b 679 1268 597 1076 679 1150 b 464 1465 679 1394 593 1465 b 253 1268 342 1465 253 1394 b 464 1076 253 1144 332 1076 z m 465 1214 b 406 1271 425 1214 406 1236 b 465 1328 406 1307 426 1328 b 525 1271 504 1328 525 1307 b 465 1214 525 1235 499 1214 z "},"Ũ":{"ha":925,"x_min":0,"x_max":0,"o":"m 464 -21 b 860 429 715 -21 860 118 l 860 996 l 594 996 l 594 439 b 464 224 594 281 561 224 b 331 439 371 224 331 285 l 331 996 l 65 996 l 65 429 b 464 -21 65 118 192 -21 z m 168 1082 l 317 1082 b 361 1154 318 1132 329 1154 b 589 1075 425 1154 481 1075 b 767 1321 722 1075 767 1154 l 615 1321 b 569 1251 617 1269 606 1251 b 344 1328 514 1251 450 1328 b 168 1082 214 1328 168 1244 z "},"Ẃ":{"ha":1360,"x_min":0,"x_max":0,"o":"m 242 0 l 475 0 l 667 572 l 843 0 l 1083 0 l 1354 996 l 1106 996 l 950 372 l 774 996 l 576 996 l 388 389 l 257 996 l 6 996 z m 575 1089 l 756 1089 l 994 1360 l 751 1360 z "},"Ŵ":{"ha":1360,"x_min":0,"x_max":0,"o":"m 242 0 l 475 0 l 667 572 l 843 0 l 1083 0 l 1354 996 l 1106 996 l 950 372 l 774 996 l 576 996 l 388 389 l 257 996 l 6 996 z m 410 1089 l 593 1089 l 676 1235 l 761 1089 l 946 1089 l 758 1378 l 597 1378 z "},"Ẅ":{"ha":1360,"x_min":0,"x_max":0,"o":"m 242 0 l 475 0 l 667 572 l 843 0 l 1083 0 l 1354 996 l 1106 996 l 950 372 l 774 996 l 576 996 l 388 389 l 257 996 l 6 996 z m 535 1085 b 650 1199 618 1085 650 1114 b 535 1314 650 1286 615 1314 b 421 1199 454 1314 421 1286 b 535 1085 421 1111 447 1085 z m 822 1085 b 938 1199 904 1085 938 1114 b 822 1314 938 1286 903 1314 b 708 1199 740 1314 708 1286 b 822 1085 708 1111 733 1085 z "},"Ẁ":{"ha":1360,"x_min":0,"x_max":0,"o":"m 242 0 l 475 0 l 667 572 l 843 0 l 1083 0 l 1354 996 l 1106 996 l 950 372 l 774 996 l 576 996 l 388 389 l 257 996 l 6 996 z m 610 1089 l 782 1089 l 621 1361 l 376 1361 z "},"Ẋ":{"ha":929,"x_min":0,"x_max":0,"o":"m -10 0 l 282 0 l 467 314 l 654 0 l 938 0 l 615 526 l 911 996 l 629 996 l 464 718 l 301 996 l 22 996 l 313 526 z m 469 1078 b 607 1210 568 1078 607 1107 b 469 1343 607 1315 567 1343 b 332 1210 372 1343 332 1315 b 469 1078 332 1101 364 1078 z "},"Ý":{"ha":876,"x_min":0,"x_max":0,"o":"m 300 0 l 564 0 l 564 385 l 883 996 l 615 996 l 435 638 l 263 996 l -6 996 l 300 385 z m 333 1081 l 514 1081 l 753 1351 l 510 1351 z "},"Ŷ":{"ha":876,"x_min":0,"x_max":0,"o":"m 300 0 l 564 0 l 564 385 l 883 996 l 615 996 l 435 638 l 263 996 l -6 996 l 300 385 z m 168 1081 l 351 1081 l 435 1226 l 519 1081 l 704 1081 l 517 1369 l 356 1369 z "},"Ÿ":{"ha":876,"x_min":0,"x_max":0,"o":"m 300 0 l 564 0 l 564 385 l 883 996 l 615 996 l 435 638 l 263 996 l -6 996 l 300 385 z m 292 1076 b 407 1190 375 1076 407 1106 b 292 1306 407 1278 372 1306 b 178 1190 211 1306 178 1278 b 292 1076 178 1103 204 1076 z m 579 1076 b 694 1190 661 1076 694 1106 b 579 1306 694 1278 660 1306 b 465 1190 497 1306 465 1278 b 579 1076 465 1103 490 1076 z "},"Ỵ":{"ha":876,"x_min":0,"x_max":0,"o":"m 300 0 l 564 0 l 564 385 l 883 996 l 615 996 l 435 638 l 263 996 l -6 996 l 300 385 z m 432 -362 b 569 -231 531 -362 569 -335 b 432 -99 569 -126 529 -99 b 294 -231 335 -99 294 -126 b 432 -362 294 -337 326 -362 z "},"Ỳ":{"ha":876,"x_min":0,"x_max":0,"o":"m 300 0 l 564 0 l 564 385 l 883 996 l 615 996 l 435 638 l 263 996 l -6 996 l 300 385 z m 367 1082 l 539 1082 l 378 1354 l 133 1354 z "},"Ỷ":{"ha":876,"x_min":0,"x_max":0,"o":"m 300 0 l 564 0 l 564 385 l 883 996 l 615 996 l 435 638 l 263 996 l -6 996 l 300 385 z m 564 1142 b 665 1278 644 1178 665 1218 b 438 1438 665 1374 586 1438 b 201 1246 278 1438 201 1375 l 365 1246 b 432 1303 365 1286 388 1303 b 490 1271 469 1303 490 1292 b 431 1224 490 1250 479 1243 b 351 1079 367 1197 351 1163 l 521 1079 b 564 1142 521 1114 528 1125 z "},"Ȳ":{"ha":876,"x_min":0,"x_max":0,"o":"m 300 0 l 564 0 l 564 385 l 883 996 l 615 996 l 435 638 l 263 996 l -6 996 l 300 385 z m 221 1090 l 653 1090 l 653 1256 l 221 1256 z "},"Ỹ":{"ha":876,"x_min":0,"x_max":0,"o":"m 300 0 l 564 0 l 564 385 l 883 996 l 615 996 l 435 638 l 263 996 l -6 996 l 300 385 z m 135 1081 l 283 1081 b 328 1153 285 1131 296 1153 b 556 1074 392 1153 447 1074 b 733 1319 689 1074 733 1153 l 582 1319 b 536 1250 583 1268 572 1250 b 311 1326 481 1250 417 1326 b 135 1081 181 1326 135 1243 z "},"Ź":{"ha":851,"x_min":0,"x_max":0,"o":"m 36 0 l 807 0 l 807 240 l 388 240 l 804 794 l 804 996 l 63 996 l 63 760 l 476 760 l 36 182 z m 338 1089 l 518 1089 l 757 1360 l 514 1360 z "},"Ž":{"ha":851,"x_min":0,"x_max":0,"o":"m 36 0 l 807 0 l 807 240 l 388 240 l 804 794 l 804 996 l 63 996 l 63 760 l 476 760 l 36 182 z m 358 1089 l 519 1089 l 706 1378 l 525 1378 l 439 1233 l 356 1378 l 171 1378 z "},"Ż":{"ha":851,"x_min":0,"x_max":0,"o":"m 36 0 l 807 0 l 807 240 l 388 240 l 804 794 l 804 996 l 63 996 l 63 760 l 476 760 l 36 182 z m 440 1085 b 578 1217 539 1085 578 1114 b 440 1350 578 1322 538 1350 b 303 1217 343 1350 303 1322 b 440 1085 303 1108 335 1085 z "},"Ƶ":{"ha":851,"x_min":0,"x_max":0,"o":"m 36 0 l 807 0 l 807 240 l 388 240 l 519 415 l 764 415 l 764 575 l 639 575 l 804 794 l 804 996 l 63 996 l 63 760 l 476 760 l 351 596 l 96 596 l 96 438 l 231 438 l 36 182 z "},"Þ":{"ha":894,"x_min":0,"x_max":0,"o":"m 72 996 l 72 0 l 324 0 l 324 161 l 465 161 b 865 504 739 161 865 286 b 460 842 865 717 738 842 l 324 842 l 324 996 z m 457 628 b 611 504 556 628 611 589 b 458 376 611 413 553 376 l 324 376 l 324 628 z "},"ẞ":{"ha":942,"x_min":0,"x_max":0,"o":"m 74 996 l 74 0 l 326 0 l 326 781 l 578 781 l 429 556 l 429 396 l 510 396 b 660 300 601 396 660 371 b 525 193 660 229 611 193 b 417 203 483 193 444 197 l 417 6 b 586 -14 461 -7 518 -14 b 914 297 801 -14 914 110 b 694 563 914 447 836 538 l 850 782 l 850 996 z "},"Ə":{"ha":992,"x_min":0,"x_max":0,"o":"m 43 460 b 496 -19 43 138 222 -19 b 949 469 769 -19 949 153 l 949 549 b 494 1014 949 847 782 1014 b 51 675 243 1014 78 890 l 51 671 l 313 671 l 313 674 b 492 803 328 758 390 803 b 692 586 626 803 689 726 l 43 586 z m 493 194 b 301 385 372 194 307 260 l 689 385 b 493 194 672 257 608 194 z "},"Ɣ":{"ha":914,"x_min":0,"x_max":0,"o":"m 460 -432 b 728 -194 642 -432 728 -324 b 635 76 728 -118 693 -35 l 917 996 l 649 996 l 475 379 l 454 286 l 436 379 l 267 996 l 0 996 l 275 76 b 185 -200 222 -28 185 -110 b 460 -432 185 -331 274 -432 z m 407 -178 b 454 -39 407 -147 424 -101 b 504 -179 486 -101 504 -147 b 456 -233 504 -214 486 -233 b 407 -178 422 -233 407 -211 z "},"Ɛ":{"ha":906,"x_min":0,"x_max":0,"o":"m 871 354 l 611 354 l 614 353 b 438 210 611 261 561 210 b 293 317 336 210 293 249 b 432 411 293 379 326 411 l 556 411 l 556 601 l 438 601 b 300 694 338 601 300 633 b 440 796 300 760 346 796 b 607 653 549 796 600 746 l 861 653 b 436 1015 857 882 703 1015 b 46 728 181 1015 46 906 l 46 726 b 189 513 46 618 93 547 b 26 289 88 482 26 414 b 438 -19 28 101 168 -19 b 871 354 740 -19 865 125 z "},"a":{"ha":874,"x_min":0,"x_max":0,"o":"m 292 -21 b 574 133 442 -21 529 44 l 603 0 l 811 0 l 811 514 b 449 822 811 700 715 822 b 57 511 196 822 69 699 l 314 511 b 449 628 317 586 360 628 b 563 549 535 628 563 596 b 390 468 563 499 513 485 b 136 396 260 447 201 436 b 32 196 72 356 32 293 b 292 -21 32 63 115 -21 z m 394 164 b 300 235 332 164 300 188 b 333 299 300 263 313 281 b 456 335 360 315 386 322 b 564 372 503 343 540 354 l 564 324 b 394 164 564 244 496 164 z "},"b":{"ha":906,"x_min":0,"x_max":0,"o":"m 550 -19 b 869 400 749 -19 869 126 l 869 425 b 556 822 869 697 736 821 b 319 675 442 822 361 768 l 319 1047 l 69 1047 l 69 0 l 290 0 l 308 135 b 550 -19 349 42 428 -19 z m 468 200 b 314 406 376 200 314 264 l 314 424 b 469 613 314 542 378 613 b 618 419 557 613 618 549 l 618 401 b 468 200 618 260 561 200 z "},"c":{"ha":875,"x_min":0,"x_max":0,"o":"m 444 -12 b 850 340 679 -12 840 88 l 850 347 l 588 347 l 588 344 b 446 196 579 243 529 196 b 296 386 354 196 296 263 l 296 408 b 447 608 296 543 354 608 b 586 467 531 608 578 565 l 586 461 l 849 461 l 849 465 b 444 822 839 710 679 822 b 39 408 210 822 39 682 l 39 383 b 444 -12 39 115 185 -12 z "},"d":{"ha":910,"x_min":0,"x_max":0,"o":"m 356 -15 b 599 140 479 -15 560 46 l 624 0 l 839 0 l 839 1047 l 590 1047 l 590 689 b 357 821 550 772 474 821 b 39 425 172 821 39 696 l 39 401 b 356 -15 39 125 161 -15 z m 439 200 b 293 403 353 200 293 258 l 293 421 b 443 613 293 547 349 613 b 593 421 533 613 593 542 l 593 403 b 439 200 593 265 532 200 z "},"e":{"ha":894,"x_min":0,"x_max":0,"o":"m 449 -19 b 851 254 682 -19 807 86 l 585 254 l 585 256 b 456 179 565 210 526 179 b 290 329 358 179 303 231 l 858 329 l 858 419 b 451 822 858 638 738 822 b 39 407 201 822 39 665 l 39 383 b 449 -19 39 135 169 -19 z m 456 631 b 608 488 550 631 597 576 l 290 488 b 456 631 307 581 361 631 z m 853 256 l 851 254 l 853 254 z "},"f":{"ha":572,"x_min":0,"x_max":0,"o":"m 11 758 l 11 539 l 139 539 l 139 0 l 382 0 l 382 539 l 553 539 l 553 758 l 383 758 l 383 771 b 476 883 383 864 399 883 l 554 883 l 554 1090 l 439 1090 b 139 804 228 1090 139 1010 l 139 758 z "},"g":{"ha":844,"x_min":0,"x_max":0,"o":"m 36 146 b 194 -12 36 58 93 4 b 22 -167 76 -33 22 -87 b 403 -339 22 -274 101 -339 l 413 -339 b 849 -53 715 -339 849 -229 b 521 189 849 97 746 189 l 349 189 b 236 226 261 189 236 199 b 381 269 236 256 258 269 l 428 269 b 807 544 668 269 807 364 l 807 550 b 593 783 807 674 731 756 b 817 944 768 782 817 815 l 817 968 l 544 968 l 544 940 b 424 815 544 840 533 819 b 403 814 417 814 410 814 b 57 549 193 807 57 719 l 57 547 b 210 325 57 433 110 361 b 36 146 97 299 36 240 z m 431 436 b 308 539 357 436 308 468 l 308 543 b 432 656 308 619 361 654 b 553 546 503 656 553 625 l 553 540 b 431 436 553 468 507 436 z m 400 -161 b 251 -92 290 -161 250 -128 l 251 -90 b 385 -17 251 -49 301 -19 l 507 -17 b 631 -78 601 -17 631 -40 b 435 -161 631 -128 575 -161 z "},"h":{"ha":890,"x_min":0,"x_max":0,"o":"m 71 0 l 322 0 l 322 421 b 453 604 322 529 360 604 b 572 440 546 604 572 538 l 572 0 l 825 0 l 825 515 b 563 822 825 710 744 822 b 322 682 446 822 365 768 l 322 1047 l 71 1047 z "},"i":{"ha":403,"x_min":0,"x_max":0,"o":"m 203 851 b 354 975 306 851 354 885 b 203 1103 354 1071 303 1103 b 51 975 101 1103 51 1071 b 203 851 51 882 92 851 z m 71 0 l 333 0 l 333 801 b 203 785 301 792 260 785 b 71 800 143 785 100 790 z "},"j":{"ha":401,"x_min":0,"x_max":0,"o":"m 203 851 b 354 975 306 851 354 885 b 203 1103 354 1071 303 1103 b 51 975 101 1103 51 1071 b 203 851 51 882 92 851 z m -83 -335 l 22 -335 b 332 -50 257 -335 332 -276 l 332 801 b 203 785 303 792 261 785 b 72 800 143 785 101 790 l 72 -4 b -24 -114 72 -100 56 -114 l -83 -114 z "},"k":{"ha":869,"x_min":0,"x_max":0,"o":"m 71 1047 l 71 0 l 319 0 l 319 228 l 419 349 l 603 0 l 885 0 l 608 496 l 875 806 l 583 806 l 319 490 l 319 1047 z "},"l":{"ha":397,"x_min":0,"x_max":0,"o":"m 71 1047 l 71 0 l 325 0 l 325 1047 z "},"m":{"ha":1351,"x_min":0,"x_max":0,"o":"m 69 0 l 324 0 l 324 426 b 443 604 324 533 356 604 b 553 444 531 604 553 536 l 553 0 l 807 0 l 807 439 b 922 604 807 538 835 604 b 1036 442 1011 604 1036 539 l 1036 0 l 1289 0 l 1289 517 b 1019 822 1289 711 1197 822 b 778 675 901 822 819 765 b 540 822 742 769 664 822 b 303 678 425 822 346 767 l 281 806 l 69 806 z "},"n":{"ha":896,"x_min":0,"x_max":0,"o":"m 69 0 l 326 0 l 326 421 b 457 604 326 532 363 604 b 576 440 551 604 576 540 l 576 0 l 832 0 l 832 513 b 558 822 832 707 738 822 b 308 669 433 822 350 763 l 285 806 l 69 806 z "},"o":{"ha":890,"x_min":0,"x_max":0,"o":"m 444 -19 b 851 383 690 -19 851 115 l 851 408 b 446 822 851 678 688 822 b 39 408 208 822 39 682 l 39 383 b 444 -19 39 115 183 -19 z m 446 196 b 290 386 353 196 290 263 l 290 408 b 447 608 290 543 353 608 b 600 408 544 608 600 540 l 600 386 b 446 196 600 260 539 196 z "},"p":{"ha":910,"x_min":0,"x_max":0,"o":"m 71 -275 l 318 -275 l 318 118 b 554 -15 358 35 435 -15 b 871 379 736 -14 871 110 l 871 404 b 553 822 871 681 750 822 b 310 668 431 822 350 761 l 286 806 l 71 806 z m 468 196 b 317 388 376 196 317 263 l 317 406 b 469 608 317 540 378 608 b 621 404 557 608 621 547 l 621 385 b 468 196 621 258 561 196 z "},"q":{"ha":910,"x_min":0,"x_max":0,"o":"m 590 -275 l 838 -275 l 838 806 l 624 806 l 599 668 b 360 822 560 763 482 822 b 39 406 160 822 39 679 l 39 381 b 354 -15 39 108 174 -14 b 590 121 474 -15 550 36 z m 439 194 b 292 385 353 194 292 257 l 292 404 b 443 608 292 547 349 608 b 593 403 533 608 593 542 l 593 385 b 439 194 593 267 532 194 z "},"r":{"ha":626,"x_min":0,"x_max":0,"o":"m 69 0 l 328 0 l 328 357 b 511 551 328 500 364 551 l 606 551 l 606 817 l 560 817 b 306 638 414 817 333 764 l 272 806 l 69 806 z "},"s":{"ha":806,"x_min":0,"x_max":0,"o":"m 410 -21 b 782 257 660 -21 782 97 l 782 258 b 476 499 782 444 615 481 b 289 572 357 514 289 522 b 394 640 289 611 315 640 b 524 554 471 640 511 610 l 772 554 b 397 824 747 715 639 824 b 46 557 171 824 46 714 b 349 317 46 365 208 335 b 536 242 449 304 536 297 b 422 169 536 197 501 169 b 274 268 339 169 290 201 l 274 269 l 13 269 b 410 -21 39 83 169 -21 z "},"t":{"ha":610,"x_min":0,"x_max":0,"o":"m 146 339 b 449 0 146 88 204 0 l 575 0 l 575 235 l 525 235 b 383 389 406 235 383 250 l 383 582 l 575 582 l 575 806 l 383 806 l 383 1006 l 176 1006 b 168 897 174 974 171 931 b 89 800 160 829 140 807 b 10 792 61 794 39 792 l 10 582 l 146 582 z "},"u":{"ha":878,"x_min":0,"x_max":0,"o":"m 329 -15 b 569 138 451 -15 531 43 l 593 0 l 808 0 l 808 806 l 551 806 l 551 386 b 429 204 551 278 518 204 b 317 368 339 204 317 269 l 317 806 l 64 806 l 64 293 b 329 -15 64 97 151 -15 z "},"v":{"ha":835,"x_min":0,"x_max":0,"o":"m 293 0 l 526 0 l 839 806 l 578 806 l 413 315 l 251 806 l -6 806 z "},"w":{"ha":1200,"x_min":0,"x_max":0,"o":"m 203 0 l 432 0 l 592 432 l 739 0 l 964 0 l 1206 806 l 961 806 l 828 314 l 674 806 l 513 806 l 350 311 l 240 806 l -6 806 z "},"x":{"ha":885,"x_min":0,"x_max":0,"o":"m 1 0 l 299 0 l 446 228 l 593 0 l 882 0 l 594 421 l 864 806 l 578 806 l 446 601 l 315 806 l 29 806 l 299 419 z "},"y":{"ha":832,"x_min":0,"x_max":0,"o":"m 29 -306 l 154 -306 b 517 -42 375 -306 429 -265 l 847 806 l 593 806 l 424 329 l 251 806 l -10 806 l 300 36 l 289 7 b 131 -92 257 -71 228 -92 l 29 -92 z "},"z":{"ha":786,"x_min":0,"x_max":0,"o":"m 33 0 l 751 0 l 751 211 l 361 211 l 749 606 l 749 806 l 57 806 l 57 597 l 438 597 l 33 189 z "},"á":{"ha":874,"x_min":0,"x_max":0,"o":"m 292 -21 b 574 133 442 -21 529 44 l 603 0 l 811 0 l 811 514 b 449 822 811 700 715 822 b 57 511 196 822 69 699 l 314 511 b 449 628 317 586 360 628 b 563 549 535 628 563 596 b 390 468 563 499 513 485 b 136 396 260 447 201 436 b 32 196 72 356 32 293 b 292 -21 32 63 115 -21 z m 394 164 b 300 235 332 164 300 188 b 333 299 300 263 313 281 b 456 335 360 315 386 322 b 564 372 503 343 540 354 l 564 324 b 394 164 564 244 496 164 z m 347 915 l 528 915 l 767 1186 l 524 1186 z "},"ă":{"ha":874,"x_min":0,"x_max":0,"o":"m 292 -21 b 574 133 442 -21 529 44 l 603 0 l 811 0 l 811 514 b 449 822 811 700 715 822 b 57 511 196 822 69 699 l 314 511 b 449 628 317 586 360 628 b 563 549 535 628 563 596 b 390 468 563 499 513 485 b 136 396 260 447 201 436 b 32 196 72 356 32 293 b 292 -21 32 63 115 -21 z m 394 164 b 300 235 332 164 300 188 b 333 299 300 263 313 281 b 456 335 360 315 386 322 b 564 372 503 343 540 354 l 564 324 b 394 164 564 244 496 164 z m 449 913 b 719 1190 633 913 719 1010 l 556 1190 b 449 1065 556 1104 524 1067 b 342 1190 372 1067 342 1104 l 181 1190 b 449 913 181 1010 250 913 z "},"ắ":{"ha":874,"x_min":0,"x_max":0,"o":"m 292 -21 b 574 133 442 -21 529 44 l 603 0 l 811 0 l 811 514 b 449 822 811 700 715 822 b 57 511 196 822 69 699 l 314 511 b 449 628 317 586 360 628 b 563 549 535 628 563 596 b 390 468 563 499 513 485 b 136 396 260 447 201 436 b 32 196 72 356 32 293 b 292 -21 32 63 115 -21 z m 394 164 b 300 235 332 164 300 188 b 333 299 300 263 313 281 b 456 335 360 315 386 322 b 564 372 503 343 540 354 l 564 324 b 394 164 564 244 496 164 z m 444 889 b 719 1150 632 889 719 988 l 557 1150 b 447 1040 557 1078 524 1042 b 338 1150 369 1042 338 1078 l 176 1150 b 444 889 176 988 257 889 z m 360 1149 l 513 1149 l 632 1386 l 439 1386 z "},"ặ":{"ha":874,"x_min":0,"x_max":0,"o":"m 292 -21 b 574 133 442 -21 529 44 l 603 0 l 811 0 l 811 514 b 449 822 811 700 715 822 b 57 511 196 822 69 699 l 314 511 b 449 628 317 586 360 628 b 563 549 535 628 563 596 b 390 468 563 499 513 485 b 136 396 260 447 201 436 b 32 196 72 356 32 293 b 292 -21 32 63 115 -21 z m 394 164 b 300 235 332 164 300 188 b 333 299 300 263 313 281 b 456 335 360 315 386 322 b 564 372 503 343 540 354 l 564 324 b 394 164 564 244 496 164 z m 449 913 b 719 1190 633 913 719 1010 l 556 1190 b 449 1065 556 1104 524 1067 b 342 1190 372 1067 342 1104 l 181 1190 b 449 913 181 1010 250 913 z m 458 -362 b 596 -231 557 -362 596 -335 b 458 -99 596 -126 556 -99 b 321 -231 361 -99 321 -126 b 458 -362 321 -337 353 -362 z "},"ằ":{"ha":874,"x_min":0,"x_max":0,"o":"m 292 -21 b 574 133 442 -21 529 44 l 603 0 l 811 0 l 811 514 b 449 822 811 700 715 822 b 57 511 196 822 69 699 l 314 511 b 449 628 317 586 360 628 b 563 549 535 628 563 596 b 390 468 563 499 513 485 b 136 396 260 447 201 436 b 32 196 72 356 32 293 b 292 -21 32 63 115 -21 z m 394 164 b 300 235 332 164 300 188 b 333 299 300 263 313 281 b 456 335 360 315 386 322 b 564 372 503 343 540 354 l 564 324 b 394 164 564 244 496 164 z m 446 889 b 721 1150 633 889 721 988 l 558 1150 b 449 1040 558 1078 525 1042 b 339 1150 371 1042 339 1078 l 178 1150 b 446 889 178 988 258 889 z m 538 1147 l 460 1383 l 264 1383 l 383 1147 z "},"ẵ":{"ha":874,"x_min":0,"x_max":0,"o":"m 292 -21 b 574 133 442 -21 529 44 l 603 0 l 811 0 l 811 514 b 449 822 811 700 715 822 b 57 511 196 822 69 699 l 314 511 b 449 628 317 586 360 628 b 563 549 535 628 563 596 b 390 468 563 499 513 485 b 136 396 260 447 201 436 b 32 196 72 356 32 293 b 292 -21 32 63 115 -21 z m 394 164 b 300 235 332 164 300 188 b 333 299 300 263 313 281 b 456 335 360 315 386 322 b 564 372 503 343 540 354 l 564 324 b 394 164 564 244 496 164 z m 446 888 b 721 1149 633 888 721 986 l 558 1149 b 449 1039 558 1076 525 1040 b 339 1149 371 1040 339 1076 l 178 1149 b 446 888 178 986 258 888 z m 181 1196 l 324 1196 b 368 1261 324 1242 338 1261 b 565 1193 419 1261 463 1193 b 726 1413 683 1193 726 1263 l 581 1413 b 536 1349 582 1363 568 1349 b 344 1415 488 1349 443 1415 b 181 1196 225 1415 181 1343 z "},"ẳ":{"ha":874,"x_min":0,"x_max":0,"o":"m 292 -21 b 574 133 442 -21 529 44 l 603 0 l 811 0 l 811 514 b 449 822 811 700 715 822 b 57 511 196 822 69 699 l 314 511 b 449 628 317 586 360 628 b 563 549 535 628 563 596 b 390 468 563 499 513 485 b 136 396 260 447 201 436 b 32 196 72 356 32 293 b 292 -21 32 63 115 -21 z m 394 164 b 300 235 332 164 300 188 b 333 299 300 263 313 281 b 456 335 360 315 386 322 b 564 372 503 343 540 354 l 564 324 b 394 164 564 244 496 164 z m 446 888 b 721 1149 633 888 721 986 l 558 1149 b 449 1039 558 1076 525 1040 b 339 1149 371 1040 339 1076 l 178 1149 b 446 888 178 986 258 888 z m 558 1196 b 653 1319 632 1228 653 1268 b 450 1454 653 1400 585 1454 b 240 1290 311 1454 242 1397 l 389 1290 b 446 1336 389 1322 410 1336 b 492 1308 475 1336 492 1328 b 446 1269 492 1293 485 1285 b 372 1150 393 1247 372 1219 l 522 1150 b 558 1196 522 1174 526 1182 z "},"ǎ":{"ha":874,"x_min":0,"x_max":0,"o":"m 292 -21 b 574 133 442 -21 529 44 l 603 0 l 811 0 l 811 514 b 449 822 811 700 715 822 b 57 511 196 822 69 699 l 314 511 b 449 628 317 586 360 628 b 563 549 535 628 563 596 b 390 468 563 499 513 485 b 136 396 260 447 201 436 b 32 196 72 356 32 293 b 292 -21 32 63 115 -21 z m 394 164 b 300 235 332 164 300 188 b 333 299 300 263 313 281 b 456 335 360 315 386 322 b 564 372 503 343 540 354 l 564 324 b 394 164 564 244 496 164 z m 368 915 l 529 915 l 715 1204 l 535 1204 l 449 1060 l 365 1204 l 181 1204 z "},"â":{"ha":874,"x_min":0,"x_max":0,"o":"m 292 -21 b 574 133 442 -21 529 44 l 603 0 l 811 0 l 811 514 b 449 822 811 700 715 822 b 57 511 196 822 69 699 l 314 511 b 449 628 317 586 360 628 b 563 549 535 628 563 596 b 390 468 563 499 513 485 b 136 396 260 447 201 436 b 32 196 72 356 32 293 b 292 -21 32 63 115 -21 z m 394 164 b 300 235 332 164 300 188 b 333 299 300 263 313 281 b 456 335 360 315 386 322 b 564 372 503 343 540 354 l 564 324 b 394 164 564 244 496 164 z m 182 915 l 365 915 l 449 1061 l 533 915 l 718 915 l 531 1204 l 369 1204 z "},"ấ":{"ha":874,"x_min":0,"x_max":0,"o":"m 292 -21 b 574 133 442 -21 529 44 l 603 0 l 811 0 l 811 514 b 449 822 811 700 715 822 b 57 511 196 822 69 699 l 314 511 b 449 628 317 586 360 628 b 563 549 535 628 563 596 b 390 468 563 499 513 485 b 136 396 260 447 201 436 b 32 196 72 356 32 293 b 292 -21 32 63 115 -21 z m 394 164 b 300 235 332 164 300 188 b 333 299 300 263 313 281 b 456 335 360 315 386 322 b 564 372 503 343 540 354 l 564 324 b 394 164 564 244 496 164 z m 169 883 l 354 883 l 446 1001 l 539 883 l 728 883 l 531 1133 l 367 1133 z m 626 1069 l 779 1069 l 899 1307 l 706 1307 z "},"ậ":{"ha":874,"x_min":0,"x_max":0,"o":"m 292 -21 b 574 133 442 -21 529 44 l 603 0 l 811 0 l 811 514 b 449 822 811 700 715 822 b 57 511 196 822 69 699 l 314 511 b 449 628 317 586 360 628 b 563 549 535 628 563 596 b 390 468 563 499 513 485 b 136 396 260 447 201 436 b 32 196 72 356 32 293 b 292 -21 32 63 115 -21 z m 394 164 b 300 235 332 164 300 188 b 333 299 300 263 313 281 b 456 335 360 315 386 322 b 564 372 503 343 540 354 l 564 324 b 394 164 564 244 496 164 z m 182 915 l 365 915 l 449 1061 l 533 915 l 718 915 l 531 1204 l 369 1204 z m 458 -362 b 596 -231 557 -362 596 -335 b 458 -99 596 -126 556 -99 b 321 -231 361 -99 321 -126 b 458 -362 321 -337 353 -362 z "},"ầ":{"ha":874,"x_min":0,"x_max":0,"o":"m 292 -21 b 574 133 442 -21 529 44 l 603 0 l 811 0 l 811 514 b 449 822 811 700 715 822 b 57 511 196 822 69 699 l 314 511 b 449 628 317 586 360 628 b 563 549 535 628 563 596 b 390 468 563 499 513 485 b 136 396 260 447 201 436 b 32 196 72 356 32 293 b 292 -21 32 63 115 -21 z m 394 164 b 300 235 332 164 300 188 b 333 299 300 263 313 281 b 456 335 360 315 386 322 b 564 372 503 343 540 354 l 564 324 b 394 164 564 244 496 164 z m 169 883 l 354 883 l 446 1001 l 539 883 l 728 883 l 531 1133 l 367 1133 z m 792 1071 l 714 1307 l 518 1307 l 638 1071 z "},"ẩ":{"ha":874,"x_min":0,"x_max":0,"o":"m 292 -21 b 574 133 442 -21 529 44 l 603 0 l 811 0 l 811 514 b 449 822 811 700 715 822 b 57 511 196 822 69 699 l 314 511 b 449 628 317 586 360 628 b 563 549 535 628 563 596 b 390 468 563 499 513 485 b 136 396 260 447 201 436 b 32 196 72 356 32 293 b 292 -21 32 63 115 -21 z m 394 164 b 300 235 332 164 300 188 b 333 299 300 263 313 281 b 456 335 360 315 386 322 b 564 372 503 343 540 354 l 564 324 b 394 164 564 244 496 164 z m 169 883 l 354 883 l 446 1001 l 539 883 l 728 883 l 531 1133 l 367 1133 z m 806 1115 b 900 1239 879 1147 900 1188 b 697 1374 900 1319 832 1374 b 488 1210 558 1374 489 1317 l 636 1210 b 693 1256 636 1242 657 1256 b 739 1228 722 1256 739 1247 b 693 1189 739 1213 732 1204 b 619 1069 640 1167 619 1139 l 769 1069 b 806 1115 769 1093 774 1101 z "},"ẫ":{"ha":874,"x_min":0,"x_max":0,"o":"m 292 -21 b 574 133 442 -21 529 44 l 603 0 l 811 0 l 811 514 b 449 822 811 700 715 822 b 57 511 196 822 69 699 l 314 511 b 449 628 317 586 360 628 b 563 549 535 628 563 596 b 390 468 563 499 513 485 b 136 396 260 447 201 436 b 32 196 72 356 32 293 b 292 -21 32 63 115 -21 z m 394 164 b 300 235 332 164 300 188 b 333 299 300 263 313 281 b 456 335 360 315 386 322 b 564 372 503 343 540 354 l 564 324 b 394 164 564 244 496 164 z m 169 883 l 354 883 l 446 1001 l 539 883 l 728 883 l 531 1133 l 367 1133 z m 174 1168 l 317 1168 b 361 1233 317 1214 331 1233 b 558 1165 413 1233 456 1165 b 719 1385 676 1165 719 1235 l 574 1385 b 529 1321 575 1335 561 1321 b 338 1388 481 1321 436 1388 b 174 1168 218 1388 174 1315 z "},"ä":{"ha":874,"x_min":0,"x_max":0,"o":"m 292 -21 b 574 133 442 -21 529 44 l 603 0 l 811 0 l 811 514 b 449 822 811 700 715 822 b 57 511 196 822 69 699 l 314 511 b 449 628 317 586 360 628 b 563 549 535 628 563 596 b 390 468 563 499 513 485 b 136 396 260 447 201 436 b 32 196 72 356 32 293 b 292 -21 32 63 115 -21 z m 394 164 b 300 235 332 164 300 188 b 333 299 300 263 313 281 b 456 335 360 315 386 322 b 564 372 503 343 540 354 l 564 324 b 394 164 564 244 496 164 z m 306 911 b 421 1025 389 911 421 940 b 306 1140 421 1113 386 1140 b 192 1025 225 1140 192 1113 b 306 911 192 938 218 911 z m 593 911 b 708 1025 675 911 708 940 b 593 1140 708 1113 674 1140 b 479 1025 511 1140 479 1113 b 593 911 479 938 504 911 z "},"ạ":{"ha":874,"x_min":0,"x_max":0,"o":"m 292 -21 b 574 133 442 -21 529 44 l 603 0 l 811 0 l 811 514 b 449 822 811 700 715 822 b 57 511 196 822 69 699 l 314 511 b 449 628 317 586 360 628 b 563 549 535 628 563 596 b 390 468 563 499 513 485 b 136 396 260 447 201 436 b 32 196 72 356 32 293 b 292 -21 32 63 115 -21 z m 394 164 b 300 235 332 164 300 188 b 333 299 300 263 313 281 b 456 335 360 315 386 322 b 564 372 503 343 540 354 l 564 324 b 394 164 564 244 496 164 z m 458 -362 b 596 -231 557 -362 596 -335 b 458 -99 596 -126 556 -99 b 321 -231 361 -99 321 -126 b 458 -362 321 -337 353 -362 z "},"æ":{"ha":1414,"x_min":0,"x_max":0,"o":"m 317 -19 b 636 133 476 -19 579 43 b 969 -19 693 35 801 -19 b 1374 256 1204 -19 1329 86 l 1106 256 b 976 181 1086 210 1046 181 b 811 329 882 181 825 231 l 1379 329 l 1379 419 b 974 822 1379 638 1258 822 b 699 722 857 822 763 786 b 433 822 649 786 564 822 b 58 511 194 822 71 699 l 313 511 b 443 629 315 578 361 629 b 561 544 521 629 560 594 b 389 468 561 494 504 485 b 138 397 258 449 201 436 b 32 200 71 357 32 293 b 317 -19 32 65 122 -19 z m 978 631 b 1128 489 1069 631 1117 578 l 813 489 b 978 631 829 582 885 629 z m 393 164 b 297 236 331 164 297 189 b 331 296 297 263 307 281 b 449 328 357 313 388 318 b 563 357 497 335 535 343 l 563 322 b 393 164 563 246 494 164 z "},"ǽ":{"ha":1414,"x_min":0,"x_max":0,"o":"m 317 -19 b 636 133 476 -19 579 43 b 969 -19 693 35 801 -19 b 1374 256 1204 -19 1329 86 l 1106 256 b 976 181 1086 210 1046 181 b 811 329 882 181 825 231 l 1379 329 l 1379 419 b 974 822 1379 638 1258 822 b 699 722 857 822 763 786 b 433 822 649 786 564 822 b 58 511 194 822 71 699 l 313 511 b 443 629 315 578 361 629 b 561 544 521 629 560 594 b 389 468 561 494 504 485 b 138 397 258 449 201 436 b 32 200 71 357 32 293 b 317 -19 32 65 122 -19 z m 978 631 b 1128 489 1069 631 1117 578 l 813 489 b 978 631 829 582 885 629 z m 393 164 b 297 236 331 164 297 189 b 331 296 297 263 307 281 b 449 328 357 313 388 318 b 563 357 497 335 535 343 l 563 322 b 393 164 563 246 494 164 z m 599 897 l 779 897 l 1018 1168 l 775 1168 z "},"à":{"ha":874,"x_min":0,"x_max":0,"o":"m 292 -21 b 574 133 442 -21 529 44 l 603 0 l 811 0 l 811 514 b 449 822 811 700 715 822 b 57 511 196 822 69 699 l 314 511 b 449 628 317 586 360 628 b 563 549 535 628 563 596 b 390 468 563 499 513 485 b 136 396 260 447 201 436 b 32 196 72 356 32 293 b 292 -21 32 63 115 -21 z m 394 164 b 300 235 332 164 300 188 b 333 299 300 263 313 281 b 456 335 360 315 386 322 b 564 372 503 343 540 354 l 564 324 b 394 164 564 244 496 164 z m 379 915 l 551 915 l 390 1188 l 146 1188 z "},"ả":{"ha":874,"x_min":0,"x_max":0,"o":"m 292 -21 b 574 133 442 -21 529 44 l 603 0 l 811 0 l 811 514 b 449 822 811 700 715 822 b 57 511 196 822 69 699 l 314 511 b 449 628 317 586 360 628 b 563 549 535 628 563 596 b 390 468 563 499 513 485 b 136 396 260 447 201 436 b 32 196 72 356 32 293 b 292 -21 32 63 115 -21 z m 394 164 b 300 235 332 164 300 188 b 333 299 300 263 313 281 b 456 335 360 315 386 322 b 564 372 503 343 540 354 l 564 324 b 394 164 564 244 496 164 z m 588 965 b 689 1107 668 1001 689 1047 b 465 1265 689 1203 611 1265 b 232 1072 308 1265 232 1203 l 396 1072 b 460 1131 396 1114 417 1131 b 513 1097 493 1131 513 1121 b 457 1050 513 1075 503 1068 b 379 901 394 1024 379 985 l 544 901 b 588 965 544 936 551 950 z "},"ā":{"ha":874,"x_min":0,"x_max":0,"o":"m 292 -21 b 574 133 442 -21 529 44 l 603 0 l 811 0 l 811 514 b 449 822 811 700 715 822 b 57 511 196 822 69 699 l 314 511 b 449 628 317 586 360 628 b 563 549 535 628 563 596 b 390 468 563 499 513 485 b 136 396 260 447 201 436 b 32 196 72 356 32 293 b 292 -21 32 63 115 -21 z m 394 164 b 300 235 332 164 300 188 b 333 299 300 263 313 281 b 456 335 360 315 386 322 b 564 372 503 343 540 354 l 564 324 b 394 164 564 244 496 164 z m 233 925 l 665 925 l 665 1090 l 233 1090 z "},"ą":{"ha":874,"x_min":0,"x_max":0,"o":"m 292 -21 b 574 133 442 -21 529 44 l 596 31 b 443 -181 471 -46 443 -111 b 672 -356 443 -292 524 -356 b 951 -151 822 -356 915 -287 l 751 -151 b 683 -211 743 -190 718 -211 b 626 -165 649 -211 626 -196 b 811 0 626 -128 651 -100 l 811 514 b 449 822 811 700 715 822 b 57 511 196 822 69 699 l 314 511 b 449 628 317 586 360 628 b 563 549 535 628 563 596 b 390 468 563 499 513 485 b 136 396 260 447 201 436 b 32 196 72 356 32 293 b 292 -21 32 63 115 -21 z m 394 164 b 300 235 332 164 300 188 b 333 299 300 263 313 281 b 456 335 360 315 386 322 b 564 372 503 343 540 354 l 564 324 b 394 164 564 244 496 164 z "},"å":{"ha":874,"x_min":0,"x_max":0,"o":"m 292 -21 b 574 133 442 -21 529 44 l 603 0 l 811 0 l 811 514 b 449 822 811 700 715 822 b 57 511 196 822 69 699 l 314 511 b 449 628 317 586 360 628 b 563 549 535 628 563 596 b 390 468 563 499 513 485 b 136 396 260 447 201 436 b 32 196 72 356 32 293 b 292 -21 32 63 115 -21 z m 394 164 b 300 235 332 164 300 188 b 333 299 300 263 313 281 b 456 335 360 315 386 322 b 564 372 503 343 540 354 l 564 324 b 394 164 564 244 496 164 z m 447 910 b 663 1101 581 910 663 983 b 447 1299 663 1228 576 1299 b 236 1101 325 1299 236 1228 b 447 910 236 978 315 910 z m 449 1047 b 389 1104 408 1047 389 1069 b 449 1161 389 1140 410 1161 b 508 1104 488 1161 508 1140 b 449 1047 508 1068 482 1047 z "},"ǻ":{"ha":874,"x_min":0,"x_max":0,"o":"m 449 886 b 664 1069 582 886 664 957 b 539 1242 664 1158 617 1217 l 621 1404 l 428 1404 l 375 1244 b 238 1068 292 1224 238 1161 b 449 886 238 951 318 886 z m 450 1015 b 390 1069 410 1015 390 1038 b 450 1126 390 1104 411 1126 b 508 1069 489 1126 508 1104 b 450 1015 508 1038 490 1015 z m 292 -21 b 574 133 442 -21 529 44 l 603 0 l 811 0 l 811 514 b 449 822 811 700 715 822 b 57 511 196 822 69 699 l 314 511 b 449 628 317 586 360 628 b 563 549 535 628 563 596 b 390 468 563 499 513 485 b 136 396 260 447 201 436 b 32 196 72 356 32 293 b 292 -21 32 63 115 -21 z m 394 164 b 300 235 332 164 300 188 b 333 299 300 263 313 281 b 456 335 360 315 386 322 b 564 372 503 343 540 354 l 564 324 b 394 164 564 244 496 164 z "},"ã":{"ha":874,"x_min":0,"x_max":0,"o":"m 292 -21 b 574 133 442 -21 529 44 l 603 0 l 811 0 l 811 514 b 449 822 811 700 715 822 b 57 511 196 822 69 699 l 314 511 b 449 628 317 586 360 628 b 563 549 535 628 563 596 b 390 468 563 499 513 485 b 136 396 260 447 201 436 b 32 196 72 356 32 293 b 292 -21 32 63 115 -21 z m 394 164 b 300 235 332 164 300 188 b 333 299 300 263 313 281 b 456 335 360 315 386 322 b 564 372 503 343 540 354 l 564 324 b 394 164 564 244 496 164 z m 149 915 l 297 915 b 342 988 299 965 310 988 b 569 908 406 988 461 908 b 747 1154 703 908 747 988 l 596 1154 b 550 1085 597 1103 586 1085 b 325 1161 494 1085 431 1161 b 149 915 194 1161 149 1078 z "},"ć":{"ha":875,"x_min":0,"x_max":0,"o":"m 444 -12 b 850 340 679 -12 840 88 l 850 347 l 588 347 l 588 344 b 446 196 579 243 529 196 b 296 386 354 196 296 263 l 296 408 b 447 608 296 543 354 608 b 586 467 531 608 578 565 l 586 461 l 849 461 l 849 465 b 444 822 839 710 679 822 b 39 408 210 822 39 682 l 39 383 b 444 -12 39 115 185 -12 z m 344 915 l 525 915 l 764 1186 l 521 1186 z "},"č":{"ha":875,"x_min":0,"x_max":0,"o":"m 444 -12 b 850 340 679 -12 840 88 l 850 347 l 588 347 l 588 344 b 446 196 579 243 529 196 b 296 386 354 196 296 263 l 296 408 b 447 608 296 543 354 608 b 586 467 531 608 578 565 l 586 461 l 849 461 l 849 465 b 444 822 839 710 679 822 b 39 408 210 822 39 682 l 39 383 b 444 -12 39 115 185 -12 z m 365 915 l 526 915 l 713 1204 l 532 1204 l 446 1060 l 363 1204 l 178 1204 z "},"ç":{"ha":875,"x_min":0,"x_max":0,"o":"m 456 -415 b 711 -226 618 -415 711 -343 b 524 -72 711 -125 644 -78 l 524 -8 b 850 340 715 13 842 117 l 850 347 l 588 347 l 588 344 b 446 196 579 243 529 196 b 296 386 354 196 296 263 l 296 408 b 447 608 296 543 354 608 b 586 467 531 608 578 565 l 586 461 l 849 461 l 849 465 b 444 822 839 710 679 822 b 39 408 210 822 39 682 l 39 383 b 364 -8 39 144 154 17 l 364 -181 l 457 -181 b 540 -228 518 -181 540 -197 b 458 -282 540 -261 514 -282 b 367 -222 406 -282 375 -262 l 172 -222 b 456 -415 199 -351 282 -415 z "},"ĉ":{"ha":875,"x_min":0,"x_max":0,"o":"m 444 -12 b 850 340 679 -12 840 88 l 850 347 l 588 347 l 588 344 b 446 196 579 243 529 196 b 296 386 354 196 296 263 l 296 408 b 447 608 296 543 354 608 b 586 467 531 608 578 565 l 586 461 l 849 461 l 849 465 b 444 822 839 710 679 822 b 39 408 210 822 39 682 l 39 383 b 444 -12 39 115 185 -12 z m 179 915 l 363 915 l 446 1061 l 531 915 l 715 915 l 528 1204 l 367 1204 z "},"ċ":{"ha":875,"x_min":0,"x_max":0,"o":"m 444 -12 b 850 340 679 -12 840 88 l 850 347 l 588 347 l 588 344 b 446 196 579 243 529 196 b 296 386 354 196 296 263 l 296 408 b 447 608 296 543 354 608 b 586 467 531 608 578 565 l 586 461 l 849 461 l 849 465 b 444 822 839 710 679 822 b 39 408 210 822 39 682 l 39 383 b 444 -12 39 115 185 -12 z m 447 911 b 585 1043 546 911 585 940 b 447 1176 585 1149 544 1176 b 310 1043 350 1176 310 1149 b 447 911 310 935 342 911 z "},"ď":{"ha":993,"x_min":0,"x_max":0,"o":"m 356 -15 b 599 140 479 -15 560 46 l 624 0 l 839 0 l 839 1047 l 590 1047 l 590 689 b 357 821 550 772 474 821 b 39 425 172 821 39 696 l 39 401 b 356 -15 39 125 161 -15 z m 439 200 b 293 403 353 200 293 258 l 293 421 b 443 613 293 547 349 613 b 593 421 533 613 593 542 l 593 403 b 439 200 593 265 532 200 z m 906 740 l 1049 740 l 1085 1071 l 906 1071 z "},"đ":{"ha":910,"x_min":0,"x_max":0,"o":"m 356 -15 b 599 140 479 -15 560 46 l 624 0 l 839 0 l 839 843 l 924 843 l 924 965 l 839 965 l 839 1069 l 590 1069 l 590 965 l 503 965 l 503 843 l 590 843 l 590 692 b 357 821 549 774 472 821 b 39 425 171 821 39 696 l 39 401 b 356 -15 39 125 161 -15 z m 439 200 b 293 403 351 200 293 258 l 293 421 b 443 613 293 547 349 613 b 593 421 533 613 593 542 l 593 403 b 439 200 593 265 532 200 z "},"ð":{"ha":892,"x_min":0,"x_max":0,"o":"m 443 -19 b 851 397 700 -19 851 121 l 851 418 b 610 972 851 638 765 819 l 804 1096 l 586 1096 l 518 1053 b 458 1096 499 1067 479 1082 l 108 1096 b 339 939 199 1038 275 986 l 144 815 l 365 815 l 438 861 b 571 708 497 810 540 760 b 400 768 532 746 476 768 b 39 381 190 768 39 629 l 39 358 b 443 -19 39 118 188 -19 z m 449 196 b 289 361 356 196 289 257 l 289 379 b 447 557 289 496 353 557 b 608 382 544 557 608 501 l 608 363 b 449 196 608 251 543 196 z "},"é":{"ha":894,"x_min":0,"x_max":0,"o":"m 449 -19 b 851 254 682 -19 807 86 l 585 254 l 585 256 b 456 179 565 210 526 179 b 290 329 358 179 303 231 l 858 329 l 858 419 b 451 822 858 638 738 822 b 39 407 201 822 39 665 l 39 383 b 449 -19 39 135 169 -19 z m 456 631 b 608 488 550 631 597 576 l 290 488 b 456 631 307 581 361 631 z m 853 256 l 851 254 l 853 254 z m 351 915 l 532 915 l 771 1186 l 528 1186 z "},"ĕ":{"ha":894,"x_min":0,"x_max":0,"o":"m 449 -19 b 851 254 682 -19 807 86 l 585 254 l 585 256 b 456 179 565 210 526 179 b 290 329 358 179 303 231 l 858 329 l 858 419 b 451 822 858 638 738 822 b 39 407 201 822 39 665 l 39 383 b 449 -19 39 135 169 -19 z m 456 631 b 608 488 550 631 597 576 l 290 488 b 456 631 307 581 361 631 z m 853 256 l 851 254 l 853 254 z m 453 913 b 724 1190 638 913 724 1010 l 560 1190 b 453 1065 560 1104 528 1067 b 346 1190 376 1067 346 1104 l 185 1190 b 453 913 185 1010 254 913 z "},"ě":{"ha":894,"x_min":0,"x_max":0,"o":"m 449 -19 b 851 254 682 -19 807 86 l 585 254 l 585 256 b 456 179 565 210 526 179 b 290 329 358 179 303 231 l 858 329 l 858 419 b 451 822 858 638 738 822 b 39 407 201 822 39 665 l 39 383 b 449 -19 39 135 169 -19 z m 456 631 b 608 488 550 631 597 576 l 290 488 b 456 631 307 581 361 631 z m 853 256 l 851 254 l 853 254 z m 372 915 l 533 915 l 719 1204 l 539 1204 l 453 1060 l 369 1204 l 185 1204 z "},"ê":{"ha":894,"x_min":0,"x_max":0,"o":"m 449 -19 b 851 254 682 -19 807 86 l 585 254 l 585 256 b 456 179 565 210 526 179 b 290 329 358 179 303 231 l 858 329 l 858 419 b 451 822 858 638 738 822 b 39 407 201 822 39 665 l 39 383 b 449 -19 39 135 169 -19 z m 456 631 b 608 488 550 631 597 576 l 290 488 b 456 631 307 581 361 631 z m 853 256 l 851 254 l 853 254 z m 186 915 l 369 915 l 453 1061 l 538 915 l 722 915 l 535 1204 l 374 1204 z "},"ế":{"ha":894,"x_min":0,"x_max":0,"o":"m 449 -19 b 851 254 682 -19 807 86 l 585 254 l 585 256 b 456 179 565 210 526 179 b 290 329 358 179 303 231 l 858 329 l 858 419 b 451 822 858 638 738 822 b 39 407 201 822 39 665 l 39 383 b 449 -19 39 135 169 -19 z m 456 631 b 608 488 550 631 597 576 l 290 488 b 456 631 307 581 361 631 z m 853 256 l 851 254 l 853 254 z m 172 883 l 357 883 l 449 1001 l 542 883 l 731 883 l 533 1133 l 369 1133 z m 629 1069 l 782 1069 l 901 1307 l 708 1307 z "},"ệ":{"ha":894,"x_min":0,"x_max":0,"o":"m 449 -19 b 851 254 682 -19 807 86 l 585 254 l 585 256 b 456 179 565 210 526 179 b 290 329 358 179 303 231 l 858 329 l 858 419 b 451 822 858 638 738 822 b 39 407 201 822 39 665 l 39 383 b 449 -19 39 135 169 -19 z m 456 631 b 608 488 550 631 597 576 l 290 488 b 456 631 307 581 361 631 z m 853 256 l 851 254 l 853 254 z m 186 915 l 369 915 l 453 1061 l 538 915 l 722 915 l 535 1204 l 374 1204 z m 447 -383 b 585 -251 546 -383 585 -356 b 447 -119 585 -147 544 -119 b 310 -251 350 -119 310 -147 b 447 -383 310 -358 342 -383 z "},"ề":{"ha":894,"x_min":0,"x_max":0,"o":"m 449 -19 b 851 254 682 -19 807 86 l 585 254 l 585 256 b 456 179 565 210 526 179 b 290 329 358 179 303 231 l 858 329 l 858 419 b 451 822 858 638 738 822 b 39 407 201 822 39 665 l 39 383 b 449 -19 39 135 169 -19 z m 456 631 b 608 488 550 631 597 576 l 290 488 b 456 631 307 581 361 631 z m 853 256 l 851 254 l 853 254 z m 172 882 l 357 882 l 449 1000 l 542 882 l 731 882 l 533 1132 l 369 1132 z m 794 1069 l 717 1306 l 521 1306 l 640 1069 z "},"ể":{"ha":894,"x_min":0,"x_max":0,"o":"m 449 -19 b 851 254 682 -19 807 86 l 585 254 l 585 256 b 456 179 565 210 526 179 b 290 329 358 179 303 231 l 858 329 l 858 419 b 451 822 858 638 738 822 b 39 407 201 822 39 665 l 39 383 b 449 -19 39 135 169 -19 z m 456 631 b 608 488 550 631 597 576 l 290 488 b 456 631 307 581 361 631 z m 853 256 l 851 254 l 853 254 z m 174 882 l 358 882 l 450 1000 l 543 882 l 732 882 l 535 1132 l 371 1132 z m 810 1114 b 904 1238 883 1146 904 1186 b 701 1372 904 1318 836 1372 b 492 1208 563 1372 493 1315 l 640 1208 b 697 1254 640 1240 661 1254 b 743 1226 726 1254 743 1246 b 697 1188 743 1211 736 1203 b 624 1068 644 1165 624 1138 l 774 1068 b 810 1114 774 1092 778 1100 z "},"ễ":{"ha":894,"x_min":0,"x_max":0,"o":"m 449 -19 b 851 254 682 -19 807 86 l 585 254 l 585 256 b 456 179 565 210 526 179 b 290 329 358 179 303 231 l 858 329 l 858 419 b 451 822 858 638 738 822 b 39 407 201 822 39 665 l 39 383 b 449 -19 39 135 169 -19 z m 456 631 b 608 488 550 631 597 576 l 290 488 b 456 631 307 581 361 631 z m 853 256 l 851 254 l 853 254 z m 174 885 l 358 885 l 450 1003 l 543 885 l 732 885 l 535 1135 l 371 1135 z m 178 1169 l 321 1169 b 365 1235 321 1215 335 1235 b 563 1167 417 1235 460 1167 b 724 1386 681 1167 724 1236 l 578 1386 b 533 1322 579 1336 565 1322 b 342 1389 485 1322 440 1389 b 178 1169 222 1389 178 1317 z "},"ë":{"ha":894,"x_min":0,"x_max":0,"o":"m 449 -19 b 851 254 682 -19 807 86 l 585 254 l 585 256 b 456 179 565 210 526 179 b 290 329 358 179 303 231 l 858 329 l 858 419 b 451 822 858 638 738 822 b 39 407 201 822 39 665 l 39 383 b 449 -19 39 135 169 -19 z m 456 631 b 608 488 550 631 597 576 l 290 488 b 456 631 307 581 361 631 z m 853 256 l 851 254 l 853 254 z m 308 911 b 424 1025 392 911 424 940 b 308 1140 424 1113 389 1140 b 194 1025 228 1140 194 1113 b 308 911 194 938 221 911 z m 596 911 b 711 1025 678 911 711 940 b 596 1140 711 1113 676 1140 b 482 1025 514 1140 482 1113 b 596 911 482 938 507 911 z "},"ė":{"ha":894,"x_min":0,"x_max":0,"o":"m 449 -19 b 851 254 682 -19 807 86 l 585 254 l 585 256 b 456 179 565 210 526 179 b 290 329 358 179 303 231 l 858 329 l 858 419 b 451 822 858 638 738 822 b 39 407 201 822 39 665 l 39 383 b 449 -19 39 135 169 -19 z m 456 631 b 608 488 550 631 597 576 l 290 488 b 456 631 307 581 361 631 z m 853 256 l 851 254 l 853 254 z m 454 911 b 592 1043 553 911 592 940 b 454 1176 592 1149 551 1176 b 317 1043 357 1176 317 1149 b 454 911 317 935 349 911 z "},"ẹ":{"ha":894,"x_min":0,"x_max":0,"o":"m 449 -19 b 851 254 682 -19 807 86 l 585 254 l 585 256 b 456 179 565 210 526 179 b 290 329 358 179 303 231 l 858 329 l 858 419 b 451 822 858 638 738 822 b 39 407 201 822 39 665 l 39 383 b 449 -19 39 135 169 -19 z m 456 631 b 608 488 550 631 597 576 l 290 488 b 456 631 307 581 361 631 z m 853 256 l 851 254 l 853 254 z m 447 -383 b 585 -251 546 -383 585 -356 b 447 -119 585 -147 544 -119 b 310 -251 350 -119 310 -147 b 447 -383 310 -358 342 -383 z "},"è":{"ha":894,"x_min":0,"x_max":0,"o":"m 449 -19 b 851 254 682 -19 807 86 l 585 254 l 585 256 b 456 179 565 210 526 179 b 290 329 358 179 303 231 l 858 329 l 858 419 b 451 822 858 638 738 822 b 39 407 201 822 39 665 l 39 383 b 449 -19 39 135 169 -19 z m 456 631 b 608 488 550 631 597 576 l 290 488 b 456 631 307 581 361 631 z m 853 256 l 851 254 l 853 254 z m 383 915 l 556 915 l 394 1188 l 150 1188 z "},"ẻ":{"ha":894,"x_min":0,"x_max":0,"o":"m 449 -19 b 851 254 682 -19 807 86 l 585 254 l 585 256 b 456 179 565 210 526 179 b 290 329 358 179 303 231 l 858 329 l 858 419 b 451 822 858 638 738 822 b 39 407 201 822 39 665 l 39 383 b 449 -19 39 135 169 -19 z m 456 631 b 608 488 550 631 597 576 l 290 488 b 456 631 307 581 361 631 z m 853 256 l 851 254 l 853 254 z m 592 975 b 693 1117 672 1011 693 1057 b 469 1275 693 1213 615 1275 b 236 1082 313 1275 236 1213 l 400 1082 b 464 1140 400 1124 421 1140 b 517 1107 497 1140 517 1131 b 461 1060 517 1085 507 1078 b 383 911 399 1033 383 994 l 549 911 b 592 975 549 946 556 960 z "},"ē":{"ha":894,"x_min":0,"x_max":0,"o":"m 449 -19 b 851 254 682 -19 807 86 l 585 254 l 585 256 b 456 179 565 210 526 179 b 290 329 358 179 303 231 l 858 329 l 858 419 b 451 822 858 638 738 822 b 39 407 201 822 39 665 l 39 383 b 449 -19 39 135 169 -19 z m 456 631 b 608 488 550 631 597 576 l 290 488 b 456 631 307 581 361 631 z m 853 256 l 851 254 l 853 254 z m 238 925 l 669 925 l 669 1090 l 238 1090 z "},"ę":{"ha":894,"x_min":0,"x_max":0,"o":"m 522 -335 b 801 -131 672 -335 765 -267 l 601 -131 b 533 -190 593 -169 568 -190 b 476 -144 499 -190 476 -175 b 658 18 476 -107 501 -79 b 851 254 761 64 822 146 l 585 254 l 585 256 b 456 179 565 210 526 179 b 290 329 358 179 303 231 l 858 329 l 858 419 b 451 822 858 638 738 822 b 39 407 201 822 39 665 l 39 383 b 358 -14 39 163 142 17 b 293 -160 307 -64 293 -111 b 522 -335 293 -271 374 -335 z m 456 631 b 608 488 550 631 597 576 l 290 488 b 456 631 307 581 361 631 z m 853 256 l 851 254 l 853 254 z "},"ẽ":{"ha":894,"x_min":0,"x_max":0,"o":"m 449 -19 b 851 254 682 -19 807 86 l 585 254 l 585 256 b 456 179 565 210 526 179 b 290 329 358 179 303 231 l 858 329 l 858 419 b 451 822 858 638 738 822 b 39 407 201 822 39 665 l 39 383 b 449 -19 39 135 169 -19 z m 456 631 b 608 488 550 631 597 576 l 290 488 b 456 631 307 581 361 631 z m 853 256 l 851 254 l 853 254 z m 153 915 l 301 915 b 346 988 303 965 314 988 b 574 908 410 988 465 908 b 751 1154 707 908 751 988 l 600 1154 b 554 1085 601 1103 590 1085 b 329 1161 499 1085 435 1161 b 153 915 199 1161 153 1078 z "},"ğ":{"ha":844,"x_min":0,"x_max":0,"o":"m 36 146 b 194 -12 36 58 93 4 b 22 -167 76 -33 22 -87 b 403 -339 22 -274 101 -339 l 413 -339 b 849 -53 715 -339 849 -229 b 521 189 849 97 746 189 l 349 189 b 236 226 261 189 236 199 b 381 269 236 256 258 269 l 428 269 b 807 544 668 269 807 364 l 807 550 b 596 782 807 674 731 756 b 813 901 772 781 813 810 l 813 918 l 540 918 l 540 903 b 440 815 540 844 531 821 b 403 814 415 815 410 814 b 57 549 193 807 57 719 l 57 547 b 210 325 57 433 110 361 b 36 146 97 299 36 240 z m 431 436 b 308 539 357 436 308 468 l 308 543 b 432 656 308 619 361 654 b 553 546 503 656 553 625 l 553 540 b 431 436 553 468 507 436 z m 400 -161 b 251 -92 290 -161 250 -128 l 251 -90 b 385 -17 251 -49 301 -19 l 507 -17 b 631 -78 601 -17 631 -40 b 435 -161 631 -128 575 -161 z m 419 968 b 690 1246 604 968 690 1065 l 526 1246 b 419 1121 526 1160 494 1122 b 313 1246 343 1122 313 1160 l 151 1246 b 419 968 151 1065 221 968 z "},"ǧ":{"ha":844,"x_min":0,"x_max":0,"o":"m 36 146 b 194 -12 36 58 93 4 b 22 -167 76 -33 22 -87 b 403 -339 22 -274 101 -339 l 413 -339 b 849 -53 715 -339 849 -229 b 521 189 849 97 746 189 l 349 189 b 236 226 261 189 236 199 b 381 269 236 256 258 269 l 428 269 b 807 544 668 269 807 364 l 807 550 b 596 782 807 674 731 756 b 813 901 772 781 813 810 l 813 918 l 540 918 l 540 903 b 440 815 540 844 531 821 b 403 814 415 815 410 814 b 57 549 193 807 57 719 l 57 547 b 210 325 57 433 110 361 b 36 146 97 299 36 240 z m 431 436 b 308 539 357 436 308 468 l 308 543 b 432 656 308 619 361 654 b 553 546 503 656 553 625 l 553 540 b 431 436 553 468 507 436 z m 400 -161 b 251 -92 290 -161 250 -128 l 251 -90 b 385 -17 251 -49 301 -19 l 507 -17 b 631 -78 601 -17 631 -40 b 435 -161 631 -128 575 -161 z m 339 971 l 500 971 l 686 1260 l 506 1260 l 419 1115 l 336 1260 l 151 1260 z "},"ĝ":{"ha":844,"x_min":0,"x_max":0,"o":"m 36 146 b 194 -12 36 58 93 4 b 22 -167 76 -33 22 -87 b 403 -339 22 -274 101 -339 l 413 -339 b 849 -53 715 -339 849 -229 b 521 189 849 97 746 189 l 349 189 b 236 226 261 189 236 199 b 381 269 236 256 258 269 l 428 269 b 807 544 668 269 807 364 l 807 550 b 596 782 807 674 731 756 b 813 901 772 781 813 810 l 813 918 l 540 918 l 540 903 b 440 815 540 844 531 821 b 403 814 415 815 410 814 b 57 549 193 807 57 719 l 57 547 b 210 325 57 433 110 361 b 36 146 97 299 36 240 z m 431 436 b 308 539 357 436 308 468 l 308 543 b 432 656 308 619 361 654 b 553 546 503 656 553 625 l 553 540 b 431 436 553 468 507 436 z m 400 -161 b 251 -92 290 -161 250 -128 l 251 -90 b 385 -17 251 -49 301 -19 l 507 -17 b 631 -78 601 -17 631 -40 b 435 -161 631 -128 575 -161 z m 153 971 l 336 971 l 419 1117 l 504 971 l 689 971 l 501 1260 l 340 1260 z "},"ģ":{"ha":844,"x_min":0,"x_max":0,"o":"m 36 146 b 194 -12 36 58 93 4 b 22 -167 76 -33 22 -87 b 403 -339 22 -274 101 -339 l 413 -339 b 849 -53 715 -339 849 -229 b 521 189 849 97 746 189 l 349 189 b 236 226 261 189 236 199 b 381 269 236 256 258 269 l 428 269 b 807 544 668 269 807 364 l 807 550 b 596 782 807 674 731 756 b 813 901 772 781 813 810 l 813 918 l 540 918 l 540 903 b 440 815 540 844 531 821 b 403 814 415 815 410 814 b 57 549 193 807 57 719 l 57 547 b 210 325 57 433 110 361 b 36 146 97 299 36 240 z m 431 436 b 308 539 357 436 308 468 l 308 543 b 432 656 308 619 361 654 b 553 546 503 656 553 625 l 553 540 b 431 436 553 468 507 436 z m 400 -161 b 251 -92 290 -161 250 -128 l 251 -90 b 385 -17 251 -49 301 -19 l 507 -17 b 631 -78 601 -17 631 -40 b 435 -161 631 -128 575 -161 z m 296 1118 b 415 965 296 1000 325 965 b 535 1081 501 965 535 996 b 435 1188 535 1171 506 1188 b 419 1186 429 1188 424 1188 b 513 1271 428 1240 453 1267 l 511 1375 b 296 1118 364 1364 296 1268 z "},"ġ":{"ha":844,"x_min":0,"x_max":0,"o":"m 36 146 b 194 -12 36 58 93 4 b 22 -167 76 -33 22 -87 b 403 -339 22 -274 101 -339 l 413 -339 b 849 -53 715 -339 849 -229 b 521 189 849 97 746 189 l 349 189 b 236 226 261 189 236 199 b 381 269 236 256 258 269 l 428 269 b 807 544 668 269 807 364 l 807 550 b 596 782 807 674 731 756 b 813 901 772 781 813 810 l 813 918 l 540 918 l 540 903 b 440 815 540 844 531 821 b 403 814 415 815 410 814 b 57 549 193 807 57 719 l 57 547 b 210 325 57 433 110 361 b 36 146 97 299 36 240 z m 431 436 b 308 539 357 436 308 468 l 308 543 b 432 656 308 619 361 654 b 553 546 503 656 553 625 l 553 540 b 431 436 553 468 507 436 z m 400 -161 b 251 -92 290 -161 250 -128 l 251 -90 b 385 -17 251 -49 301 -19 l 507 -17 b 631 -78 601 -17 631 -40 b 435 -161 631 -128 575 -161 z m 421 967 b 558 1099 519 967 558 996 b 421 1232 558 1204 518 1232 b 283 1099 324 1232 283 1204 b 421 967 283 990 315 967 z "},"ß":{"ha":919,"x_min":0,"x_max":0,"o":"m 415 4 b 538 -6 442 -1 489 -6 b 899 294 790 -6 899 100 b 722 539 899 429 826 506 b 849 753 806 575 847 644 b 469 1038 849 915 728 1038 b 71 697 201 1038 71 901 l 71 0 l 326 0 l 326 690 b 465 819 326 765 365 819 b 599 718 561 819 599 779 b 476 618 599 651 561 618 l 426 618 l 426 438 l 497 438 b 633 331 583 438 633 408 b 496 214 633 253 594 214 b 415 219 463 214 440 214 z "},"ħ":{"ha":890,"x_min":0,"x_max":0,"o":"m -12 965 l -12 843 l 71 843 l 71 0 l 322 0 l 322 421 b 453 604 322 529 360 604 b 572 440 546 604 572 538 l 572 0 l 826 0 l 826 515 b 563 822 826 710 744 822 b 322 682 446 822 365 768 l 322 843 l 414 843 l 414 965 l 322 965 l 322 1069 l 71 1069 l 71 965 z "},"ĥ":{"ha":890,"x_min":0,"x_max":0,"o":"m 71 0 l 322 0 l 322 421 b 453 604 322 529 360 604 b 572 440 546 604 572 538 l 572 0 l 825 0 l 825 515 b 563 822 825 710 744 822 b 322 682 446 822 365 768 l 322 1047 l 71 1047 z m -69 1139 l 114 1139 l 197 1285 l 282 1139 l 467 1139 l 279 1428 l 118 1428 z "},"í":{"ha":403,"x_min":0,"x_max":0,"o":"m 71 0 l 333 0 l 333 806 l 71 806 z m 101 900 l 282 900 l 521 1171 l 278 1171 z "},"ĭ":{"ha":403,"x_min":0,"x_max":0,"o":"m 71 0 l 333 0 l 333 806 l 71 806 z m 203 897 b 474 1175 388 897 474 994 l 310 1175 b 203 1050 310 1089 278 1051 b 96 1175 126 1051 96 1089 l -65 1175 b 203 897 -65 994 4 897 z "},"ǐ":{"ha":403,"x_min":0,"x_max":0,"o":"m 71 0 l 333 0 l 333 806 l 71 806 z m 122 900 l 283 900 l 469 1189 l 289 1189 l 203 1044 l 119 1189 l -65 1189 z "},"î":{"ha":403,"x_min":0,"x_max":0,"o":"m 71 0 l 333 0 l 333 806 l 71 806 z m -64 900 l 119 900 l 203 1046 l 288 900 l 472 900 l 285 1189 l 124 1189 z "},"ï":{"ha":403,"x_min":0,"x_max":0,"o":"m 71 0 l 333 0 l 333 806 l 71 806 z m 61 896 b 176 1010 144 896 176 925 b 61 1125 176 1097 142 1125 b -53 1010 -19 1125 -53 1097 b 61 896 -53 922 -26 896 z m 349 896 b 464 1010 431 896 464 925 b 349 1125 464 1097 429 1125 b 235 1010 267 1125 235 1097 b 349 896 235 922 260 896 z "},"ị":{"ha":403,"x_min":0,"x_max":0,"o":"m 203 851 b 354 975 306 851 354 885 b 203 1103 354 1071 303 1103 b 51 975 101 1103 51 1071 b 203 851 51 882 92 851 z m 71 0 l 333 0 l 333 801 b 203 785 301 792 260 785 b 71 800 143 785 100 790 z m 200 -362 b 338 -231 299 -362 338 -335 b 200 -99 338 -126 297 -99 b 63 -231 103 -99 63 -126 b 200 -362 63 -337 94 -362 z "},"ì":{"ha":403,"x_min":0,"x_max":0,"o":"m 71 0 l 333 0 l 333 806 l 71 806 z m 136 900 l 308 900 l 147 1172 l -97 1172 z "},"ỉ":{"ha":403,"x_min":0,"x_max":0,"o":"m 71 0 l 333 0 l 333 806 l 71 806 z m 335 950 b 436 1092 415 986 436 1032 b 213 1250 436 1188 358 1250 b -21 1057 56 1250 -21 1188 l 143 1057 b 207 1115 143 1099 164 1115 b 260 1082 240 1115 260 1106 b 204 1035 260 1060 250 1053 b 126 886 142 1008 126 969 l 292 886 b 335 950 292 921 299 935 z "},"ĳ":{"ha":803,"x_min":0,"x_max":0,"o":"m 203 851 b 354 975 306 851 354 885 b 203 1103 354 1071 303 1103 b 51 975 101 1103 51 1071 b 203 851 51 882 92 851 z m 71 0 l 333 0 l 333 801 b 203 785 301 792 260 785 b 71 800 143 785 100 790 z m 606 851 b 757 975 708 851 757 885 b 606 1103 757 1071 706 1103 b 454 975 504 1103 454 1071 b 606 851 454 882 494 851 z m 319 -335 l 425 -335 b 735 -50 660 -335 735 -276 l 735 801 b 606 785 706 792 664 785 b 475 800 546 785 504 790 l 475 -4 b 379 -114 475 -100 458 -114 l 319 -114 z "},"ī":{"ha":403,"x_min":0,"x_max":0,"o":"m 71 0 l 333 0 l 333 806 l 71 806 z m -10 910 l 422 910 l 422 1075 l -10 1075 z "},"į":{"ha":403,"x_min":0,"x_max":0,"o":"m 203 851 b 354 975 306 851 354 885 b 203 1103 354 1071 303 1103 b 51 975 101 1103 51 1071 b 203 851 51 882 92 851 z m 71 0 l 72 0 b -35 -181 -14 -64 -35 -121 b 194 -356 -35 -292 46 -356 b 474 -151 344 -356 438 -287 l 274 -151 b 206 -211 265 -190 240 -211 b 149 -165 171 -211 149 -196 b 333 0 149 -128 174 -100 l 333 801 b 203 785 301 792 260 785 b 71 800 143 785 100 790 z "},"ɨ":{"ha":403,"x_min":0,"x_max":0,"o":"m 203 851 b 354 975 306 851 354 885 b 203 1103 354 1071 303 1103 b 51 975 101 1103 51 1071 b 203 851 51 882 92 851 z m 71 0 l 333 0 l 333 335 l 413 335 l 413 517 l 333 517 l 333 801 b 203 785 301 792 260 785 b 71 800 143 785 100 790 l 71 517 l -10 517 l -10 335 l 71 335 z "},"ĩ":{"ha":403,"x_min":0,"x_max":0,"o":"m 71 0 l 333 0 l 333 806 l 71 806 z m -94 900 l 54 900 b 99 972 56 950 67 972 b 326 893 163 972 218 893 b 504 1139 460 893 504 972 l 353 1139 b 307 1069 354 1088 343 1069 b 82 1146 251 1069 188 1146 b -94 900 -49 1146 -94 1063 z "},"ı":{"ha":403,"x_min":0,"x_max":0,"o":"m 71 0 l 333 0 l 333 806 l 71 806 z "},"ȷ":{"ha":401,"x_min":0,"x_max":0,"o":"m -85 -335 l 22 -335 b 332 -50 257 -335 332 -276 l 332 806 l 72 806 l 72 -4 b -24 -114 72 -100 56 -114 l -85 -114 z "},"ĵ":{"ha":401,"x_min":0,"x_max":0,"o":"m -85 -335 l 22 -335 b 332 -50 257 -335 332 -276 l 332 806 l 72 806 l 72 -4 b -24 -114 72 -100 56 -114 l -85 -114 z m -65 897 l 118 897 l 201 1043 l 286 897 l 471 897 l 283 1186 l 122 1186 z "},"ǩ":{"ha":869,"x_min":0,"x_max":0,"o":"m 71 1047 l 71 0 l 319 0 l 319 228 l 419 349 l 603 0 l 885 0 l 608 496 l 875 806 l 583 806 l 319 490 l 319 1047 z m 115 1140 l 276 1140 l 463 1429 l 282 1429 l 196 1285 l 113 1429 l -72 1429 z "},"ķ":{"ha":869,"x_min":0,"x_max":0,"o":"m 71 1047 l 71 0 l 319 0 l 319 228 l 419 349 l 603 0 l 885 0 l 608 496 l 875 806 l 583 806 l 319 490 l 319 1047 z m 358 -326 l 357 -414 b 582 -196 513 -406 582 -324 b 461 -64 582 -97 551 -64 b 339 -165 374 -64 339 -93 b 442 -253 339 -240 369 -253 b 467 -251 450 -253 458 -253 b 358 -326 458 -299 425 -322 z "},"ĸ":{"ha":869,"x_min":0,"x_max":0,"o":"m 71 806 l 71 0 l 319 0 l 319 226 l 419 347 l 604 0 l 885 0 l 608 494 l 875 806 l 583 806 l 319 490 l 319 806 z "},"ĺ":{"ha":397,"x_min":0,"x_max":0,"o":"m 71 1047 l 71 0 l 325 0 l 325 1047 z m 99 1139 l 279 1139 l 518 1410 l 275 1410 z "},"ľ":{"ha":397,"x_min":0,"x_max":0,"o":"m 71 1047 l 71 0 l 325 0 l 325 1047 z m 389 717 l 532 717 l 568 1047 l 389 1047 z "},"ļ":{"ha":397,"x_min":0,"x_max":0,"o":"m 71 1047 l 71 0 l 325 0 l 325 1047 z m 103 -332 l 101 -419 b 326 -201 257 -411 326 -329 b 206 -69 326 -103 296 -69 b 83 -171 118 -69 83 -99 b 186 -258 83 -246 114 -258 b 211 -257 194 -258 203 -258 b 103 -332 203 -304 169 -328 z "},"ŀ":{"ha":676,"x_min":0,"x_max":0,"o":"m 400 428 b 536 294 400 321 431 294 b 674 428 635 294 674 325 b 536 561 674 533 633 561 b 400 428 439 561 400 533 z m 71 1047 l 71 0 l 326 0 l 326 1047 z "},"ł":{"ha":453,"x_min":0,"x_max":0,"o":"m 7 535 l 7 353 l 99 388 l 99 0 l 353 0 l 353 463 l 444 500 l 444 682 l 353 644 l 353 1047 l 99 1047 l 99 571 z "},"ꝉ":{"ha":401,"x_min":0,"x_max":0,"o":"m -10 454 l 74 454 l 74 0 l 328 0 l 328 454 l 413 454 l 413 636 l 328 636 l 328 1047 l 74 1047 l 74 636 l -10 636 z "},"ń":{"ha":896,"x_min":0,"x_max":0,"o":"m 69 0 l 326 0 l 326 421 b 457 604 326 532 363 604 b 576 440 551 604 576 540 l 576 0 l 832 0 l 832 513 b 558 822 832 707 738 822 b 308 669 433 822 350 763 l 285 806 l 69 806 z m 356 903 l 536 903 l 775 1174 l 532 1174 z "},"ň":{"ha":896,"x_min":0,"x_max":0,"o":"m 69 0 l 326 0 l 326 421 b 457 604 326 532 363 604 b 576 440 551 604 576 540 l 576 0 l 832 0 l 832 513 b 558 822 832 707 738 822 b 308 669 433 822 350 763 l 285 806 l 69 806 z m 375 903 l 536 903 l 722 1192 l 542 1192 l 456 1047 l 372 1192 l 188 1192 z "},"ɲ":{"ha":896,"x_min":0,"x_max":0,"o":"m 69 -4 b -18 -114 68 -100 54 -114 l -65 -114 l -65 -335 l 25 -335 b 326 -50 251 -335 326 -276 l 326 421 b 457 604 326 532 363 604 b 576 440 551 604 576 540 l 576 0 l 832 0 l 832 513 b 558 822 832 707 738 822 b 308 669 433 822 350 763 l 285 806 l 69 806 z "},"ǹ":{"ha":896,"x_min":0,"x_max":0,"o":"m 69 0 l 326 0 l 326 421 b 457 604 326 532 363 604 b 576 440 551 604 576 540 l 576 0 l 832 0 l 832 513 b 558 822 832 707 738 822 b 308 669 433 822 350 763 l 285 806 l 69 806 z m 390 903 l 563 903 l 401 1175 l 157 1175 z "},"ņ":{"ha":896,"x_min":0,"x_max":0,"o":"m 69 0 l 326 0 l 326 421 b 457 604 326 532 363 604 b 576 440 551 604 576 540 l 576 0 l 832 0 l 832 513 b 558 822 832 707 738 822 b 308 669 433 822 350 763 l 285 806 l 69 806 z m 351 -328 l 350 -415 b 575 -197 506 -407 575 -325 b 454 -65 575 -99 544 -65 b 332 -167 367 -65 332 -94 b 435 -254 332 -242 363 -254 b 460 -253 443 -254 451 -254 b 351 -328 451 -300 418 -324 z "},"ñ":{"ha":896,"x_min":0,"x_max":0,"o":"m 69 0 l 326 0 l 326 421 b 457 604 326 532 363 604 b 576 440 551 604 576 540 l 576 0 l 832 0 l 832 513 b 558 822 832 707 738 822 b 308 669 433 822 350 763 l 285 806 l 69 806 z m 160 903 l 308 903 b 353 975 310 953 321 975 b 581 896 417 975 472 896 b 758 1142 714 896 758 975 l 607 1142 b 561 1072 608 1090 597 1072 b 336 1149 506 1072 442 1149 b 160 903 206 1149 160 1065 z "},"ŋ":{"ha":894,"x_min":0,"x_max":0,"o":"m 419 -335 l 528 -335 b 831 -50 761 -335 831 -276 l 831 513 b 556 822 831 707 736 822 b 307 667 432 822 350 761 l 283 806 l 69 806 l 69 0 l 326 0 l 326 421 b 458 604 326 532 363 604 b 576 440 551 604 576 540 l 576 -4 b 481 -114 576 -100 560 -114 l 419 -114 z "},"ó":{"ha":890,"x_min":0,"x_max":0,"o":"m 444 -19 b 851 383 690 -19 851 115 l 851 408 b 446 822 851 678 688 822 b 39 408 208 822 39 682 l 39 383 b 444 -19 39 115 183 -19 z m 446 196 b 290 386 353 196 290 263 l 290 408 b 447 608 290 543 353 608 b 600 408 544 608 600 540 l 600 386 b 446 196 600 260 539 196 z m 342 914 l 522 914 l 761 1185 l 518 1185 z "},"ŏ":{"ha":890,"x_min":0,"x_max":0,"o":"m 444 -19 b 851 383 690 -19 851 115 l 851 408 b 446 822 851 678 688 822 b 39 408 208 822 39 682 l 39 383 b 444 -19 39 115 183 -19 z m 446 196 b 290 386 353 196 290 263 l 290 408 b 447 608 290 543 353 608 b 600 408 544 608 600 540 l 600 386 b 446 196 600 260 539 196 z m 443 911 b 714 1189 628 911 714 1008 l 550 1189 b 443 1064 550 1103 518 1065 b 336 1189 367 1065 336 1103 l 175 1189 b 443 911 175 1008 244 911 z "},"ǒ":{"ha":890,"x_min":0,"x_max":0,"o":"m 444 -19 b 851 383 690 -19 851 115 l 851 408 b 446 822 851 678 688 822 b 39 408 208 822 39 682 l 39 383 b 444 -19 39 115 183 -19 z m 446 196 b 290 386 353 196 290 263 l 290 408 b 447 608 290 543 353 608 b 600 408 544 608 600 540 l 600 386 b 446 196 600 260 539 196 z m 363 914 l 524 914 l 710 1203 l 529 1203 l 443 1058 l 360 1203 l 175 1203 z "},"ô":{"ha":890,"x_min":0,"x_max":0,"o":"m 444 -19 b 851 383 690 -19 851 115 l 851 408 b 446 822 851 678 688 822 b 39 408 208 822 39 682 l 39 383 b 444 -19 39 115 183 -19 z m 446 196 b 290 386 353 196 290 263 l 290 408 b 447 608 290 543 353 608 b 600 408 544 608 600 540 l 600 386 b 446 196 600 260 539 196 z m 176 915 l 360 915 l 443 1061 l 528 915 l 713 915 l 525 1204 l 364 1204 z "},"ố":{"ha":890,"x_min":0,"x_max":0,"o":"m 444 -19 b 851 383 690 -19 851 115 l 851 408 b 446 822 851 678 688 822 b 39 408 208 822 39 682 l 39 383 b 444 -19 39 115 183 -19 z m 446 196 b 290 386 353 196 290 263 l 290 408 b 447 608 290 543 353 608 b 600 408 544 608 600 540 l 600 386 b 446 196 600 260 539 196 z m 167 883 l 351 883 l 443 1001 l 536 883 l 725 883 l 528 1133 l 364 1133 z m 624 1069 l 776 1069 l 896 1307 l 703 1307 z "},"ộ":{"ha":890,"x_min":0,"x_max":0,"o":"m 444 -19 b 851 383 690 -19 851 115 l 851 408 b 446 822 851 678 688 822 b 39 408 208 822 39 682 l 39 383 b 444 -19 39 115 183 -19 z m 446 196 b 290 386 353 196 290 263 l 290 408 b 447 608 290 543 353 608 b 600 408 544 608 600 540 l 600 386 b 446 196 600 260 539 196 z m 176 914 l 360 914 l 443 1060 l 528 914 l 713 914 l 525 1203 l 364 1203 z m 443 -383 b 581 -251 542 -383 581 -356 b 443 -119 581 -147 540 -119 b 306 -251 346 -119 306 -147 b 443 -383 306 -358 338 -383 z "},"ồ":{"ha":890,"x_min":0,"x_max":0,"o":"m 444 -19 b 851 383 690 -19 851 115 l 851 408 b 446 822 851 678 688 822 b 39 408 208 822 39 682 l 39 383 b 444 -19 39 115 183 -19 z m 446 196 b 290 386 353 196 290 263 l 290 408 b 447 608 290 543 353 608 b 600 408 544 608 600 540 l 600 386 b 446 196 600 260 539 196 z m 167 883 l 351 883 l 443 1001 l 536 883 l 725 883 l 528 1133 l 364 1133 z m 789 1071 l 711 1307 l 515 1307 l 635 1071 z "},"ổ":{"ha":890,"x_min":0,"x_max":0,"o":"m 444 -19 b 851 383 690 -19 851 115 l 851 408 b 446 822 851 678 688 822 b 39 408 208 822 39 682 l 39 383 b 444 -19 39 115 183 -19 z m 446 196 b 290 386 353 196 290 263 l 290 408 b 447 608 290 543 353 608 b 600 408 544 608 600 540 l 600 386 b 446 196 600 260 539 196 z m 167 883 l 351 883 l 443 1001 l 536 883 l 725 883 l 528 1133 l 364 1133 z m 803 1115 b 897 1239 876 1147 897 1188 b 694 1374 897 1319 829 1374 b 485 1210 556 1374 486 1317 l 633 1210 b 690 1256 633 1242 654 1256 b 736 1228 719 1256 736 1247 b 690 1189 736 1213 729 1204 b 617 1069 638 1167 617 1139 l 767 1069 b 803 1115 767 1093 771 1101 z "},"ỗ":{"ha":890,"x_min":0,"x_max":0,"o":"m 444 -19 b 851 383 690 -19 851 115 l 851 408 b 446 822 851 678 688 822 b 39 408 208 822 39 682 l 39 383 b 444 -19 39 115 183 -19 z m 446 196 b 290 386 353 196 290 263 l 290 408 b 447 608 290 543 353 608 b 600 408 544 608 600 540 l 600 386 b 446 196 600 260 539 196 z m 167 885 l 351 885 l 443 1003 l 536 885 l 725 885 l 528 1135 l 364 1135 z m 171 1169 l 314 1169 b 358 1235 314 1215 328 1235 b 556 1167 410 1235 453 1167 b 717 1386 674 1167 717 1236 l 571 1386 b 526 1322 572 1336 558 1322 b 335 1389 478 1322 433 1389 b 171 1169 215 1389 171 1317 z "},"ö":{"ha":890,"x_min":0,"x_max":0,"o":"m 444 -19 b 851 383 690 -19 851 115 l 851 408 b 446 822 851 678 688 822 b 39 408 208 822 39 682 l 39 383 b 444 -19 39 115 183 -19 z m 446 196 b 290 386 353 196 290 263 l 290 408 b 447 608 290 543 353 608 b 600 408 544 608 600 540 l 600 386 b 446 196 600 260 539 196 z m 303 911 b 418 1025 386 911 418 940 b 303 1140 418 1113 383 1140 b 189 1025 222 1140 189 1113 b 303 911 189 938 215 911 z m 590 911 b 706 1025 672 911 706 940 b 590 1140 706 1113 671 1140 b 476 1025 508 1140 476 1113 b 590 911 476 938 501 911 z "},"ȯ":{"ha":890,"x_min":0,"x_max":0,"o":"m 444 -19 b 851 383 690 -19 851 115 l 851 408 b 446 822 851 678 688 822 b 39 408 208 822 39 682 l 39 383 b 444 -19 39 115 183 -19 z m 446 196 b 290 386 353 196 290 263 l 290 408 b 447 608 290 543 353 608 b 600 408 544 608 600 540 l 600 386 b 446 196 600 260 539 196 z m 446 910 b 583 1042 544 910 583 939 b 446 1175 583 1147 543 1175 b 308 1042 349 1175 308 1147 b 446 910 308 933 340 910 z "},"ọ":{"ha":890,"x_min":0,"x_max":0,"o":"m 444 -19 b 851 383 690 -19 851 115 l 851 408 b 446 822 851 678 688 822 b 39 408 208 822 39 682 l 39 383 b 444 -19 39 115 183 -19 z m 446 196 b 290 386 353 196 290 263 l 290 408 b 447 608 290 543 353 608 b 600 408 544 608 600 540 l 600 386 b 446 196 600 260 539 196 z m 443 -383 b 581 -251 542 -383 581 -356 b 443 -119 581 -147 540 -119 b 306 -251 346 -119 306 -147 b 443 -383 306 -358 338 -383 z "},"œ":{"ha":1446,"x_min":0,"x_max":0,"o":"m 436 -19 b 714 83 565 -19 656 15 b 1004 -19 771 18 864 -19 b 1403 256 1233 -19 1358 86 l 1133 256 b 1007 181 1117 210 1076 181 b 842 329 913 181 856 231 l 1408 329 l 1408 419 b 1007 822 1408 638 1288 822 b 719 708 875 822 781 782 b 440 822 661 783 571 822 b 39 408 208 822 39 682 l 39 383 b 436 -19 39 115 181 -19 z m 1007 631 b 1158 489 1099 631 1147 578 l 843 489 b 1007 631 858 581 915 631 z m 446 197 b 290 385 353 197 290 263 l 290 408 b 447 608 290 543 353 608 b 600 408 544 608 600 540 l 600 385 b 446 197 600 260 539 197 z "},"ò":{"ha":890,"x_min":0,"x_max":0,"o":"m 444 -19 b 851 383 690 -19 851 115 l 851 408 b 446 822 851 678 688 822 b 39 408 208 822 39 682 l 39 383 b 444 -19 39 115 183 -19 z m 446 196 b 290 386 353 196 290 263 l 290 408 b 447 608 290 543 353 608 b 600 408 544 608 600 540 l 600 386 b 446 196 600 260 539 196 z m 378 915 l 550 915 l 389 1188 l 144 1188 z "},"ỏ":{"ha":890,"x_min":0,"x_max":0,"o":"m 444 -19 b 851 383 690 -19 851 115 l 851 408 b 446 822 851 678 688 822 b 39 408 208 822 39 682 l 39 383 b 444 -19 39 115 183 -19 z m 446 196 b 290 386 353 196 290 263 l 290 408 b 447 608 290 543 353 608 b 600 408 544 608 600 540 l 600 386 b 446 196 600 260 539 196 z m 582 972 b 683 1114 663 1008 683 1054 b 460 1272 683 1210 606 1272 b 226 1079 303 1272 226 1210 l 390 1079 b 454 1138 390 1121 411 1138 b 507 1104 488 1138 507 1128 b 451 1057 507 1082 497 1075 b 374 908 389 1031 374 992 l 539 908 b 582 972 539 943 546 957 z "},"ơ":{"ha":890,"x_min":0,"x_max":0,"o":"m 444 -19 b 851 383 690 -19 851 115 l 851 408 b 700 749 851 565 796 681 b 858 939 819 760 858 811 l 858 981 l 642 981 l 642 928 b 551 821 642 846 624 821 b 450 822 539 821 489 822 l 444 822 b 39 408 208 822 39 682 l 39 383 b 444 -19 39 115 183 -19 z m 446 196 b 290 386 353 196 290 263 l 290 408 b 447 608 290 543 353 608 b 600 408 544 608 600 540 l 600 386 b 446 196 600 260 539 196 z "},"ớ":{"ha":890,"x_min":0,"x_max":0,"o":"m 444 -19 b 851 383 690 -19 851 115 l 851 408 b 700 749 851 565 796 681 b 858 939 819 760 858 811 l 858 981 l 642 981 l 642 928 b 551 821 642 846 624 821 b 450 822 539 821 489 822 l 444 822 b 39 408 208 822 39 682 l 39 383 b 444 -19 39 115 183 -19 z m 446 196 b 290 386 353 196 290 263 l 290 408 b 447 608 290 543 353 608 b 600 408 544 608 600 540 l 600 386 b 446 196 600 260 539 196 z m 319 906 l 500 906 l 739 1176 l 496 1176 z "},"ợ":{"ha":890,"x_min":0,"x_max":0,"o":"m 444 -19 b 851 383 690 -19 851 115 l 851 408 b 700 749 851 565 796 681 b 858 939 819 760 858 811 l 858 981 l 642 981 l 642 928 b 551 821 642 846 624 821 b 450 822 539 821 489 822 l 444 822 b 39 408 208 822 39 682 l 39 383 b 444 -19 39 115 183 -19 z m 446 196 b 290 386 353 196 290 263 l 290 408 b 447 608 290 543 353 608 b 600 408 544 608 600 540 l 600 386 b 446 196 600 260 539 196 z m 443 -383 b 581 -251 542 -383 581 -356 b 443 -119 581 -147 540 -119 b 306 -251 346 -119 306 -147 b 443 -383 306 -358 338 -383 z "},"ờ":{"ha":890,"x_min":0,"x_max":0,"o":"m 444 -19 b 851 383 690 -19 851 115 l 851 408 b 700 749 851 565 796 681 b 858 939 819 760 858 811 l 858 981 l 642 981 l 642 928 b 551 821 642 846 624 821 b 450 822 539 821 489 822 l 444 822 b 39 408 208 822 39 682 l 39 383 b 444 -19 39 115 183 -19 z m 446 196 b 290 386 353 196 290 263 l 290 408 b 447 608 290 543 353 608 b 600 408 544 608 600 540 l 600 386 b 446 196 600 260 539 196 z m 378 906 l 550 906 l 389 1178 l 144 1178 z "},"ở":{"ha":890,"x_min":0,"x_max":0,"o":"m 522 964 b 624 1106 603 1000 624 1046 b 400 1264 624 1201 546 1264 b 167 1071 243 1264 167 1201 l 331 1071 b 394 1129 331 1113 353 1129 b 449 1096 428 1129 449 1119 b 392 1049 449 1075 438 1065 b 314 900 329 1022 314 983 l 479 900 b 522 964 479 935 486 949 z m 444 -19 b 851 383 690 -19 851 115 l 851 408 b 700 749 851 565 796 681 b 858 939 819 760 858 811 l 858 981 l 642 981 l 642 928 b 551 821 642 846 624 821 b 450 822 539 821 489 822 l 444 822 b 39 408 208 822 39 682 l 39 383 b 444 -19 39 115 183 -19 z m 446 196 b 290 386 353 196 290 263 l 290 408 b 447 608 290 543 353 608 b 600 408 544 608 600 540 l 600 386 b 446 196 600 260 539 196 z "},"ỡ":{"ha":890,"x_min":0,"x_max":0,"o":"m 89 903 l 239 903 b 282 968 239 949 251 968 b 469 896 333 968 374 896 b 638 1140 593 896 638 974 l 488 1140 b 443 1078 488 1093 475 1078 b 257 1147 393 1078 347 1147 b 89 903 135 1147 89 1065 z m 444 -19 b 851 383 690 -19 851 115 l 851 408 b 700 749 851 565 796 681 b 858 939 819 760 858 811 l 858 981 l 642 981 l 642 928 b 551 821 642 846 624 821 b 450 822 539 821 489 822 l 444 822 b 39 408 208 822 39 682 l 39 383 b 444 -19 39 115 183 -19 z m 446 196 b 290 386 353 196 290 263 l 290 408 b 447 608 290 543 353 608 b 600 408 544 608 600 540 l 600 386 b 446 196 600 260 539 196 z "},"ő":{"ha":890,"x_min":0,"x_max":0,"o":"m 444 -19 b 851 383 690 -19 851 115 l 851 408 b 446 822 851 678 688 822 b 39 408 208 822 39 682 l 39 383 b 444 -19 39 115 183 -19 z m 446 196 b 290 386 353 196 290 263 l 290 408 b 447 608 290 543 353 608 b 600 408 544 608 600 540 l 600 386 b 446 196 600 260 539 196 z m 378 1186 l 239 914 l 383 914 l 585 1186 z m 646 1186 l 497 914 l 646 914 l 857 1186 z "},"ō":{"ha":890,"x_min":0,"x_max":0,"o":"m 444 -19 b 851 383 690 -19 851 115 l 851 408 b 446 822 851 678 688 822 b 39 408 208 822 39 682 l 39 383 b 444 -19 39 115 183 -19 z m 446 196 b 290 386 353 196 290 263 l 290 408 b 447 608 290 543 353 608 b 600 408 544 608 600 540 l 600 386 b 446 196 600 260 539 196 z m 232 925 l 664 925 l 664 1090 l 232 1090 z "},"ǫ":{"ha":890,"x_min":0,"x_max":0,"o":"m 460 -349 b 739 -144 610 -349 703 -281 l 539 -144 b 471 -204 531 -183 506 -204 b 414 -158 436 -204 414 -189 b 583 -3 414 -122 438 -94 b 851 383 749 40 851 169 l 851 408 b 446 822 851 678 688 822 b 39 408 208 822 39 682 l 39 383 b 319 -7 39 163 138 32 b 231 -174 249 -65 231 -118 b 460 -349 231 -285 311 -349 z m 446 196 b 290 386 353 196 290 263 l 290 408 b 447 608 290 543 353 608 b 600 408 544 608 600 540 l 600 386 b 446 196 600 260 539 196 z "},"ø":{"ha":889,"x_min":0,"x_max":0,"o":"m 97 -125 l 319 -125 l 369 -15 b 444 -19 393 -18 418 -19 b 851 383 690 -19 851 115 l 851 408 b 714 738 851 557 801 668 l 797 918 l 575 918 l 528 817 b 446 822 501 821 474 822 b 39 408 208 822 39 682 l 39 383 b 178 53 39 228 86 118 z m 446 196 b 290 386 353 196 290 263 l 290 408 b 447 608 290 543 353 608 b 599 408 544 608 599 540 l 599 386 b 446 196 599 260 539 196 z "},"ǿ":{"ha":889,"x_min":0,"x_max":0,"o":"m 315 915 l 496 915 l 735 1188 l 492 1188 z m 97 -125 l 319 -125 l 369 -15 b 444 -19 393 -18 418 -19 b 851 383 690 -19 851 115 l 851 408 b 714 738 851 557 801 668 l 797 918 l 575 918 l 528 817 b 446 822 501 821 474 822 b 39 408 208 822 39 682 l 39 383 b 178 53 39 228 86 118 z m 446 196 b 290 386 353 196 290 263 l 290 408 b 447 608 290 543 353 608 b 599 408 544 608 599 540 l 599 386 b 446 196 599 260 539 196 z "},"õ":{"ha":890,"x_min":0,"x_max":0,"o":"m 444 -19 b 851 383 690 -19 851 115 l 851 408 b 446 822 851 678 688 822 b 39 408 208 822 39 682 l 39 383 b 444 -19 39 115 183 -19 z m 446 196 b 290 386 353 196 290 263 l 290 408 b 447 608 290 543 353 608 b 600 408 544 608 600 540 l 600 386 b 446 196 600 260 539 196 z m 147 915 l 296 915 b 340 988 297 965 308 988 b 568 908 404 988 460 908 b 746 1154 701 908 746 988 l 594 1154 b 549 1085 596 1103 585 1085 b 324 1161 493 1085 429 1161 b 147 915 193 1161 147 1078 z "},"ŕ":{"ha":626,"x_min":0,"x_max":0,"o":"m 69 0 l 328 0 l 328 357 b 511 551 328 500 364 551 l 606 551 l 606 817 l 560 817 b 306 638 414 817 333 764 l 272 806 l 69 806 z m 238 893 l 418 893 l 657 1164 l 414 1164 z "},"ř":{"ha":626,"x_min":0,"x_max":0,"o":"m 69 0 l 328 0 l 328 357 b 511 551 328 500 364 551 l 606 551 l 606 817 l 560 817 b 306 638 414 817 333 764 l 272 806 l 69 806 z m 260 893 l 421 893 l 607 1182 l 426 1182 l 340 1038 l 257 1182 l 72 1182 z "},"ŗ":{"ha":626,"x_min":0,"x_max":0,"o":"m 69 0 l 328 0 l 328 357 b 511 551 328 500 364 551 l 606 551 l 606 817 l 560 817 b 306 638 414 817 333 764 l 272 806 l 69 806 z m 101 -332 l 100 -419 b 325 -201 256 -411 325 -329 b 204 -69 325 -103 294 -69 b 82 -171 117 -69 82 -99 b 185 -258 82 -246 113 -258 b 210 -257 193 -258 201 -258 b 101 -332 201 -304 168 -328 z "},"ś":{"ha":806,"x_min":0,"x_max":0,"o":"m 410 -21 b 782 257 660 -21 782 97 l 782 258 b 476 499 782 444 615 481 b 289 572 357 514 289 522 b 394 640 289 611 315 640 b 524 554 471 640 511 610 l 772 554 b 397 824 747 715 639 824 b 46 557 171 824 46 714 b 349 317 46 365 208 335 b 536 242 449 304 536 297 b 422 169 536 197 501 169 b 274 268 339 169 290 201 l 274 269 l 13 269 b 410 -21 39 83 169 -21 z m 296 917 l 476 917 l 715 1188 l 472 1188 z "},"š":{"ha":806,"x_min":0,"x_max":0,"o":"m 410 -21 b 782 257 660 -21 782 97 l 782 258 b 476 499 782 444 615 481 b 289 572 357 514 289 522 b 394 640 289 611 315 640 b 524 554 471 640 511 610 l 772 554 b 397 824 747 715 639 824 b 46 557 171 824 46 714 b 349 317 46 365 208 335 b 536 242 449 304 536 297 b 422 169 536 197 501 169 b 274 268 339 169 290 201 l 274 269 l 13 269 b 410 -21 39 83 169 -21 z m 317 917 l 478 917 l 664 1206 l 483 1206 l 397 1061 l 314 1206 l 129 1206 z "},"ş":{"ha":806,"x_min":0,"x_max":0,"o":"m 429 -421 b 685 -232 592 -421 685 -349 b 497 -78 685 -131 618 -83 l 497 -15 b 782 257 689 10 782 117 l 782 258 b 476 499 782 444 615 481 b 289 572 357 514 289 522 b 394 640 289 611 315 640 b 524 554 471 640 511 610 l 772 554 b 397 824 747 715 639 824 b 46 557 171 824 46 714 b 349 317 46 365 208 335 b 536 242 449 304 536 297 b 422 169 536 197 501 169 b 274 268 339 169 290 201 l 274 269 l 13 269 b 338 -18 36 103 143 1 l 338 -186 l 431 -186 b 514 -233 492 -186 514 -203 b 432 -287 514 -267 488 -287 b 340 -228 379 -287 349 -268 l 146 -228 b 429 -421 172 -357 256 -421 z "},"ŝ":{"ha":806,"x_min":0,"x_max":0,"o":"m 410 -21 b 782 257 660 -21 782 97 l 782 258 b 476 499 782 444 615 481 b 289 572 357 514 289 522 b 394 640 289 611 315 640 b 524 554 471 640 511 610 l 772 554 b 397 824 747 715 639 824 b 46 557 171 824 46 714 b 349 317 46 365 208 335 b 536 242 449 304 536 297 b 422 169 536 197 501 169 b 274 268 339 169 290 201 l 274 269 l 13 269 b 410 -21 39 83 169 -21 z m 131 917 l 314 917 l 397 1063 l 482 917 l 667 917 l 479 1206 l 318 1206 z "},"ș":{"ha":806,"x_min":0,"x_max":0,"o":"m 410 -21 b 782 257 660 -21 782 97 l 782 258 b 476 499 782 444 615 481 b 289 572 357 514 289 522 b 394 640 289 611 315 640 b 524 554 471 640 511 610 l 772 554 b 397 824 747 715 639 824 b 46 557 171 824 46 714 b 349 317 46 365 208 335 b 536 242 449 304 536 297 b 422 169 536 197 501 169 b 274 268 339 169 290 201 l 274 269 l 13 269 b 410 -21 39 83 169 -21 z m 318 -346 l 317 -433 b 542 -215 472 -425 542 -343 b 421 -83 542 -117 511 -83 b 299 -185 333 -83 299 -112 b 401 -272 299 -260 329 -272 b 426 -271 410 -272 418 -272 b 318 -346 418 -318 385 -342 z "},"ŧ":{"ha":608,"x_min":0,"x_max":0,"o":"m 44 343 l 146 343 l 146 339 b 449 0 146 88 204 0 l 576 0 l 576 235 l 525 235 b 385 343 419 235 390 246 l 515 343 l 515 481 l 383 481 l 383 582 l 576 582 l 576 806 l 383 806 l 383 1006 l 176 1006 b 168 897 174 974 172 931 b 89 800 160 829 140 807 b 10 792 61 794 40 792 l 10 582 l 146 582 l 146 481 l 44 481 z "},"ť":{"ha":610,"x_min":0,"x_max":0,"o":"m 146 339 b 449 0 146 88 204 0 l 575 0 l 575 235 l 525 235 b 383 389 406 235 383 250 l 383 582 l 575 582 l 575 806 l 383 806 l 383 1006 l 176 1006 b 168 897 174 974 171 931 b 89 800 160 829 140 807 b 10 792 61 794 39 792 l 10 582 l 146 582 z m 449 860 l 592 860 l 628 1190 l 449 1190 z "},"ţ":{"ha":610,"x_min":0,"x_max":0,"o":"m 146 339 b 304 15 146 147 179 51 l 304 -167 l 397 -167 b 481 -214 458 -167 481 -183 b 399 -268 481 -247 454 -268 b 307 -208 346 -268 315 -249 l 113 -208 b 396 -401 139 -337 222 -401 b 651 -212 558 -401 651 -329 b 464 -58 651 -111 585 -64 l 464 0 l 575 0 l 575 235 l 525 235 b 383 389 406 235 383 250 l 383 582 l 575 582 l 575 806 l 383 806 l 383 1006 l 176 1006 b 168 897 174 974 171 931 b 89 800 160 829 140 807 b 10 792 61 794 39 792 l 10 582 l 146 582 z "},"ț":{"ha":608,"x_min":0,"x_max":0,"o":"m 146 339 b 449 0 146 88 204 0 l 575 0 l 575 235 l 525 235 b 383 389 406 235 383 250 l 383 582 l 575 582 l 575 806 l 383 806 l 383 1006 l 176 1006 b 168 897 174 974 171 931 b 89 800 160 829 140 807 b 10 792 61 794 39 792 l 10 582 l 146 582 z m 285 -325 l 283 -412 b 508 -194 439 -404 508 -322 b 388 -62 508 -96 478 -62 b 265 -164 300 -62 265 -92 b 368 -251 265 -239 296 -251 b 393 -250 376 -251 385 -251 b 285 -325 385 -297 351 -321 z "},"ú":{"ha":878,"x_min":0,"x_max":0,"o":"m 329 -15 b 569 138 451 -15 531 43 l 593 0 l 808 0 l 808 806 l 551 806 l 551 386 b 429 204 551 278 518 204 b 317 368 339 204 317 269 l 317 806 l 64 806 l 64 293 b 329 -15 64 97 151 -15 z m 335 892 l 515 892 l 754 1163 l 511 1163 z "},"ʉ":{"ha":879,"x_min":0,"x_max":0,"o":"m 329 -15 b 569 138 451 -15 531 43 l 593 0 l 808 0 l 808 403 l 892 403 l 892 569 l 808 569 l 808 806 l 551 806 l 551 569 l 317 569 l 317 806 l 64 806 l 64 569 l -17 569 l -17 403 l 64 403 l 64 293 b 329 -15 64 97 151 -15 z m 317 368 l 317 403 l 551 403 l 551 386 b 429 204 551 278 518 204 b 317 368 339 204 317 269 z "},"ŭ":{"ha":878,"x_min":0,"x_max":0,"o":"m 329 -15 b 569 138 451 -15 531 43 l 593 0 l 808 0 l 808 806 l 551 806 l 551 386 b 429 204 551 278 518 204 b 317 368 339 204 317 269 l 317 806 l 64 806 l 64 293 b 329 -15 64 97 151 -15 z m 436 889 b 707 1167 621 889 707 986 l 543 1167 b 436 1042 543 1081 511 1043 b 329 1167 360 1043 329 1081 l 168 1167 b 436 889 168 986 238 889 z "},"ǔ":{"ha":878,"x_min":0,"x_max":0,"o":"m 329 -15 b 569 138 451 -15 531 43 l 593 0 l 808 0 l 808 806 l 551 806 l 551 386 b 429 204 551 278 518 204 b 317 368 339 204 317 269 l 317 806 l 64 806 l 64 293 b 329 -15 64 97 151 -15 z m 356 892 l 517 892 l 703 1181 l 522 1181 l 436 1036 l 353 1181 l 168 1181 z "},"û":{"ha":878,"x_min":0,"x_max":0,"o":"m 329 -15 b 569 138 451 -15 531 43 l 593 0 l 808 0 l 808 806 l 551 806 l 551 386 b 429 204 551 278 518 204 b 317 368 339 204 317 269 l 317 806 l 64 806 l 64 293 b 329 -15 64 97 151 -15 z m 169 892 l 353 892 l 436 1038 l 521 892 l 706 892 l 518 1181 l 357 1181 z "},"ü":{"ha":878,"x_min":0,"x_max":0,"o":"m 329 -15 b 569 138 451 -15 531 43 l 593 0 l 808 0 l 808 806 l 551 806 l 551 386 b 429 204 551 278 518 204 b 317 368 339 204 317 269 l 317 806 l 64 806 l 64 293 b 329 -15 64 97 151 -15 z m 292 888 b 407 1001 375 888 407 917 b 292 1117 407 1089 372 1117 b 178 1001 211 1117 178 1089 b 292 888 178 914 204 888 z m 579 888 b 694 1001 661 888 694 917 b 579 1117 694 1089 660 1117 b 465 1001 497 1117 465 1089 b 579 888 465 914 490 888 z "},"ǘ":{"ha":878,"x_min":0,"x_max":0,"o":"m 329 -15 b 569 138 451 -15 531 43 l 593 0 l 808 0 l 808 806 l 551 806 l 551 386 b 429 204 551 278 518 204 b 317 368 339 204 317 269 l 317 806 l 64 806 l 64 293 b 329 -15 64 97 151 -15 z m 296 868 b 407 975 374 868 407 897 b 296 1088 407 1060 374 1088 b 188 975 221 1088 188 1060 b 296 868 188 893 213 868 z m 576 868 b 686 975 654 868 686 897 b 576 1088 686 1060 653 1088 b 467 975 499 1088 467 1060 b 576 868 467 893 492 868 z m 347 1122 l 500 1122 l 619 1360 l 426 1360 z "},"ǚ":{"ha":878,"x_min":0,"x_max":0,"o":"m 329 -15 b 569 138 451 -15 531 43 l 593 0 l 808 0 l 808 806 l 551 806 l 551 386 b 429 204 551 278 518 204 b 317 368 339 204 317 269 l 317 806 l 64 806 l 64 293 b 329 -15 64 97 151 -15 z m 294 868 b 406 975 372 868 406 897 b 294 1088 406 1060 372 1088 b 186 975 219 1088 186 1060 b 294 868 186 893 211 868 z m 575 868 b 685 975 653 868 685 897 b 575 1088 685 1060 651 1088 b 465 975 497 1088 465 1060 b 575 868 465 893 490 868 z m 156 1367 l 353 1118 l 517 1118 l 714 1367 l 525 1367 l 432 1250 l 340 1367 z "},"ǜ":{"ha":878,"x_min":0,"x_max":0,"o":"m 329 -15 b 569 138 451 -15 531 43 l 593 0 l 808 0 l 808 806 l 551 806 l 551 386 b 429 204 551 278 518 204 b 317 368 339 204 317 269 l 317 806 l 64 806 l 64 293 b 329 -15 64 97 151 -15 z m 292 868 b 403 975 369 868 403 897 b 292 1088 403 1060 369 1088 b 183 975 217 1088 183 1060 b 292 868 183 893 208 868 z m 572 868 b 682 975 650 868 682 897 b 572 1088 682 1060 649 1088 b 463 975 494 1088 463 1060 b 572 868 463 893 488 868 z m 522 1122 l 444 1358 l 249 1358 l 368 1122 z "},"ǖ":{"ha":878,"x_min":0,"x_max":0,"o":"m 329 -15 b 569 138 451 -15 531 43 l 593 0 l 808 0 l 808 806 l 551 806 l 551 386 b 429 204 551 278 518 204 b 317 368 339 204 317 269 l 317 806 l 64 806 l 64 293 b 329 -15 64 97 151 -15 z m 292 865 b 403 972 369 865 403 894 b 292 1085 403 1057 369 1085 b 183 972 217 1085 183 1057 b 292 865 183 890 208 865 z m 572 865 b 682 972 650 865 682 894 b 572 1085 682 1057 649 1085 b 463 972 494 1085 463 1057 b 572 865 463 890 488 865 z m 208 1142 l 660 1142 l 660 1292 l 208 1292 z "},"ụ":{"ha":878,"x_min":0,"x_max":0,"o":"m 329 -15 b 569 138 451 -15 531 43 l 593 0 l 808 0 l 808 806 l 551 806 l 551 386 b 429 204 551 278 518 204 b 317 368 339 204 317 269 l 317 806 l 64 806 l 64 293 b 329 -15 64 97 151 -15 z m 438 -365 b 575 -233 536 -365 575 -337 b 438 -101 575 -129 535 -101 b 300 -233 340 -101 300 -129 b 438 -365 300 -340 332 -365 z "},"ù":{"ha":878,"x_min":0,"x_max":0,"o":"m 329 -15 b 569 138 451 -15 531 43 l 593 0 l 808 0 l 808 806 l 551 806 l 551 386 b 429 204 551 278 518 204 b 317 368 339 204 317 269 l 317 806 l 64 806 l 64 293 b 329 -15 64 97 151 -15 z m 367 892 l 539 892 l 378 1164 l 133 1164 z "},"ủ":{"ha":878,"x_min":0,"x_max":0,"o":"m 329 -15 b 569 138 451 -15 531 43 l 593 0 l 808 0 l 808 806 l 551 806 l 551 386 b 429 204 551 278 518 204 b 317 368 339 204 317 269 l 317 806 l 64 806 l 64 293 b 329 -15 64 97 151 -15 z m 575 942 b 676 1083 656 978 676 1024 b 453 1242 676 1179 599 1242 b 219 1049 296 1242 219 1179 l 383 1049 b 447 1107 383 1090 404 1107 b 500 1074 481 1107 500 1097 b 444 1026 500 1051 490 1044 b 367 878 382 1000 367 961 l 532 878 b 575 942 532 913 539 926 z "},"ư":{"ha":885,"x_min":0,"x_max":0,"o":"m 329 -15 b 569 138 451 -15 531 43 l 593 0 l 808 0 l 808 753 b 946 931 914 769 946 821 l 946 982 l 731 982 l 731 921 b 622 806 731 824 710 807 l 551 806 l 551 386 b 429 204 551 278 518 204 b 317 368 339 204 317 269 l 317 806 l 64 806 l 64 293 b 329 -15 64 97 151 -15 z "},"ứ":{"ha":885,"x_min":0,"x_max":0,"o":"m 329 -15 b 569 138 451 -15 531 43 l 593 0 l 808 0 l 808 753 b 946 931 914 769 946 821 l 946 982 l 731 982 l 731 921 b 622 806 731 824 710 807 l 551 806 l 551 386 b 429 204 551 278 518 204 b 317 368 339 204 317 269 l 317 806 l 64 806 l 64 293 b 329 -15 64 97 151 -15 z m 338 882 l 518 882 l 757 1153 l 514 1153 z "},"ự":{"ha":885,"x_min":0,"x_max":0,"o":"m 329 -15 b 569 138 451 -15 531 43 l 593 0 l 808 0 l 808 753 b 946 931 914 769 946 821 l 946 982 l 731 982 l 731 921 b 622 806 731 824 710 807 l 551 806 l 551 386 b 429 204 551 278 518 204 b 317 368 339 204 317 269 l 317 806 l 64 806 l 64 293 b 329 -15 64 97 151 -15 z m 438 -365 b 575 -233 536 -365 575 -337 b 438 -101 575 -129 535 -101 b 300 -233 340 -101 300 -129 b 438 -365 300 -340 332 -365 z "},"ừ":{"ha":885,"x_min":0,"x_max":0,"o":"m 329 -15 b 569 138 451 -15 531 43 l 593 0 l 808 0 l 808 753 b 946 931 914 769 946 821 l 946 982 l 731 982 l 731 921 b 622 806 731 824 710 807 l 551 806 l 551 386 b 429 204 551 278 518 204 b 317 368 339 204 317 269 l 317 806 l 64 806 l 64 293 b 329 -15 64 97 151 -15 z m 372 882 l 544 882 l 383 1154 l 139 1154 z "},"ử":{"ha":885,"x_min":0,"x_max":0,"o":"m 564 939 b 665 1081 644 975 665 1019 b 442 1238 665 1176 588 1238 b 208 1044 285 1238 208 1176 l 372 1044 b 436 1103 372 1086 394 1103 b 489 1068 469 1103 489 1094 b 433 1022 489 1050 479 1042 b 356 874 371 996 356 958 l 521 874 b 564 939 521 910 528 922 z m 329 -15 b 569 138 451 -15 531 43 l 593 0 l 808 0 l 808 753 b 946 931 914 769 946 821 l 946 982 l 731 982 l 731 921 b 622 806 731 824 710 807 l 551 806 l 551 386 b 429 204 551 278 518 204 b 317 368 339 204 317 269 l 317 806 l 64 806 l 64 293 b 329 -15 64 97 151 -15 z "},"ữ":{"ha":885,"x_min":0,"x_max":0,"o":"m 103 885 l 250 885 b 296 960 253 938 264 960 b 524 881 360 960 415 881 b 701 1126 657 881 701 958 l 550 1126 b 504 1056 551 1074 540 1056 b 279 1133 449 1056 385 1133 b 103 885 149 1133 103 1049 z m 329 -15 b 569 138 451 -15 531 43 l 593 0 l 808 0 l 808 753 b 946 931 914 769 946 821 l 946 982 l 731 982 l 731 921 b 622 806 731 824 710 807 l 551 806 l 551 386 b 429 204 551 278 518 204 b 317 368 339 204 317 269 l 317 806 l 64 806 l 64 293 b 329 -15 64 97 151 -15 z "},"ű":{"ha":878,"x_min":0,"x_max":0,"o":"m 329 -15 b 569 138 451 -15 531 43 l 593 0 l 808 0 l 808 806 l 551 806 l 551 386 b 429 204 551 278 518 204 b 317 368 339 204 317 269 l 317 806 l 64 806 l 64 293 b 329 -15 64 97 151 -15 z m 371 1164 l 232 892 l 376 892 l 578 1164 z m 639 1164 l 490 892 l 639 892 l 850 1164 z "},"ū":{"ha":878,"x_min":0,"x_max":0,"o":"m 329 -15 b 569 138 451 -15 531 43 l 593 0 l 808 0 l 808 806 l 551 806 l 551 386 b 429 204 551 278 518 204 b 317 368 339 204 317 269 l 317 806 l 64 806 l 64 293 b 329 -15 64 97 151 -15 z m 221 901 l 653 901 l 653 1067 l 221 1067 z "},"ų":{"ha":878,"x_min":0,"x_max":0,"o":"m 329 -15 b 569 138 451 -15 531 43 l 588 29 b 439 -181 467 -47 439 -111 b 668 -356 439 -292 519 -356 b 947 -151 818 -356 911 -287 l 747 -151 b 679 -211 739 -190 714 -211 b 622 -165 644 -211 622 -196 b 807 0 622 -128 647 -100 l 808 0 l 808 806 l 551 806 l 551 386 b 429 204 551 278 518 204 b 317 368 339 204 317 269 l 317 806 l 64 806 l 64 293 b 329 -15 64 97 151 -15 z "},"ů":{"ha":878,"x_min":0,"x_max":0,"o":"m 329 -15 b 569 138 451 -15 531 43 l 593 0 l 808 0 l 808 806 l 551 806 l 551 386 b 429 204 551 278 518 204 b 317 368 339 204 317 269 l 317 806 l 64 806 l 64 293 b 329 -15 64 97 151 -15 z m 435 886 b 650 1078 568 886 650 960 b 435 1275 650 1204 564 1275 b 224 1078 313 1275 224 1204 b 435 886 224 954 303 886 z m 436 1024 b 376 1081 396 1024 376 1046 b 436 1138 376 1117 397 1138 b 496 1081 475 1138 496 1117 b 436 1024 496 1044 469 1024 z "},"ũ":{"ha":878,"x_min":0,"x_max":0,"o":"m 329 -15 b 569 138 451 -15 531 43 l 593 0 l 808 0 l 808 806 l 551 806 l 551 386 b 429 204 551 278 518 204 b 317 368 339 204 317 269 l 317 806 l 64 806 l 64 293 b 329 -15 64 97 151 -15 z m 138 892 l 286 892 b 331 964 288 942 299 964 b 558 885 394 964 450 885 b 736 1131 692 885 736 964 l 585 1131 b 539 1061 586 1079 575 1061 b 314 1138 483 1061 419 1138 b 138 892 183 1138 138 1054 z "},"ẃ":{"ha":1200,"x_min":0,"x_max":0,"o":"m 203 0 l 432 0 l 592 432 l 739 0 l 964 0 l 1206 806 l 961 806 l 828 314 l 674 806 l 513 806 l 350 311 l 240 806 l -6 806 z m 493 900 l 674 900 l 913 1171 l 669 1171 z "},"ŵ":{"ha":1200,"x_min":0,"x_max":0,"o":"m 203 0 l 432 0 l 592 432 l 739 0 l 964 0 l 1206 806 l 961 806 l 828 314 l 674 806 l 513 806 l 350 311 l 240 806 l -6 806 z m 328 900 l 511 900 l 594 1046 l 679 900 l 864 900 l 676 1189 l 515 1189 z "},"ẅ":{"ha":1200,"x_min":0,"x_max":0,"o":"m 203 0 l 432 0 l 592 432 l 739 0 l 964 0 l 1206 806 l 961 806 l 828 314 l 674 806 l 513 806 l 350 311 l 240 806 l -6 806 z m 451 896 b 567 1010 535 896 567 925 b 451 1125 567 1097 532 1125 b 338 1010 371 1125 338 1097 b 451 896 338 922 364 896 z m 739 896 b 854 1010 821 896 854 925 b 739 1125 854 1097 819 1125 b 625 1010 657 1125 625 1097 b 739 896 625 922 650 896 z "},"ẁ":{"ha":1200,"x_min":0,"x_max":0,"o":"m 203 0 l 432 0 l 592 432 l 739 0 l 964 0 l 1206 806 l 961 806 l 828 314 l 674 806 l 513 806 l 350 311 l 240 806 l -6 806 z m 526 900 l 699 900 l 538 1172 l 293 1172 z "},"ẋ":{"ha":885,"x_min":0,"x_max":0,"o":"m 1 0 l 299 0 l 446 228 l 593 0 l 882 0 l 594 421 l 864 806 l 578 806 l 446 601 l 315 806 l 29 806 l 299 419 z m 444 890 b 582 1022 543 890 582 919 b 444 1156 582 1128 542 1156 b 307 1022 347 1156 307 1128 b 444 890 307 914 339 890 z "},"ý":{"ha":832,"x_min":0,"x_max":0,"o":"m 29 -306 l 154 -306 b 517 -42 375 -306 429 -265 l 847 806 l 593 806 l 424 329 l 251 806 l -10 806 l 300 36 l 289 7 b 131 -92 257 -71 228 -92 l 29 -92 z m 317 893 l 497 893 l 736 1164 l 493 1164 z "},"ŷ":{"ha":832,"x_min":0,"x_max":0,"o":"m 29 -306 l 154 -306 b 517 -42 375 -306 429 -265 l 847 806 l 593 806 l 424 329 l 251 806 l -10 806 l 300 36 l 289 7 b 131 -92 257 -71 228 -92 l 29 -92 z m 151 893 l 335 893 l 418 1039 l 503 893 l 688 893 l 500 1182 l 339 1182 z "},"ÿ":{"ha":832,"x_min":0,"x_max":0,"o":"m 29 -306 l 154 -306 b 517 -42 375 -306 429 -265 l 847 806 l 593 806 l 424 329 l 251 806 l -10 806 l 300 36 l 289 7 b 131 -92 257 -71 228 -92 l 29 -92 z m 278 889 b 393 1003 361 889 393 918 b 278 1118 393 1090 358 1118 b 164 1003 197 1118 164 1090 b 278 889 164 915 190 889 z m 565 889 b 681 1003 647 889 681 918 b 565 1118 681 1090 646 1118 b 451 1003 483 1118 451 1090 b 565 889 451 915 476 889 z "},"ỵ":{"ha":832,"x_min":0,"x_max":0,"o":"m 29 -306 l 154 -306 b 517 -42 375 -306 429 -265 l 847 806 l 593 806 l 424 329 l 251 806 l -10 806 l 300 36 l 289 7 b 131 -92 257 -71 228 -92 l 29 -92 z m 650 -307 b 768 -175 731 -307 769 -278 b 650 -42 769 -69 729 -42 b 533 -174 574 -42 533 -69 b 650 -307 533 -282 565 -307 z "},"ỳ":{"ha":832,"x_min":0,"x_max":0,"o":"m 29 -306 l 154 -306 b 517 -42 375 -306 429 -265 l 847 806 l 593 806 l 424 329 l 251 806 l -10 806 l 300 36 l 289 7 b 131 -92 257 -71 228 -92 l 29 -92 z m 353 893 l 525 893 l 364 1165 l 119 1165 z "},"ỷ":{"ha":832,"x_min":0,"x_max":0,"o":"m 29 -306 l 154 -306 b 517 -42 375 -306 429 -265 l 847 806 l 593 806 l 424 329 l 251 806 l -10 806 l 300 36 l 289 7 b 131 -92 257 -71 228 -92 l 29 -92 z m 558 943 b 660 1085 639 979 660 1025 b 436 1243 660 1181 582 1243 b 203 1050 279 1243 203 1181 l 367 1050 b 431 1108 367 1092 388 1108 b 483 1075 464 1108 483 1099 b 428 1028 483 1053 474 1046 b 350 879 365 1001 350 963 l 515 879 b 558 943 515 914 522 928 z "},"ȳ":{"ha":832,"x_min":0,"x_max":0,"o":"m 29 -306 l 154 -306 b 517 -42 375 -306 429 -265 l 847 806 l 593 806 l 424 329 l 251 806 l -10 806 l 300 36 l 289 7 b 131 -92 257 -71 228 -92 l 29 -92 z m 207 903 l 639 903 l 639 1068 l 207 1068 z "},"ỹ":{"ha":832,"x_min":0,"x_max":0,"o":"m 29 -306 l 154 -306 b 517 -42 375 -306 429 -265 l 847 806 l 593 806 l 424 329 l 251 806 l -10 806 l 300 36 l 289 7 b 131 -92 257 -71 228 -92 l 29 -92 z m 122 893 l 271 893 b 315 965 272 943 283 965 b 543 886 379 965 435 886 b 721 1132 676 886 721 965 l 569 1132 b 524 1063 571 1081 560 1063 b 299 1139 468 1063 404 1139 b 122 893 168 1139 122 1056 z "},"ź":{"ha":786,"x_min":0,"x_max":0,"o":"m 33 0 l 751 0 l 751 211 l 361 211 l 749 606 l 749 806 l 57 806 l 57 597 l 438 597 l 33 189 z m 300 900 l 481 900 l 719 1171 l 476 1171 z "},"ž":{"ha":786,"x_min":0,"x_max":0,"o":"m 33 0 l 751 0 l 751 211 l 361 211 l 749 606 l 749 806 l 57 806 l 57 597 l 438 597 l 33 189 z m 321 900 l 482 900 l 668 1189 l 488 1189 l 401 1044 l 318 1189 l 133 1189 z "},"ż":{"ha":786,"x_min":0,"x_max":0,"o":"m 33 0 l 751 0 l 751 211 l 361 211 l 749 606 l 749 806 l 57 806 l 57 597 l 438 597 l 33 189 z m 403 896 b 540 1028 501 896 540 925 b 403 1161 540 1133 500 1161 b 265 1028 306 1161 265 1133 b 403 896 265 919 297 896 z "},"ƶ":{"ha":786,"x_min":0,"x_max":0,"o":"m 33 0 l 751 0 l 751 211 l 361 211 l 474 326 l 708 326 l 708 476 l 621 476 l 749 606 l 749 806 l 57 806 l 57 597 l 438 597 l 328 486 l 100 486 l 100 336 l 179 336 l 33 189 z "},"þ":{"ha":908,"x_min":0,"x_max":0,"o":"m 71 -275 l 319 -275 l 319 121 b 551 -19 360 35 438 -19 b 869 394 743 -18 869 121 l 869 425 b 556 822 869 697 738 821 b 319 674 443 822 361 768 l 319 1047 l 71 1047 z m 468 199 b 317 397 376 199 317 265 l 317 424 b 471 613 317 542 379 613 b 618 421 558 613 618 549 l 618 396 b 468 199 618 258 561 199 z "},"ə":{"ha":893,"x_min":0,"x_max":0,"o":"m 449 822 b 44 546 214 822 89 714 l 313 546 b 440 624 331 593 369 624 b 606 474 538 624 593 571 l 39 474 l 39 382 b 443 -21 39 165 160 -21 b 858 394 694 -21 858 135 l 858 419 b 449 822 858 668 726 822 z m 442 172 b 289 313 347 172 300 224 l 604 313 b 442 172 589 221 535 172 z "},"ɣ":{"ha":828,"x_min":0,"x_max":0,"o":"m 410 -349 b 650 -144 571 -349 650 -256 b 565 101 650 -60 615 4 l 833 807 l 574 807 l 411 304 l 253 807 l -6 807 l 253 108 b 168 -144 197 1 168 -65 b 410 -349 168 -250 244 -349 z m 371 -129 b 408 -28 371 -107 381 -82 b 449 -129 436 -81 449 -104 b 410 -174 449 -157 433 -174 b 371 -129 383 -174 371 -156 z "},"ɛ":{"ha":853,"x_min":0,"x_max":0,"o":"m 815 515 b 406 822 801 694 678 822 b 47 589 153 822 47 725 b 183 414 47 506 89 444 b 32 238 82 390 32 336 b 414 -19 32 88 142 -19 b 821 294 707 -19 811 113 l 568 294 b 418 181 560 215 515 181 b 290 256 322 181 290 214 b 399 325 290 301 315 325 l 514 325 l 514 486 l 400 486 b 297 551 321 486 297 511 b 414 626 297 596 332 626 b 564 515 507 626 551 585 z "},"ﬁ":{"ha":990,"x_min":0,"x_max":0,"o":"m 11 758 l 11 539 l 139 539 l 139 0 l 382 0 l 382 539 l 553 539 l 553 758 l 383 758 l 383 771 b 476 883 383 864 399 883 l 554 883 l 554 1090 l 439 1090 b 139 804 228 1090 139 1010 l 139 758 z m 792 853 b 943 976 894 853 943 886 b 792 1104 943 1072 892 1104 b 640 976 690 1104 640 1072 b 792 853 640 883 681 853 z m 660 1 l 922 1 l 922 803 b 792 786 890 793 849 786 b 660 801 732 786 689 792 z "},"ﬂ":{"ha":989,"x_min":0,"x_max":0,"o":"m 11 758 l 11 539 l 139 539 l 139 0 l 382 0 l 382 539 l 553 539 l 553 758 l 383 758 l 383 771 b 476 883 383 864 399 883 l 554 883 l 554 1090 l 439 1090 b 139 804 228 1090 139 1010 l 139 758 z m 663 1047 l 663 0 l 917 0 l 917 1047 z "},"ª":{"ha":628,"x_min":0,"x_max":0,"o":"m 214 433 b 404 514 299 433 363 464 l 419 447 l 581 447 l 581 799 b 324 1015 581 928 506 1015 b 43 800 146 1015 53 929 l 250 800 b 324 869 253 846 275 869 b 390 824 372 869 390 850 b 285 769 390 789 364 779 b 101 721 193 757 146 746 b 24 583 56 693 24 649 b 214 433 24 489 88 433 z m 293 565 b 243 610 263 565 243 581 b 265 650 243 626 251 640 b 325 669 278 658 296 664 b 390 686 351 675 374 679 l 390 669 b 293 565 390 624 364 565 z "},"º":{"ha":639,"x_min":0,"x_max":0,"o":"m 319 436 b 601 713 489 436 601 529 l 601 731 b 319 1015 601 917 486 1015 b 35 731 156 1015 35 919 l 35 713 b 319 436 35 529 138 436 z m 319 611 b 238 717 261 611 238 644 l 238 731 b 319 843 238 810 265 843 b 400 731 375 843 400 810 l 400 717 b 319 611 400 643 376 611 z "},"&":{"ha":1103,"x_min":0,"x_max":0,"o":"m 394 -19 b 685 57 499 -19 596 8 b 918 -18 761 8 840 -18 b 1086 36 1003 -18 1054 4 l 1086 231 b 951 178 1050 199 1014 178 b 863 196 922 178 893 183 b 1022 429 928 264 982 343 b 1089 614 1053 488 1074 549 l 874 614 b 843 528 864 583 854 557 b 704 311 811 447 763 372 b 622 407 676 339 650 371 b 569 479 603 431 586 454 b 842 779 763 557 842 639 b 561 1015 842 917 735 1015 b 264 721 397 1015 264 915 b 293 561 264 672 275 618 b 26 260 150 508 26 433 b 394 -19 26 69 174 -19 z m 474 729 b 567 840 474 801 513 840 b 642 767 614 840 642 808 b 492 636 642 704 589 671 b 474 729 481 671 474 701 z m 276 288 b 371 397 276 340 310 369 b 438 299 392 364 413 331 b 522 196 465 261 493 228 b 418 181 489 186 454 181 b 276 288 324 181 276 213 z "},"´":{"ha":736,"x_min":0,"x_max":0,"o":"m 200 913 l 381 913 l 619 1183 l 376 1183 z "},"˘":{"ha":736,"x_min":0,"x_max":0,"o":"m 365 910 b 636 1188 550 910 636 1007 l 472 1188 b 365 1063 472 1101 440 1064 b 258 1188 289 1064 258 1101 l 97 1188 b 365 910 97 1007 167 910 z "},"ˇ":{"ha":736,"x_min":0,"x_max":0,"o":"m 288 913 l 449 913 l 635 1201 l 454 1201 l 368 1057 l 285 1201 l 100 1201 z "},"¸":{"ha":736,"x_min":0,"x_max":0,"o":"m 372 -408 b 628 -219 535 -408 628 -336 b 440 -65 628 -118 561 -71 l 440 13 l 281 13 l 281 -174 l 374 -174 b 457 -221 435 -174 457 -190 b 375 -275 457 -254 431 -275 b 283 -215 322 -275 292 -256 l 89 -215 b 372 -408 115 -344 199 -408 z "},"ˆ":{"ha":736,"x_min":0,"x_max":0,"o":"m 100 913 l 283 913 l 367 1058 l 451 913 l 636 913 l 449 1201 l 288 1201 z "},"":{"ha":739,"x_min":0,"x_max":0,"o":"m 256 -332 l 254 -419 b 479 -201 410 -411 479 -329 b 358 -69 479 -103 449 -69 b 236 -171 271 -69 236 -99 b 339 -258 236 -246 267 -258 b 364 -257 347 -258 356 -258 b 256 -332 356 -304 322 -328 z "},"¨":{"ha":738,"x_min":0,"x_max":0,"o":"m 226 908 b 342 1022 310 908 342 938 b 226 1138 342 1110 307 1138 b 113 1022 146 1138 113 1110 b 226 908 113 935 139 908 z m 514 908 b 629 1022 596 908 629 938 b 514 1138 629 1110 594 1138 b 400 1022 432 1138 400 1110 b 514 908 400 935 425 908 z "},"˙":{"ha":739,"x_min":0,"x_max":0,"o":"m 361 908 b 499 1040 460 908 499 938 b 361 1174 499 1146 458 1174 b 224 1040 264 1174 224 1146 b 361 908 224 932 256 908 z "},"̣":{"ha":739,"x_min":0,"x_max":0,"o":"m 361 -362 b 499 -231 460 -362 499 -335 b 361 -99 499 -126 458 -99 b 224 -231 264 -99 224 -126 b 361 -362 224 -337 256 -362 z "},"̏":{"ha":736,"x_min":0,"x_max":0,"o":"m 250 913 l 399 913 l 249 1183 l 33 1183 z m 501 913 l 650 913 l 518 1183 l 308 1183 z "},"`":{"ha":736,"x_min":0,"x_max":0,"o":"m 367 913 l 539 913 l 378 1185 l 133 1185 z "},"˝":{"ha":736,"x_min":0,"x_max":0,"o":"m 214 1185 l 75 913 l 219 913 l 421 1185 z m 482 1185 l 333 913 l 482 913 l 693 1185 z "},"̑":{"ha":736,"x_min":0,"x_max":0,"o":"m 368 1186 b 96 913 189 1186 96 1081 l 261 913 b 368 1039 261 997 297 1038 b 476 913 440 1038 476 997 l 642 913 b 368 1186 643 1081 546 1186 z "},"¯":{"ha":736,"x_min":0,"x_max":0,"o":"m 153 922 l 585 922 l 585 1088 l 153 1088 z "},"˛":{"ha":736,"x_min":0,"x_max":0,"o":"m 356 -356 b 635 -151 506 -356 599 -287 l 435 -151 b 367 -211 426 -190 401 -211 b 310 -165 332 -211 310 -196 b 494 0 310 -128 335 -100 l 346 68 b 126 -181 164 -25 126 -100 b 356 -356 126 -292 207 -356 z "},"˚":{"ha":736,"x_min":0,"x_max":0,"o":"m 367 907 b 582 1099 500 907 582 981 b 367 1296 582 1225 496 1296 b 156 1099 244 1296 156 1225 b 367 907 156 975 235 907 z m 368 1044 b 308 1101 328 1044 308 1067 b 368 1158 308 1138 329 1158 b 428 1101 407 1158 428 1138 b 368 1044 428 1065 401 1044 z "},"˜":{"ha":736,"x_min":0,"x_max":0,"o":"m 74 913 l 222 913 b 267 985 224 963 235 985 b 494 906 331 985 386 906 b 672 1151 628 906 672 985 l 521 1151 b 475 1082 522 1100 511 1082 b 250 1158 419 1082 356 1158 b 74 913 119 1158 74 1075 z "},"΄":{"ha":633,"x_min":0,"x_max":0,"o":"m 194 913 l 365 913 l 493 1183 l 282 1183 z "},"΅":{"ha":733,"x_min":0,"x_max":0,"o":"m 225 889 b 336 996 303 889 336 918 b 225 1108 336 1081 303 1108 b 117 996 150 1108 117 1081 b 225 889 117 914 142 889 z m 506 889 b 615 996 583 889 615 918 b 506 1108 615 1081 582 1108 b 396 996 428 1108 396 1081 b 506 889 396 914 421 889 z m 276 1143 l 429 1143 l 549 1381 l 356 1381 z "},"῭":{"ha":733,"x_min":0,"x_max":0,"o":"m 225 889 b 336 996 303 889 336 918 b 225 1108 336 1081 303 1108 b 117 996 150 1108 117 1081 b 225 889 117 914 142 889 z m 506 889 b 615 996 583 889 615 918 b 506 1108 615 1081 582 1108 b 396 996 428 1108 396 1081 b 506 889 396 914 421 889 z m 456 1143 l 378 1379 l 182 1379 l 301 1143 z "},"΅":{"ha":847,"x_min":0,"x_max":0,"o":"m 300 913 l 456 913 l 574 1183 l 372 1183 z m 168 910 b 274 1024 244 910 274 939 b 168 1138 274 1108 244 1138 b 60 1022 90 1138 60 1110 b 168 910 60 939 90 910 z m 682 910 b 788 1024 758 910 788 939 b 682 1138 788 1108 758 1138 b 574 1022 604 1138 574 1110 b 682 910 574 939 604 910 z "},".":{"ha":446,"x_min":0,"x_max":0,"o":"m 222 -15 b 375 132 331 -15 375 17 b 222 279 375 250 331 279 b 71 132 114 279 71 250 b 222 -15 71 11 106 -15 z "},",":{"ha":449,"x_min":0,"x_max":0,"o":"m 100 -111 l 101 -226 b 376 78 289 -217 376 -108 b 226 267 376 224 339 267 b 74 125 115 267 74 236 b 199 -10 74 11 107 -10 b 225 -8 207 -10 217 -10 b 100 -111 215 -75 176 -104 z "},":":{"ha":450,"x_min":0,"x_max":0,"o":"m 224 507 b 376 650 338 507 376 535 b 225 797 376 771 336 797 b 75 650 114 797 75 771 b 224 507 75 532 107 507 z m 224 -12 b 376 131 338 -12 376 14 b 224 276 376 249 336 276 b 75 131 114 276 75 249 b 224 -12 75 11 107 -12 z "},";":{"ha":453,"x_min":0,"x_max":0,"o":"m 225 797 b 75 650 114 797 75 771 b 224 507 75 532 107 507 b 376 650 338 507 376 535 b 225 797 376 771 336 797 z m 229 267 b 76 125 118 267 76 236 b 200 -10 76 11 111 -10 b 229 -7 210 -10 219 -8 b 103 -112 219 -75 181 -104 l 106 -226 b 379 78 292 -217 379 -108 b 229 267 379 224 342 267 z "},"…":{"ha":1163,"x_min":0,"x_max":0,"o":"m 211 -14 b 344 128 315 -14 344 13 b 210 274 344 247 313 274 b 74 128 111 274 74 247 b 211 -14 74 8 107 -14 z m 583 -14 b 722 128 689 -14 722 13 b 583 274 722 247 686 274 b 447 128 485 274 447 247 b 583 -14 447 8 481 -14 z m 954 -14 b 1089 128 1058 -14 1089 13 b 954 274 1089 247 1056 274 b 817 128 854 274 817 247 b 954 -14 817 8 850 -14 z "},"!":{"ha":458,"x_min":0,"x_max":0,"o":"m 94 779 b 140 315 94 544 124 353 b 231 322 158 318 192 322 b 318 315 268 322 297 318 b 364 779 335 353 364 547 l 364 996 l 94 996 z m 75 124 b 226 -17 75 14 110 -17 b 379 124 336 -17 379 17 b 225 263 379 233 335 263 b 75 124 117 263 75 233 z "},"¡":{"ha":458,"x_min":0,"x_max":0,"o":"m 79 689 b 231 549 79 578 124 549 b 383 689 339 549 383 578 b 231 829 383 799 349 829 b 79 689 121 829 79 796 z m 90 33 l 90 -183 l 363 -183 l 363 33 b 317 497 363 268 335 460 b 228 490 300 493 264 490 b 139 497 188 490 160 493 b 90 33 122 460 90 265 z "},"?":{"ha":899,"x_min":0,"x_max":0,"o":"m 301 332 b 308 292 303 318 304 306 b 426 311 326 303 365 311 b 542 292 489 311 522 303 l 546 335 b 700 463 556 406 629 425 b 851 707 775 500 851 554 b 458 1014 851 871 729 1014 b 49 675 186 1014 49 894 l 49 632 l 306 632 l 306 661 b 454 797 306 744 346 797 b 589 693 547 797 589 754 b 464 576 589 625 531 603 b 300 376 388 544 300 504 b 301 332 300 361 300 346 z m 272 115 b 426 -15 272 14 308 -15 b 581 115 539 -15 581 15 b 426 250 581 219 536 250 b 272 115 317 250 272 219 z "},"¿":{"ha":899,"x_min":0,"x_max":0,"o":"m 503 554 b 656 689 613 554 656 586 b 503 821 656 792 622 821 b 350 689 392 821 350 790 b 503 554 350 586 393 554 z m 471 -208 b 882 131 743 -208 882 -89 l 882 174 l 622 174 l 622 144 b 476 8 622 61 582 8 b 339 113 383 8 339 51 b 465 229 339 181 400 203 b 628 429 543 261 628 301 b 625 468 628 442 628 454 b 622 513 625 486 624 503 b 503 494 604 503 565 494 b 386 513 442 494 406 503 l 382 471 b 229 343 372 400 301 381 b 78 99 156 306 78 251 b 471 -208 78 -65 200 -208 z "},"‽":{"ha":899,"x_min":0,"x_max":0,"o":"m 363 400 b 374 301 365 351 368 321 b 456 310 392 307 417 310 b 533 301 493 310 514 307 l 542 350 b 675 467 547 415 610 438 b 851 713 760 504 851 553 l 851 714 b 454 1014 851 883 733 1014 b 49 668 175 1014 49 881 l 49 635 l 278 635 l 278 658 b 358 814 278 738 301 790 l 358 743 b 363 400 358 567 360 464 z m 539 743 l 539 819 b 624 704 599 801 624 761 l 624 703 b 560 600 624 649 596 624 b 533 583 550 593 542 589 b 539 743 536 633 539 688 z m 303 115 b 454 -15 303 14 338 -15 b 610 115 568 -15 610 15 b 456 250 610 219 565 250 b 303 115 346 250 303 219 z "},"‘":{"ha":400,"x_min":0,"x_max":0,"o":"m 75 733 b 204 567 75 604 107 567 b 331 689 296 567 331 593 b 222 808 331 790 300 808 b 206 807 217 808 211 807 b 308 903 214 869 244 899 l 301 1004 b 75 733 147 996 75 900 z "},"’":{"ha":399,"x_min":0,"x_max":0,"o":"m 94 668 l 100 567 b 326 839 256 576 326 671 b 200 1004 326 968 296 1004 b 74 881 107 1004 74 976 b 181 764 74 781 101 764 l 197 764 b 94 668 188 700 157 671 z "},"“":{"ha":731,"x_min":0,"x_max":0,"o":"m 75 733 b 204 567 75 604 107 567 b 331 690 296 567 331 594 b 222 808 331 790 300 808 b 206 807 217 808 211 807 b 308 903 214 868 244 899 l 301 1004 b 75 733 147 996 75 900 z m 406 733 b 533 567 406 604 438 567 b 660 690 626 567 660 594 b 553 808 660 790 632 808 b 535 807 546 808 540 807 b 636 903 543 868 574 899 l 632 1004 b 406 733 476 996 406 900 z "},"”":{"ha":731,"x_min":0,"x_max":0,"o":"m 94 668 l 100 567 b 326 839 256 576 326 671 b 199 1004 326 968 293 1004 b 72 881 106 1004 72 976 b 181 764 72 781 101 764 l 196 764 b 94 668 189 700 157 672 z m 424 668 l 431 567 b 657 839 586 576 657 671 b 529 1004 657 968 625 1004 b 401 881 436 1004 401 976 b 508 764 401 781 429 764 l 526 764 b 424 668 518 700 488 671 z "},"‚":{"ha":417,"x_min":0,"x_max":0,"o":"m 100 -99 l 107 -200 b 335 69 263 -192 335 -96 b 207 238 335 200 303 238 b 81 114 113 238 81 210 b 188 -3 81 14 108 -3 b 204 -1 193 -3 199 -3 b 100 -99 197 -65 165 -96 z "},"„":{"ha":744,"x_min":0,"x_max":0,"o":"m 94 -99 l 100 -200 b 326 69 256 -192 326 -96 b 199 238 326 200 293 238 b 72 114 106 238 72 210 b 181 -3 72 14 101 -3 b 196 -1 186 -3 192 -3 b 94 -99 189 -65 158 -96 z m 438 -99 l 444 -200 b 671 69 600 -192 671 -96 b 543 238 671 200 639 238 b 415 114 450 238 415 210 b 524 -3 415 14 444 -3 b 539 -1 529 -3 533 -3 b 438 -99 532 -65 503 -96 z "},"‛":{"ha":399,"x_min":0,"x_max":0,"o":"m 74 839 b 301 567 74 671 146 576 l 307 668 b 203 764 243 672 211 701 l 219 764 b 326 879 300 764 326 781 b 201 1003 326 976 294 1003 b 74 839 106 1003 74 961 z "},"‟":{"ha":744,"x_min":0,"x_max":0,"o":"m 72 839 b 299 567 72 671 143 576 l 303 668 b 201 764 240 672 210 701 l 218 764 b 326 879 296 764 326 781 b 200 1003 326 976 293 1003 b 72 839 104 1003 72 961 z m 415 839 b 642 567 415 671 486 576 l 649 668 b 546 764 583 671 553 701 l 563 764 b 671 879 642 764 671 781 b 543 1003 671 976 636 1003 b 415 839 447 1003 415 961 z "},"‹":{"ha":561,"x_min":0,"x_max":0,"o":"m 285 132 l 525 132 l 296 428 l 504 717 l 274 717 l 74 431 l 74 407 z "},"›":{"ha":561,"x_min":0,"x_max":0,"o":"m 489 407 l 489 431 l 286 717 l 57 717 l 265 428 l 35 132 l 278 132 z "},"«":{"ha":903,"x_min":0,"x_max":0,"o":"m 285 132 l 510 132 l 285 425 l 497 717 l 282 717 l 74 429 l 74 407 z m 643 132 l 867 132 l 632 432 l 840 717 l 626 717 l 424 436 l 424 410 z "},"»":{"ha":903,"x_min":0,"x_max":0,"o":"m 39 132 l 263 132 l 482 410 l 482 436 l 279 717 l 64 717 l 272 432 z m 394 132 l 619 132 l 832 407 l 832 429 l 624 717 l 408 717 l 619 425 z "},"/":{"ha":567,"x_min":0,"x_max":0,"o":"m 290 996 l -3 0 l 276 0 l 571 996 z "},"\\":{"ha":567,"x_min":0,"x_max":0,"o":"m -3 996 l 296 0 l 571 0 l 271 996 z "},"|":{"ha":422,"x_min":0,"x_max":0,"o":"m 85 1078 l 85 -78 l 338 -78 l 338 1078 z "},"‖":{"ha":790,"x_min":0,"x_max":0,"o":"m 85 1078 l 85 -71 l 324 -71 l 324 1078 z m 468 1078 l 468 -71 l 706 -71 l 706 1078 z "},"¦":{"ha":422,"x_min":0,"x_max":0,"o":"m 85 1078 l 85 564 l 338 564 l 338 1078 z m 85 460 l 85 -78 l 338 -78 l 338 460 z "},"•":{"ha":540,"x_min":0,"x_max":0,"o":"m 271 232 b 442 401 388 232 442 278 b 271 571 442 531 386 571 b 101 401 154 571 101 525 b 271 232 101 276 147 232 z "},"​":{"ha":0,"x_min":0,"x_max":0,"o":""},"·":{"ha":446,"x_min":0,"x_max":0,"o":"m 221 271 b 375 418 332 271 375 303 b 221 565 375 536 331 565 b 71 418 114 565 71 536 b 221 271 71 297 106 271 z "},"-":{"ha":636,"x_min":0,"x_max":0,"o":"m 581 543 l 57 543 l 57 300 l 581 300 z "},"­":{"ha":636,"x_min":0,"x_max":0,"o":"m 581 543 l 57 543 l 57 300 l 581 300 z "},"–":{"ha":881,"x_min":0,"x_max":0,"o":"m 824 543 l 57 543 l 57 300 l 824 300 z "},"—":{"ha":1311,"x_min":0,"x_max":0,"o":"m 1254 543 l 57 543 l 57 300 l 1254 300 z "},"‒":{"ha":876,"x_min":0,"x_max":0,"o":"m 821 543 l 57 543 l 57 300 l 821 300 z "},"―":{"ha":807,"x_min":0,"x_max":0,"o":"m 751 543 l 57 543 l 57 299 l 751 299 z "},"(":{"ha":571,"x_min":0,"x_max":0,"o":"m 549 -231 l 549 7 b 321 368 403 13 321 122 l 321 439 b 549 808 321 690 401 799 l 549 1040 b 54 450 257 1031 54 847 l 54 346 b 549 -231 54 -53 247 -222 z "},")":{"ha":571,"x_min":0,"x_max":0,"o":"m 21 -231 b 517 346 324 -222 517 -53 l 517 450 b 21 1040 517 847 314 1031 l 21 807 b 250 439 169 799 250 689 l 250 368 b 21 7 250 122 168 13 z "},"[":{"ha":556,"x_min":0,"x_max":0,"o":"m 76 -231 l 531 -231 l 531 -31 l 329 -31 l 329 839 l 531 839 l 531 1039 l 76 1039 z "},"]":{"ha":556,"x_min":0,"x_max":0,"o":"m 26 -231 l 481 -231 l 481 1038 l 26 1038 l 26 839 l 228 839 l 228 -31 l 26 -31 z "},"{":{"ha":603,"x_min":0,"x_max":0,"o":"m 125 -46 b 351 -229 125 -144 176 -229 l 581 -229 l 581 -36 l 501 -36 b 396 39 429 -36 396 -12 b 482 261 396 90 482 176 b 296 397 482 333 436 399 l 296 422 b 478 557 438 422 478 483 b 392 769 478 640 392 719 b 500 844 392 821 428 844 l 581 844 l 581 1039 l 354 1039 b 128 854 176 1039 128 953 b 217 599 128 750 217 658 b 126 522 217 546 192 522 l 32 522 l 32 299 l 136 299 b 229 219 200 299 229 272 b 125 -46 229 161 125 58 z "},"}":{"ha":603,"x_min":0,"x_max":0,"o":"m 478 -46 b 374 219 478 58 374 161 b 467 299 374 271 403 299 l 571 299 l 571 522 l 476 522 b 386 599 411 522 386 547 b 475 853 386 658 475 750 b 249 1039 475 953 425 1039 l 22 1039 l 22 844 l 103 844 b 211 768 175 844 211 821 b 124 557 211 719 124 640 b 306 422 124 483 165 422 l 306 397 b 119 261 167 399 119 333 b 207 39 119 178 207 90 b 101 -36 207 -14 172 -36 l 22 -36 l 22 -231 l 251 -231 b 478 -46 426 -231 478 -144 z "},"〈":{"ha":525,"x_min":0,"x_max":0,"o":"m 272 -231 l 544 -231 l 288 415 l 535 1039 l 274 1039 l 25 411 z "},"〉":{"ha":525,"x_min":0,"x_max":0,"o":"m -19 -231 l 253 -231 l 500 411 l 254 1039 l -8 1039 l 238 415 z "},"*":{"ha":694,"x_min":0,"x_max":0,"o":"m 249 511 l 447 511 l 385 743 l 554 576 l 653 746 l 421 808 l 653 871 l 553 1042 l 385 872 l 447 1103 l 249 1103 l 310 874 l 142 1039 l 42 869 l 272 807 l 42 744 l 142 575 l 310 742 z "},"⁑":{"ha":610,"x_min":0,"x_max":0,"o":"m 219 526 l 390 526 l 338 713 l 482 578 l 567 715 l 368 767 l 567 818 l 481 956 l 336 818 l 390 1007 l 219 1007 l 272 819 l 128 954 l 44 817 l 243 765 l 44 715 l 128 576 l 271 711 z m 126 35 l 271 169 l 219 -15 l 390 -15 l 338 171 l 482 36 l 567 174 l 367 224 l 567 276 l 481 414 l 338 278 l 390 465 l 219 465 l 272 276 l 126 411 l 44 275 l 240 224 l 44 172 z "},"⁂":{"ha":1160,"x_min":0,"x_max":0,"o":"m 406 576 l 546 711 l 497 526 l 664 526 l 611 715 l 756 578 l 838 715 l 643 767 l 838 818 l 754 956 l 610 817 l 664 1007 l 497 1007 l 546 822 l 406 954 l 324 817 l 519 765 l 324 715 z m 117 35 l 257 169 l 207 -15 l 374 -15 l 322 169 l 465 36 l 549 174 l 351 224 l 549 276 l 464 414 l 322 276 l 374 465 l 207 465 l 258 276 l 117 411 l 32 275 l 226 224 l 32 172 z m 694 35 l 836 169 l 785 -17 l 950 -17 l 900 171 l 1043 36 l 1126 174 l 929 224 l 1126 276 l 1042 414 l 900 278 l 950 465 l 785 465 l 836 276 l 694 411 l 610 275 l 804 224 l 611 172 z "},"†":{"ha":829,"x_min":0,"x_max":0,"o":"m 57 851 l 57 607 l 289 607 l 289 -131 l 540 -131 l 540 607 l 774 607 l 774 851 l 540 851 l 540 1139 l 289 1139 l 289 851 z "},"‡":{"ha":829,"x_min":0,"x_max":0,"o":"m 57 382 l 57 144 l 289 144 l 289 -131 l 540 -131 l 540 144 l 774 144 l 774 382 l 540 382 l 540 628 l 774 628 l 774 865 l 540 865 l 540 1139 l 289 1139 l 289 865 l 57 865 l 57 628 l 289 628 l 289 382 z "},"§":{"ha":982,"x_min":0,"x_max":0,"o":"m 500 -165 b 882 118 751 -165 882 -43 b 781 308 882 208 843 267 b 965 504 894 328 964 406 b 647 754 965 654 843 714 b 376 868 499 786 376 803 b 486 943 376 911 408 943 b 625 840 574 943 615 907 l 869 840 b 490 1124 853 1013 740 1124 b 133 858 258 1124 133 1011 b 222 674 133 774 167 715 b 19 471 96 658 19 575 b 339 222 19 324 131 267 b 639 107 514 185 639 179 b 511 25 639 57 596 25 b 353 146 414 25 365 63 l 100 146 b 500 -165 117 -51 236 -165 z m 544 394 b 268 529 369 436 268 461 b 363 607 268 571 293 603 b 442 588 388 600 414 593 b 725 456 594 553 725 535 b 632 372 725 411 699 378 b 544 394 604 381 575 388 z "},"¶":{"ha":1088,"x_min":0,"x_max":0,"o":"m 788 0 l 1014 0 l 1014 996 l 435 996 b 29 650 158 996 29 860 b 431 299 29 432 154 297 l 467 299 l 467 0 l 693 0 l 693 786 l 788 786 z m 436 510 b 285 649 340 511 285 556 b 439 786 285 735 339 786 l 467 786 l 467 510 z "},"^":{"ha":792,"x_min":0,"x_max":0,"o":"m 97 567 l 294 567 l 394 806 l 494 567 l 694 567 l 483 996 l 308 996 z "},"~":{"ha":792,"x_min":0,"x_max":0,"o":"m 96 635 l 246 635 b 289 708 246 686 257 708 b 518 629 354 708 410 629 b 696 875 650 629 696 706 l 546 875 b 497 804 544 821 533 804 b 272 882 442 804 378 882 b 96 635 142 882 96 796 z "},"_":{"ha":892,"x_min":0,"x_max":0,"o":"m 28 224 l 28 0 l 863 0 l 863 224 z "},"＿":{"ha":939,"x_min":0,"x_max":0,"o":"m 51 224 l 51 0 l 886 0 l 886 224 z "},"'":{"ha":332,"x_min":0,"x_max":0,"o":"m 85 635 l 246 635 b 279 971 258 672 279 825 l 279 996 l 53 996 l 53 971 b 85 635 53 825 69 672 z "},"\"":{"ha":647,"x_min":0,"x_max":0,"o":"m 85 635 l 246 635 b 279 971 258 672 279 825 l 279 996 l 53 996 l 53 971 b 85 635 53 825 69 672 z m 403 635 l 564 635 b 596 971 576 672 596 825 l 596 996 l 371 996 l 371 971 b 403 635 371 825 389 672 z "},"‴":{"ha":956,"x_min":0,"x_max":0,"o":"m 85 635 l 242 635 b 276 971 254 672 276 825 l 276 996 l 53 996 l 53 971 b 85 635 53 825 71 672 z m 400 635 l 557 635 b 590 971 569 672 590 825 l 590 996 l 367 996 l 367 971 b 400 635 367 825 386 672 z m 714 635 l 871 635 b 906 971 882 672 906 825 l 906 996 l 682 996 l 682 971 b 714 635 682 825 700 672 z "},"@":{"ha":1054,"x_min":0,"x_max":0,"o":"m 528 -156 b 938 63 715 -156 861 -76 l 750 86 b 528 -3 701 29 646 -3 b 194 378 306 -3 194 128 l 194 449 b 539 829 194 710 322 829 b 865 493 792 829 865 696 l 865 490 b 806 267 865 303 842 267 b 763 374 772 267 763 286 l 763 694 l 657 694 l 624 611 b 483 704 603 661 554 704 b 285 443 368 704 285 626 l 285 381 b 476 119 285 204 350 119 b 626 211 557 119 604 160 b 797 125 654 154 710 125 b 1019 493 950 125 1019 232 l 1019 497 b 540 985 1019 785 864 985 b 40 468 244 985 40 804 l 40 358 b 528 -156 40 3 235 -156 z m 525 267 b 453 388 471 267 453 303 l 453 438 b 526 560 453 524 475 560 b 596 442 576 560 596 528 l 596 381 b 525 267 596 299 578 267 z "},"©":{"ha":1061,"x_min":0,"x_max":0,"o":"m 536 -21 b 1022 463 804 -21 1022 149 l 1022 522 b 532 1014 1022 829 810 1014 b 43 518 260 1014 43 828 l 43 463 b 536 -21 43 129 258 -21 z m 536 135 b 200 474 331 135 200 249 l 200 504 b 532 857 200 726 333 857 b 864 510 738 857 864 735 l 864 474 b 536 135 864 253 739 135 z m 535 204 b 790 454 686 204 779 286 l 790 457 l 618 457 b 536 357 614 382 586 357 b 450 486 481 357 450 399 l 450 500 b 538 636 450 597 486 636 b 619 539 586 636 614 614 l 789 539 l 789 540 b 536 789 776 707 692 789 b 279 500 381 789 279 688 l 279 483 b 535 204 279 301 371 204 z "},"®":{"ha":660,"x_min":0,"x_max":0,"o":"m 333 440 b 599 703 482 440 599 532 l 599 739 b 329 1008 599 910 482 1008 b 58 735 176 1008 58 908 l 58 703 b 333 440 58 524 176 440 z m 333 524 b 150 710 217 524 150 581 l 150 728 b 329 926 150 856 218 926 b 511 732 442 926 511 858 l 511 710 b 333 524 511 582 446 524 z m 221 578 l 301 578 l 301 668 l 326 668 b 365 628 361 668 365 661 l 365 596 b 371 578 365 589 367 581 l 453 578 b 447 594 449 581 447 588 l 447 631 b 411 703 447 669 436 692 b 458 778 442 717 458 740 b 340 874 458 839 424 874 l 221 874 z m 326 804 b 378 772 364 804 378 797 b 325 736 378 746 363 736 l 301 736 l 301 804 z "},"℗":{"ha":847,"x_min":0,"x_max":0,"o":"m 425 210 b 806 583 633 210 806 340 l 806 631 b 422 1008 806 867 640 1008 b 42 625 211 1008 42 865 l 42 582 b 425 210 42 325 211 210 z m 425 339 b 181 593 274 339 181 424 l 181 614 b 422 876 181 781 275 876 b 668 619 575 876 668 786 l 668 593 b 425 339 668 426 574 339 z m 444 511 b 610 667 554 510 610 560 b 442 814 610 751 561 814 l 275 814 l 275 401 l 401 401 l 401 511 z m 428 708 b 479 665 465 708 479 696 b 428 621 479 633 463 621 l 401 621 l 401 708 z "},"™":{"ha":889,"x_min":0,"x_max":0,"o":"m 400 996 l 400 574 l 525 574 l 525 793 l 613 672 l 626 672 l 713 794 l 713 574 l 836 574 l 836 994 l 721 994 l 619 849 l 517 996 z m 24 996 l 24 867 l 115 867 l 115 574 l 251 574 l 251 867 l 344 867 l 344 996 z "},"℠":{"ha":915,"x_min":0,"x_max":0,"o":"m 199 560 b 374 704 308 560 374 614 b 240 840 374 789 315 825 b 156 879 185 851 156 854 b 194 908 156 896 169 908 b 239 868 226 908 238 897 l 367 868 b 194 1008 365 960 306 1008 b 29 876 82 1008 29 956 b 160 743 29 789 85 757 b 246 703 219 732 246 726 b 203 668 246 682 231 668 b 151 719 168 668 153 683 l 151 721 l 17 719 b 199 560 18 618 71 560 z m 428 574 l 551 574 l 551 794 l 639 672 l 653 672 l 739 794 l 739 574 l 861 574 l 861 994 l 747 994 l 646 849 l 543 996 l 428 996 z "},"¤":{"ha":1103,"x_min":0,"x_max":0,"o":"m 235 15 l 389 174 b 556 140 438 151 493 140 b 732 181 622 140 682 154 l 883 28 l 1033 181 l 881 335 b 915 500 903 383 915 439 b 878 672 915 564 901 622 l 1036 835 l 881 983 l 724 824 b 557 860 675 847 618 860 b 386 824 493 860 436 847 l 228 982 l 79 825 l 233 672 b 196 500 208 622 196 564 b 232 325 196 435 208 376 l 75 165 z m 557 336 b 401 500 461 336 401 408 b 557 664 401 596 461 664 b 710 500 651 664 710 593 b 557 336 710 408 651 336 z "},"€":{"ha":958,"x_min":0,"x_max":0,"o":"m 21 339 l 129 339 b 549 -21 160 96 301 -21 b 954 289 754 -21 908 74 l 686 289 b 546 197 663 229 624 197 b 374 339 451 197 396 240 l 697 339 l 744 464 l 363 464 l 363 533 l 772 533 l 821 658 l 375 658 b 542 799 397 750 451 797 b 678 719 624 799 658 769 l 944 719 b 547 1015 904 922 758 1015 b 131 658 314 1015 165 893 l 21 658 l 21 533 l 124 533 l 124 464 l 21 464 z "},"$":{"ha":846,"x_min":0,"x_max":0,"o":"m 308 1181 l 308 1007 b 43 713 139 974 43 857 b 354 415 43 496 210 449 b 565 292 464 390 564 374 b 436 194 565 235 524 194 b 285 339 329 194 288 249 l 285 344 l 21 344 l 21 343 b 306 -11 24 144 107 22 l 306 -172 l 547 -172 l 547 -10 b 822 304 721 24 822 139 b 504 611 821 524 650 576 b 300 726 396 635 300 653 b 414 815 300 772 329 815 b 547 692 507 815 543 776 l 547 690 l 801 690 l 801 693 b 550 1003 799 860 711 967 l 550 1181 z "},"¢":{"ha":885,"x_min":0,"x_max":0,"o":"m 325 -172 l 567 -172 l 567 -8 b 850 340 733 25 842 133 l 850 347 l 588 347 l 588 344 b 446 196 579 243 529 196 b 296 386 354 196 296 263 l 296 408 b 447 608 296 543 354 608 b 586 467 531 608 578 565 l 586 461 l 849 461 l 849 465 b 568 810 840 664 733 775 l 568 964 l 328 964 l 328 810 b 39 407 154 768 39 633 l 39 383 b 325 -8 39 160 140 29 z "},"£":{"ha":910,"x_min":0,"x_max":0,"o":"m 211 -19 b 400 61 289 -19 353 11 b 647 -21 468 18 550 -21 b 894 261 828 -21 894 49 l 894 297 l 656 297 l 656 279 b 575 156 656 192 638 156 b 469 186 539 156 504 168 b 485 289 479 218 485 253 b 469 401 485 331 478 367 l 643 401 l 643 550 l 421 550 b 378 704 397 607 378 657 b 471 797 378 767 410 797 b 569 703 535 797 563 761 l 825 704 b 468 1014 801 897 697 1014 b 132 726 246 1014 132 899 b 186 550 132 653 157 597 l 65 550 l 65 401 l 269 401 b 335 263 303 357 335 314 l 333 261 b 199 296 293 281 249 296 b 14 136 83 296 14 229 b 211 -19 14 40 68 -19 z m 165 139 b 203 171 165 157 175 171 b 289 135 228 171 256 156 b 211 107 269 117 243 107 b 165 139 182 107 165 121 z "},"ƒ":{"ha":594,"x_min":0,"x_max":0,"o":"m 0 -47 l 0 -261 l 108 -261 b 414 29 342 -261 414 -192 l 414 361 l 579 361 l 579 579 l 415 579 l 415 788 b 507 903 415 883 431 903 l 581 903 l 581 1108 l 471 1108 b 169 821 261 1108 169 1028 l 169 579 l 14 579 l 14 361 l 169 361 l 171 64 b 74 -47 171 -32 154 -47 z "},"¥":{"ha":876,"x_min":0,"x_max":0,"o":"m 113 290 l 113 133 l 303 133 l 303 0 l 567 0 l 567 133 l 758 133 l 758 290 l 567 290 l 567 367 l 760 367 l 760 526 l 578 526 l 882 996 l 613 996 l 438 713 l 264 996 l -6 996 l 290 526 l 114 526 l 114 367 l 303 367 l 303 290 z "},"₡":{"ha":947,"x_min":0,"x_max":0,"o":"m 132 -153 l 271 -153 l 311 3 b 369 -11 331 -3 350 -8 l 333 -153 l 472 -153 l 507 -18 b 915 390 756 -8 900 121 l 915 415 l 643 415 l 643 397 b 478 213 635 279 588 213 b 307 453 360 213 307 293 l 307 539 b 479 790 307 706 358 790 b 643 613 590 790 636 728 l 643 597 l 911 597 l 911 628 b 757 942 903 774 849 878 l 808 1129 l 669 1129 l 635 996 b 575 1008 615 1001 596 1006 l 607 1129 l 468 1129 l 438 1014 b 46 556 196 999 46 846 l 46 436 b 189 65 46 263 96 139 z "},"₢":{"ha":943,"x_min":0,"x_max":0,"o":"m 489 -21 b 917 335 761 -21 883 113 l 686 335 b 575 182 669 251 642 201 l 575 279 b 706 411 575 392 592 411 l 835 411 l 835 610 l 754 610 b 563 467 646 610 583 569 l 535 606 l 382 606 l 382 196 b 276 453 307 233 276 319 l 276 524 b 485 806 276 718 349 806 b 669 678 592 806 649 761 l 910 678 b 489 1008 868 897 740 1008 b 46 533 206 1008 46 839 l 46 444 b 489 -21 46 143 196 -21 z "},"₣":{"ha":789,"x_min":0,"x_max":0,"o":"m 72 996 l 72 0 l 321 0 l 321 160 l 728 160 l 728 350 l 321 350 l 321 426 l 728 426 l 728 618 l 321 618 l 321 769 l 747 769 l 747 996 z "},"₤":{"ha":910,"x_min":0,"x_max":0,"o":"m 14 136 b 211 -21 14 39 68 -21 b 399 63 290 -21 354 11 b 649 -21 468 19 550 -21 b 894 261 828 -21 894 49 l 894 299 l 654 299 l 654 279 b 575 156 654 192 638 156 b 465 189 536 156 501 169 b 479 293 474 222 479 257 b 475 346 479 311 478 329 l 644 346 l 644 464 l 447 464 b 426 522 442 483 433 503 l 644 522 l 644 640 l 386 640 b 378 704 381 663 378 683 b 472 797 378 767 410 797 b 569 703 535 797 564 761 l 569 701 l 825 704 b 469 1014 801 897 697 1014 b 132 717 244 1014 132 899 b 142 640 132 689 135 664 l 47 640 l 47 522 l 194 522 b 235 464 207 501 221 483 l 47 464 l 47 346 l 311 346 b 331 264 324 321 331 293 b 197 296 292 282 247 296 b 14 136 83 296 14 229 z m 164 139 b 203 171 164 157 176 171 b 290 135 229 171 257 157 b 210 104 271 115 244 104 b 164 139 181 104 164 119 z "},"₹":{"ha":897,"x_min":0,"x_max":0,"o":"m 514 0 l 772 0 b 751 56 757 13 751 32 l 751 185 b 589 414 751 331 703 393 b 753 561 681 439 733 486 l 875 561 l 875 717 l 751 717 b 703 788 742 744 726 768 l 875 788 l 875 996 l 64 996 l 64 788 l 358 788 b 503 717 435 788 482 764 l 64 717 l 64 561 l 503 561 b 347 492 479 513 426 492 l 65 492 l 65 293 l 354 293 b 492 158 458 293 492 258 l 492 53 b 514 0 492 32 499 10 z "},"₦":{"ha":1186,"x_min":0,"x_max":0,"o":"m 15 460 l 15 311 l 163 311 l 163 0 l 397 0 l 397 629 l 768 0 l 1018 0 l 1018 311 l 1172 311 l 1172 460 l 1018 460 l 1018 539 l 1172 539 l 1172 688 l 1018 688 l 1018 996 l 785 996 l 785 369 l 419 996 l 163 996 l 163 688 l 15 688 l 15 539 l 163 539 l 163 460 z "},"₧":{"ha":2267,"x_min":0,"x_max":0,"o":"m 72 996 l 72 0 l 324 0 l 324 294 l 472 294 b 868 581 717 293 843 401 l 1006 581 l 1006 408 b 1503 0 1006 119 1074 0 l 1753 0 b 2243 269 2154 0 2243 101 b 1997 494 2243 432 2119 475 b 1750 572 1874 514 1750 508 b 1856 640 1750 611 1778 640 b 1986 554 1932 640 1975 610 l 2233 554 b 1858 824 2208 715 2100 824 b 1506 557 1631 824 1506 714 l 1506 556 b 1749 329 1506 392 1628 347 b 1992 271 1868 313 1992 324 b 1738 206 1992 228 1954 206 l 1531 206 b 1244 426 1297 206 1244 253 l 1244 581 l 1444 581 l 1444 804 l 1244 804 l 1244 996 l 1067 996 b 1043 885 1063 956 1056 914 b 976 810 1029 849 1008 824 b 849 788 949 797 904 789 b 468 996 801 917 676 996 z m 464 782 b 618 647 564 782 618 731 b 465 510 618 556 558 510 l 324 510 l 324 782 z "},"₨":{"ha":1710,"x_min":0,"x_max":0,"o":"m 72 996 l 72 0 l 322 0 l 322 336 l 413 336 b 708 196 551 336 621 272 l 740 167 b 1289 -24 881 44 1019 -24 b 1681 258 1576 -24 1681 94 b 1392 496 1681 438 1528 475 b 1186 572 1283 513 1186 515 b 1292 639 1186 611 1214 639 b 1422 554 1368 639 1411 610 l 1669 554 b 1294 824 1644 715 1535 824 b 942 557 1067 824 942 714 b 1194 325 942 390 1069 346 b 1433 243 1313 301 1433 306 b 1288 171 1433 200 1399 171 b 942 293 1125 171 1035 218 l 910 319 b 724 440 842 376 790 417 b 867 686 814 485 867 561 b 476 996 867 872 757 996 z m 471 782 b 610 669 568 782 610 740 b 469 551 610 596 563 551 l 322 551 l 322 782 z "},"₩":{"ha":1449,"x_min":0,"x_max":0,"o":"m 15 463 l 15 314 l 213 314 l 288 0 l 515 0 l 714 596 l 899 0 l 1129 0 l 1214 314 l 1435 314 l 1435 463 l 1254 463 l 1272 531 l 1435 531 l 1435 681 l 1314 681 l 1400 996 l 1158 996 l 997 347 l 814 996 l 631 996 l 432 358 l 296 996 l 51 996 l 125 681 l 15 681 l 15 531 l 161 531 l 178 463 z "},"₪":{"ha":1215,"x_min":0,"x_max":0,"o":"m 64 0 l 281 0 l 281 806 l 433 806 b 657 503 599 806 657 726 l 657 269 l 685 269 b 868 497 821 269 868 315 l 868 554 b 457 996 868 860 726 996 l 64 996 z m 361 0 l 738 0 b 1160 460 1021 0 1160 163 l 1160 996 l 944 996 l 944 511 b 707 196 944 268 865 196 l 576 196 l 576 490 b 394 732 576 693 544 732 l 361 732 z "},"₮":{"ha":826,"x_min":0,"x_max":0,"o":"m 125 271 l 125 139 l 282 197 l 282 0 l 538 0 l 538 294 l 692 353 l 692 485 l 538 426 l 538 511 l 692 571 l 692 701 l 538 643 l 538 768 l 793 768 l 793 996 l 35 996 l 35 768 l 282 768 l 282 547 l 125 488 l 125 356 l 282 415 l 282 329 z "},"₱":{"ha":993,"x_min":0,"x_max":0,"o":"m 15 557 l 15 444 l 113 444 l 113 0 l 344 0 l 344 183 l 481 183 b 879 444 714 182 839 289 l 979 444 l 979 557 l 894 557 l 894 622 l 979 622 l 979 735 l 881 735 b 476 996 842 889 711 996 l 113 996 l 113 735 l 15 735 l 15 622 l 113 622 l 113 557 z m 474 801 b 631 735 546 801 599 776 l 344 735 l 344 801 z m 665 569 b 664 557 665 564 664 560 l 344 557 l 344 622 l 665 622 z m 475 375 l 344 375 l 344 444 l 629 444 b 475 375 597 400 546 375 z "},"฿":{"ha":899,"x_min":0,"x_max":0,"o":"m 74 0 l 333 0 l 333 -172 l 574 -172 l 574 3 b 871 290 778 22 871 125 b 726 513 871 407 818 475 b 849 738 806 551 849 621 b 578 989 849 876 764 964 l 578 1181 l 336 1181 l 336 996 l 74 996 z m 471 796 b 601 704 564 796 601 767 b 471 607 601 638 560 607 l 322 607 l 322 796 z m 458 414 b 614 315 572 414 614 382 b 457 215 614 250 578 215 l 321 215 l 322 414 z "},"₲":{"ha":943,"x_min":0,"x_max":0,"o":"m 682 0 l 885 0 l 885 532 l 535 532 l 535 358 l 632 358 b 478 201 628 269 578 201 b 308 446 360 201 307 264 l 308 543 b 479 788 308 711 360 788 b 628 632 585 788 624 731 l 628 631 l 886 631 l 886 638 b 601 1004 882 842 785 968 l 601 1181 l 361 1181 l 361 1003 b 46 553 164 961 46 815 l 46 433 b 357 -21 46 131 143 -10 l 357 -172 l 600 -172 l 600 75 b 661 231 632 118 651 171 z "},"₵":{"ha":942,"x_min":0,"x_max":0,"o":"m 361 1181 l 361 1003 b 46 556 165 964 46 815 l 46 429 b 358 -11 46 168 153 25 l 358 -172 l 600 -172 l 600 -10 b 910 390 792 28 899 157 l 910 415 l 639 415 l 639 397 b 479 215 631 279 585 215 b 310 453 364 215 310 293 l 310 539 b 479 788 310 707 363 788 b 638 613 586 788 631 728 l 638 597 l 906 597 l 906 628 b 603 1004 894 844 786 968 l 603 1181 z "},"₫":{"ha":808,"x_min":0,"x_max":0,"o":"m 300 189 b 515 313 407 189 479 235 l 538 203 l 739 203 l 739 826 l 803 826 l 803 933 l 739 933 l 739 996 l 507 996 l 507 933 l 426 933 l 426 826 l 507 826 l 507 714 b 306 822 471 783 403 822 b 32 517 147 822 32 715 l 32 500 b 300 189 32 306 136 189 z m 389 369 b 267 506 314 369 267 419 l 267 514 b 389 646 267 596 314 646 b 510 513 464 646 510 596 l 510 506 b 389 369 511 421 461 369 z m 39 147 l 39 0 l 754 0 l 754 147 z "},"₭":{"ha":915,"x_min":0,"x_max":0,"o":"m 89 0 l 343 0 l 343 407 l 453 407 l 638 0 l 918 0 l 718 407 l 882 407 l 882 613 l 710 613 l 894 996 l 624 996 l 442 613 l 343 613 l 343 996 l 89 996 l 89 613 l -4 613 l -4 407 l 89 407 z "},"₴":{"ha":904,"x_min":0,"x_max":0,"o":"m 457 -21 b 842 294 715 -21 829 106 l 842 297 l 585 297 l 585 296 b 458 194 579 232 539 194 b 333 285 375 194 333 225 b 350 344 333 308 339 326 l 878 344 l 878 479 l 529 479 b 643 536 567 497 606 515 l 878 536 l 878 671 l 794 671 b 811 758 806 696 811 728 b 464 1015 811 918 693 1015 b 83 722 233 1015 96 910 l 83 721 l 335 721 l 335 722 b 460 817 342 781 383 817 b 569 726 532 817 569 782 b 554 671 571 704 565 688 l 31 671 l 31 536 l 388 536 b 275 479 350 518 311 499 l 31 479 l 31 344 l 117 344 b 92 239 101 317 92 282 b 457 -21 92 82 203 -21 z "},"₸":{"ha":751,"x_min":0,"x_max":0,"o":"m 29 996 l 29 831 l 722 831 l 722 996 z m 247 0 l 504 0 l 504 567 l 722 567 l 722 761 l 29 761 l 29 567 l 247 567 z "},"₺":{"ha":810,"x_min":0,"x_max":0,"o":"m 275 0 b 797 513 624 0 783 186 l 569 510 l 569 511 b 378 232 556 315 486 242 l 378 456 l 540 511 l 540 640 l 378 585 l 378 658 l 540 714 l 540 843 l 378 788 l 378 996 l 126 996 l 126 703 l 26 671 l 26 540 l 126 574 l 126 500 l 26 467 l 26 338 l 126 371 l 126 0 z "},"₼":{"ha":1026,"x_min":0,"x_max":0,"o":"m 42 0 l 281 0 l 281 403 b 396 629 281 532 317 603 l 396 0 l 631 0 l 631 629 b 747 403 710 603 747 532 l 747 0 l 986 0 l 986 413 b 631 838 986 658 874 811 l 631 996 l 396 996 l 396 838 b 42 413 153 811 42 658 z "},"₽":{"ha":963,"x_min":0,"x_max":0,"o":"m 151 0 l 406 0 l 406 167 l 714 167 l 714 308 l 406 308 l 406 374 l 538 374 b 933 688 811 374 933 489 l 933 689 b 538 996 933 886 804 996 l 151 996 l 151 529 l 24 529 l 24 374 l 151 374 l 151 308 l 24 308 l 24 167 l 151 167 z m 525 782 b 675 661 619 782 675 750 b 518 529 675 568 617 529 l 406 529 l 406 782 z "},"₿":{"ha":899,"x_min":0,"x_max":0,"o":"m 74 0 l 267 0 l 267 -172 l 419 -172 l 419 0 l 485 0 l 485 -172 l 636 -172 l 636 13 b 871 290 797 44 871 142 b 726 513 871 407 818 475 b 849 738 806 551 849 621 b 636 978 849 861 782 944 l 636 1181 l 485 1181 l 485 994 b 460 996 476 994 468 996 l 419 996 l 419 1181 l 269 1181 l 269 996 l 74 996 z m 471 796 b 601 704 564 796 601 767 b 471 607 601 638 560 607 l 322 607 l 322 796 z m 458 414 b 614 315 572 414 614 382 b 457 215 614 250 578 215 l 321 215 l 322 414 z "},"#":{"ha":1243,"x_min":0,"x_max":0,"o":"m 38 397 l 38 188 l 231 188 l 201 0 l 446 0 l 475 188 l 669 188 l 640 0 l 882 0 l 911 188 l 1160 188 l 1160 397 l 944 397 l 975 597 l 1206 597 l 1206 808 l 1007 808 l 1038 996 l 796 996 l 765 808 l 571 808 l 601 996 l 357 996 l 328 808 l 85 808 l 85 597 l 294 597 l 264 397 z m 507 397 l 539 597 l 733 597 l 701 397 z "},"₀":{"ha":497,"x_min":0,"x_max":0,"o":"m 249 -121 b 464 110 389 -121 464 -46 l 464 163 b 249 396 464 319 378 396 b 33 163 117 396 33 318 l 33 108 b 249 -121 33 -44 107 -121 z m 249 21 b 193 117 207 21 193 50 l 193 157 b 249 251 193 224 207 251 b 303 157 289 251 303 224 l 303 117 b 249 21 303 49 286 21 z "},"₁":{"ha":390,"x_min":0,"x_max":0,"o":"m 26 28 l 26 -111 l 367 -111 l 367 28 l 275 28 l 275 386 l 153 386 b 47 297 140 333 104 300 l 47 186 l 128 186 l 128 28 z "},"₂":{"ha":468,"x_min":0,"x_max":0,"o":"m 31 -111 l 438 -111 l 438 22 l 201 22 b 297 69 222 40 258 53 b 440 236 365 97 440 138 b 239 396 440 333 381 396 b 33 219 104 396 33 328 l 33 197 l 189 197 l 189 215 b 236 269 189 246 199 269 b 283 232 269 269 283 256 b 201 161 285 199 246 182 b 31 -12 128 133 31 100 z "},"₃":{"ha":469,"x_min":0,"x_max":0,"o":"m 236 -122 b 444 33 376 -122 444 -61 b 369 143 444 94 415 126 b 436 247 413 160 436 193 b 233 394 436 335 367 394 b 32 225 96 394 32 331 l 32 214 l 182 214 l 182 219 b 233 264 182 247 196 264 b 282 229 268 264 282 250 b 238 190 282 204 269 190 l 183 190 l 183 83 l 235 83 b 286 50 271 83 286 75 b 232 11 286 22 272 11 b 179 57 190 11 179 28 l 179 64 l 24 64 l 24 47 b 236 -122 24 -72 83 -122 z "},"₄":{"ha":479,"x_min":0,"x_max":0,"o":"m 260 -111 l 396 -111 l 396 -26 l 467 -26 l 467 92 l 396 92 l 396 386 l 265 386 l 18 76 l 18 -26 l 260 -26 z m 176 92 l 260 196 l 260 92 z "},"₅":{"ha":476,"x_min":0,"x_max":0,"o":"m 243 -121 b 456 63 392 -121 456 -51 b 286 222 456 167 393 222 b 182 192 240 222 207 210 l 193 261 l 300 261 b 428 385 404 261 428 288 l 428 386 l 76 386 l 40 113 l 181 75 l 183 79 b 243 113 194 97 215 113 b 301 64 278 113 301 100 b 244 8 303 31 285 8 b 190 53 210 8 190 25 l 190 56 l 31 56 l 31 54 b 243 -121 31 -58 89 -121 z "},"₆":{"ha":494,"x_min":0,"x_max":0,"o":"m 256 -121 b 464 54 386 -121 464 -56 b 296 197 464 151 406 197 b 186 147 243 197 207 179 l 186 163 b 253 268 186 239 211 268 b 301 228 286 268 299 250 l 301 226 l 457 226 b 251 396 451 336 383 396 b 32 163 115 396 32 318 l 32 111 b 256 -121 32 -43 104 -121 z m 256 103 b 315 57 293 103 315 89 b 258 7 315 25 296 7 b 188 76 218 7 194 28 b 256 103 201 93 224 103 z "},"₇":{"ha":422,"x_min":0,"x_max":0,"o":"m 53 -111 l 228 -111 b 408 268 261 28 319 151 l 408 386 l 18 386 l 18 250 l 244 250 b 53 -111 174 161 94 31 z "},"₈":{"ha":490,"x_min":0,"x_max":0,"o":"m 461 26 b 386 143 461 88 432 125 b 453 247 428 160 453 193 l 453 249 b 246 396 453 340 372 396 b 40 249 118 396 40 339 b 107 142 40 190 64 157 b 29 26 60 121 29 83 l 29 25 b 243 -121 29 -72 93 -121 b 461 26 388 -121 461 -68 z m 246 275 b 306 232 286 275 304 258 b 250 190 306 203 285 190 l 240 190 b 188 232 207 190 188 203 b 246 275 188 258 207 275 z m 246 4 b 182 47 203 4 182 19 b 239 93 182 76 200 93 l 250 93 b 310 49 292 93 310 81 b 246 4 310 21 288 4 z "},"₉":{"ha":486,"x_min":0,"x_max":0,"o":"m 239 -124 b 457 111 381 -124 457 -46 l 457 163 b 235 394 457 318 381 394 b 25 218 96 394 25 328 b 197 75 25 122 88 75 b 307 129 251 75 285 94 l 307 111 b 240 6 307 33 282 6 b 192 47 207 6 194 24 l 28 47 b 239 -124 33 -61 104 -122 z m 175 214 b 236 264 175 247 199 264 b 304 197 275 264 297 244 b 236 169 290 181 268 169 b 175 214 197 169 175 183 z "},"⁰":{"ha":497,"x_min":0,"x_max":0,"o":"m 249 600 b 464 831 389 600 464 675 l 464 883 b 249 1117 464 1040 378 1117 b 33 883 117 1117 33 1039 l 33 829 b 249 600 33 676 107 600 z m 249 742 b 193 838 207 742 193 771 l 193 878 b 249 972 193 944 207 972 b 303 878 289 972 303 944 l 303 838 b 249 742 303 769 286 742 z "},"¹":{"ha":390,"x_min":0,"x_max":0,"o":"m 26 749 l 26 610 l 367 610 l 367 749 l 275 749 l 275 1107 l 153 1107 b 47 1018 140 1054 104 1021 l 47 907 l 128 907 l 128 749 z "},"²":{"ha":468,"x_min":0,"x_max":0,"o":"m 31 610 l 438 610 l 438 743 l 201 743 b 297 790 222 761 258 774 b 440 957 365 818 440 858 b 239 1117 440 1054 381 1117 b 33 940 104 1117 33 1049 l 33 918 l 189 918 l 189 936 b 236 990 189 967 199 990 b 283 953 269 990 283 976 b 201 882 285 919 246 903 b 31 708 128 854 31 821 z "},"³":{"ha":469,"x_min":0,"x_max":0,"o":"m 236 599 b 444 754 376 599 444 660 b 369 864 444 815 415 847 b 436 968 413 881 436 914 b 233 1115 436 1056 367 1115 b 32 946 96 1115 32 1051 l 32 935 l 182 935 l 182 940 b 233 985 182 968 196 985 b 282 950 268 985 282 971 b 238 911 282 925 269 911 l 183 911 l 183 804 l 235 804 b 286 771 271 804 286 796 b 232 732 286 743 272 732 b 179 778 190 732 179 749 l 179 785 l 24 785 l 24 768 b 236 599 24 649 83 599 z "},"⁴":{"ha":479,"x_min":0,"x_max":0,"o":"m 260 610 l 396 610 l 396 694 l 467 694 l 467 813 l 396 813 l 396 1107 l 265 1107 l 18 797 l 18 694 l 260 694 z m 176 813 l 260 917 l 260 813 z "},"⁵":{"ha":476,"x_min":0,"x_max":0,"o":"m 243 600 b 456 783 392 600 456 669 b 286 943 456 888 393 943 b 182 913 240 943 207 931 l 193 982 l 300 982 b 428 1106 404 982 428 1008 l 428 1107 l 76 1107 l 40 833 l 181 796 l 183 800 b 243 833 194 818 215 833 b 301 785 278 833 301 821 b 244 729 303 751 285 729 b 190 774 210 729 190 746 l 190 776 l 31 776 l 31 775 b 243 600 31 663 89 600 z "},"⁶":{"ha":494,"x_min":0,"x_max":0,"o":"m 256 600 b 464 775 386 600 464 665 b 296 918 464 872 406 918 b 186 868 243 918 207 900 l 186 883 b 253 989 186 960 211 989 b 301 949 286 989 299 971 l 301 947 l 457 947 b 251 1117 451 1057 383 1117 b 32 883 115 1117 32 1039 l 32 832 b 256 600 32 678 104 600 z m 256 824 b 315 778 293 824 315 810 b 258 728 315 746 296 728 b 188 797 218 728 194 749 b 256 824 201 814 224 824 z "},"⁷":{"ha":422,"x_min":0,"x_max":0,"o":"m 53 610 l 228 610 b 408 989 261 749 319 872 l 408 1107 l 18 1107 l 18 971 l 244 971 b 53 610 174 882 94 751 z "},"⁸":{"ha":490,"x_min":0,"x_max":0,"o":"m 461 747 b 386 864 461 808 432 846 b 453 968 428 881 453 914 l 453 969 b 246 1117 453 1061 372 1117 b 40 969 118 1117 40 1060 b 107 863 40 911 64 878 b 29 747 60 842 29 804 l 29 746 b 243 600 29 649 93 600 b 461 747 388 600 461 653 z m 246 996 b 306 953 286 996 304 979 b 250 911 306 924 285 911 l 240 911 b 188 953 207 911 188 924 b 246 996 188 979 207 996 z m 246 725 b 182 768 203 725 182 740 b 239 814 182 797 200 814 l 250 814 b 310 769 292 814 310 801 b 246 725 310 742 288 725 z "},"⁹":{"ha":486,"x_min":0,"x_max":0,"o":"m 239 597 b 457 832 381 597 457 675 l 457 883 b 235 1115 457 1039 381 1115 b 25 939 96 1115 25 1049 b 197 796 25 843 88 796 b 307 850 251 796 285 815 l 307 832 b 240 726 307 754 282 726 b 192 768 207 726 194 744 l 28 768 b 239 597 33 660 104 599 z m 175 935 b 236 985 175 968 199 985 b 304 918 275 985 297 965 b 236 890 290 901 268 890 b 175 935 197 890 175 904 z "},"⁄":{"ha":1210,"x_min":0,"x_max":0,"o":"m 656 599 l 714 553 l 1132 900 l 929 1056 z m 117 117 l 322 -49 l 599 431 l 543 479 z "},"⅟":{"ha":1210,"x_min":0,"x_max":0,"o":"m 656 599 l 714 553 l 1132 900 l 929 1056 z m 136 635 l 136 496 l 478 496 l 478 635 l 386 635 l 386 993 l 264 993 b 158 904 251 940 215 907 l 158 793 l 239 793 l 239 635 z m 117 117 l 322 -49 l 599 431 l 543 479 z "},"½":{"ha":1210,"x_min":0,"x_max":0,"o":"m 656 599 l 714 553 l 1132 900 l 929 1056 z m 136 635 l 136 496 l 478 496 l 478 635 l 386 635 l 386 993 l 264 993 b 158 904 251 940 215 907 l 158 793 l 239 793 l 239 635 z m 690 99 l 690 0 l 1097 0 l 1097 133 l 861 133 b 944 174 879 149 910 161 b 1100 347 1014 204 1100 242 b 899 507 1100 444 1040 507 b 693 331 765 507 693 439 l 693 308 l 849 308 l 849 326 b 894 381 849 357 858 381 b 943 343 931 381 943 367 b 849 268 944 307 900 290 b 690 99 778 239 690 206 z m 117 117 l 322 -49 l 599 431 l 543 479 z "},"⅓":{"ha":1210,"x_min":0,"x_max":0,"o":"m 714 553 l 1132 900 l 929 1056 l 656 599 z m 136 496 l 478 496 l 478 635 l 386 635 l 386 993 l 264 993 b 158 904 251 940 215 907 l 158 793 l 239 793 l 239 635 l 136 635 z m 882 -11 b 1090 144 1022 -11 1090 51 b 1017 253 1090 204 1061 238 b 1082 358 1060 269 1082 303 b 879 506 1082 446 1013 506 b 678 338 742 506 678 440 l 678 325 l 826 325 l 826 331 b 879 375 826 358 842 375 b 926 340 914 375 926 361 b 883 301 926 315 915 301 l 831 301 l 831 194 l 882 194 b 931 161 915 194 931 186 b 878 122 931 135 918 122 b 825 168 836 122 825 139 l 825 175 l 669 175 l 669 158 b 882 -11 669 39 729 -11 z m 322 -49 l 599 431 l 543 479 l 117 117 z "},"⅔":{"ha":1210,"x_min":0,"x_max":0,"o":"m 714 553 l 1132 900 l 929 1056 l 656 599 z m 103 496 l 510 496 l 510 629 l 274 629 b 360 672 292 646 324 657 b 513 843 431 700 513 738 b 311 1003 513 940 453 1003 b 106 828 178 1003 106 935 l 106 804 l 261 804 l 261 822 b 308 876 261 853 271 876 b 357 839 344 876 357 863 b 264 764 357 803 314 786 b 103 594 190 738 103 701 z m 882 -11 b 1090 144 1022 -11 1090 51 b 1017 253 1090 204 1061 238 b 1082 358 1060 269 1082 303 b 879 506 1082 446 1013 506 b 678 338 742 506 678 440 l 678 325 l 826 325 l 826 331 b 879 375 826 358 842 375 b 926 340 914 375 926 361 b 883 301 926 315 915 301 l 831 301 l 831 194 l 882 194 b 931 161 915 194 931 186 b 878 122 931 135 918 122 b 825 168 836 122 825 139 l 825 175 l 669 175 l 669 158 b 882 -11 669 39 729 -11 z m 322 -49 l 599 431 l 543 479 l 117 117 z "}}}
